<?xml version="1.0" standalone="no"?>
<!DOCTYPE svg PUBLIC "-//W3C//DTD SVG 1.1//EN" "http://www.w3.org/Graphics/SVG/1.1/DTD/svg11.dtd" >
<svg>
<metadata>
Created by FontForge 20090622 at Tue Sep 18 19:46:15 2018
 By deploy user
Copyright (c) 2008 by Process Type Foundry. All rights reserved.
</metadata>
<defs>
<font id="Knowledge-Black" horiz-adv-x="581" >
  <font-face 
    font-family="Knowledge-Black"
    font-weight="900"
    font-stretch="normal"
    units-per-em="1000"
    panose-1="2 11 5 3 0 0 0 2 0 4"
    ascent="775"
    descent="-225"
    x-height="492"
    cap-height="666"
    bbox="-264 -250 1271 950"
    underline-thickness="80"
    underline-position="-20"
    unicode-range="U+0020-U+FB02"
  />
<missing-glyph horiz-adv-x="608" 
d="M71 0v666h466v-666h-466zM100 25h408v616h-408v-616zM225 239l-14 14l80 80l-80 80l14 14l79 -81l81 81l14 -14l-80 -80l80 -80l-14 -14l-81 81z" />
    <glyph glyph-name="fi" unicode="fi" horiz-adv-x="585" 
d="M316 671l-8 -113q-17 5 -39 5q-21 0 -30 -8.5t-9 -29.5v-33h71v-127h-71v-365h-164v365h-49v127h49v41q0 78 37 115.5t116 37.5q53 0 97 -15zM354 627q0 41 26 68t68 27t68 -27t26 -68q0 -39 -26 -66.5t-68 -27.5t-68 27.5t-26 66.5zM530 0h-164v492h164v-492z" />
    <glyph glyph-name="fl" unicode="fl" horiz-adv-x="602" 
d="M315 664l-8 -114q-18 3 -38 3q-21 0 -30 -9t-9 -29v-23h64v-127h-64v-365h-164v365h-49v127h49v31q0 78 37 115.5t116 37.5q51 0 96 -12zM589 3q-42 -14 -90 -14q-74 0 -106.5 37.5t-32.5 110.5v529h164v-520q0 -28 31 -28q17 0 30 4z" />
    <glyph glyph-name=".notdef" horiz-adv-x="608" 
d="M71 0v666h466v-666h-466zM100 25h408v616h-408v-616zM225 239l-14 14l80 80l-80 80l14 14l79 -81l81 81l14 -14l-80 -80l80 -80l-14 -14l-81 81z" />
    <glyph glyph-name=".null" horiz-adv-x="0" 
 />
    <glyph glyph-name="nonmarkingreturn" horiz-adv-x="333" 
 />
    <glyph glyph-name="space" unicode=" " horiz-adv-x="220" 
 />
    <glyph glyph-name="exclam" unicode="!" horiz-adv-x="287" 
d="M97 220l-41 201v245h174v-245l-41 -201h-92zM51 83q0 41 25.5 66t66.5 25t67 -25t26 -66t-26 -66t-67 -25t-66.5 25t-25.5 66z" />
    <glyph glyph-name="quotedbl" unicode="&#x22;" horiz-adv-x="502" 
d="M302 390l-15 148v128h162v-128l-15 -148h-132zM68 390l-15 148v128h162v-128l-15 -148h-132z" />
    <glyph glyph-name="numbersign" unicode="#" horiz-adv-x="675" 
d="M84 0l35 162h-94l24 109h95l29 133h-95l24 109h94l34 153h124l-34 -153h128l34 153h124l-34 -153h88l-24 -109h-87l-29 -133h88l-24 -109h-88l-36 -162h-124l35 162h-128l-35 -162h-124zM267 271h129l29 133h-128z" />
    <glyph glyph-name="dollar" unicode="$" horiz-adv-x="550" 
d="M40 47l36 127q103 -46 192 -46t89 58q0 28 -21 42.5t-80 32.5t-91 31t-65.5 36t-48 56.5t-14.5 81.5q0 163 158 195v138h162v-136q72 -9 143 -44l-36 -124q-106 45 -187 45q-42 0 -60.5 -12.5t-18.5 -41.5q0 -25 19.5 -37t80.5 -32l26 -9q38 -13 60 -22t51 -26.5
t44.5 -36.5t27 -49.5t11.5 -69.5q0 -76 -43 -127t-120 -69v-141h-162v136q-77 12 -153 44z" />
    <glyph glyph-name="percent" unicode="%" horiz-adv-x="892" 
d="M202 306q-84 0 -130.5 50.5t-46.5 134.5t46.5 134.5t130.5 50.5t130 -50.5t46 -134.5t-46 -134.5t-130 -50.5zM218 0l322 666h140l-323 -666h-139zM202 403q28 0 40.5 20t12.5 68t-12.5 68t-40.5 20t-41 -20t-13 -68t13 -68t41 -20zM696 -10q-84 0 -130.5 50.5
t-46.5 134.5t46.5 134.5t130.5 50.5t130 -50.5t46 -134.5t-46 -134.5t-130 -50.5zM696 87q28 0 40.5 20t12.5 68t-12.5 68t-40.5 20t-41 -20t-13 -68t13 -68t41 -20z" />
    <glyph glyph-name="ampersand" unicode="&#x26;" horiz-adv-x="676" 
d="M35 162q0 58 33.5 102t93.5 89q-86 88 -86 161q0 71 53.5 116.5t145.5 45.5q86 0 136 -39.5t50 -104.5q0 -78 -105 -176l96 -111q29 57 55 148l125 -31q-34 -131 -93 -217l127 -145h-186l-40 44q-79 -54 -182 -54q-97 0 -160 45t-63 127zM272 102q48 0 91 30l-115 129
q-29 -27 -42 -47t-13 -45q0 -34 22 -50.5t57 -16.5zM222 523q0 -31 54 -81q51 44 51 78q0 47 -51 47q-54 0 -54 -44z" />
    <glyph glyph-name="quotesingle" unicode="'" horiz-adv-x="268" 
d="M68 390l-15 148v128h162v-128l-15 -148h-132z" />
    <glyph glyph-name="parenleft" unicode="(" horiz-adv-x="331" 
d="M188 -160q-148 217 -148 454t148 454l118 -71q-52 -107 -77 -197t-25 -186t25 -186t77 -197z" />
    <glyph glyph-name="parenright" unicode=")" horiz-adv-x="331" 
d="M143 -160l-118 71q52 107 77 197t25 186t-25 186t-77 197l118 71q148 -217 148 -454t-148 -454z" />
    <glyph glyph-name="asterisk" unicode="*" horiz-adv-x="424" 
d="M152 308l38 140l-104 -103l-60 105l141 37l-141 37l60 105l104 -105l-38 142h120l-39 -142l105 105l60 -105l-142 -37l142 -37l-60 -105l-105 103l39 -140h-120z" />
    <glyph glyph-name="plus" unicode="+" horiz-adv-x="548" 
d="M199 83v172h-154v136h154v172h150v-172h154v-136h-154v-172h-150z" />
    <glyph glyph-name="comma" unicode="," horiz-adv-x="328" 
d="M85 159h203l-135 -313h-129z" />
    <glyph glyph-name="hyphen" unicode="-" horiz-adv-x="365" 
d="M46 210v145h273v-145h-273z" />
    <glyph glyph-name="period" unicode="." horiz-adv-x="285" 
d="M50 83q0 41 25.5 66t66.5 25t67 -25t26 -66t-26 -66t-67 -25t-66.5 25t-25.5 66z" />
    <glyph glyph-name="slash" unicode="/" horiz-adv-x="481" 
d="M30 -100l268 776h158l-268 -776h-158z" />
    <glyph glyph-name="zero" unicode="0" horiz-adv-x="614" 
d="M307 -10q-138 0 -207.5 89t-69.5 254t69.5 254t207.5 89t207.5 -89t69.5 -254t-69.5 -254t-207.5 -89zM307 120q64 0 88.5 52t24.5 161t-24.5 160.5t-88.5 51.5t-88.5 -51.5t-24.5 -160.5t24.5 -161t88.5 -52z" />
    <glyph glyph-name="one" unicode="1" horiz-adv-x="388" 
d="M159 0v516l-132 -21l-17 131l176 40h137v-666h-164z" />
    <glyph glyph-name="two" unicode="2" horiz-adv-x="545" 
d="M20 0v69q0 56 11 96t38.5 71.5t54.5 52t80 52.5l48.5 29t44.5 27.5t28.5 22t23 27.5t5.5 30q0 68 -96 68q-83 0 -165 -45l-41 119q94 57 226 57q112 0 176 -47.5t64 -145.5q0 -29 -6.5 -54t-20.5 -46t-27 -37t-37 -33.5t-38 -26.5t-42.5 -26l-38.5 -23l-26 -16l-26 -16
t-21 -14t-19 -15l-13.5 -14t-10 -15.5t-2.5 -15.5h311v-131h-481z" />
    <glyph glyph-name="three" unicode="3" horiz-adv-x="532" 
d="M25 42l40 118q85 -39 164 -39q109 0 109 73q0 75 -120 75h-113v131h108q117 0 117 77q0 68 -96 68q-75 0 -154 -44l-41 116q100 59 223 59q112 0 172 -46t60 -125q0 -113 -106 -168q114 -41 114 -153q0 -88 -69 -141t-190 -53q-103 0 -218 52z" />
    <glyph glyph-name="four" unicode="4" horiz-adv-x="586" 
d="M32 144v132l284 390h178v-398h80v-124h-80v-144h-159v144h-303zM180 268h155v229z" />
    <glyph glyph-name="five" unicode="5" horiz-adv-x="575" 
d="M40 50l40 120q98 -50 186 -50q57 0 87.5 24.5t30.5 68.5q0 87 -100 87q-49 0 -89 -33l-132 41v358h442v-131h-278v-128q38 26 102 26q105 0 162 -58t57 -157q0 -102 -74 -165t-200 -63q-132 0 -234 60z" />
    <glyph glyph-name="six" unicode="6" horiz-adv-x="573" 
d="M32 306q0 80 17 145.5t52 116.5t94 79.5t138 28.5q111 0 196 -47l-39 -123q-80 38 -143 38q-142 0 -149 -176q21 27 60 43.5t85 16.5q98 0 152 -55t54 -152q0 -99 -66.5 -165t-180.5 -66q-138 0 -204 86.5t-66 229.5zM203 206q0 -42 24 -67t69 -25t70 26.5t25 70.5
q0 42 -25 65t-70 23q-93 0 -93 -93z" />
    <glyph glyph-name="seven" unicode="7" horiz-adv-x="497" 
d="M66 0l251 535h-295v131h456v-136l-241 -530h-171z" />
    <glyph glyph-name="eight" unicode="8" horiz-adv-x="585" 
d="M36 189q0 112 107 162q-83 50 -83 145q0 83 63 131.5t170 48.5t169.5 -48.5t62.5 -131.5q0 -95 -83 -145q107 -50 107 -162q0 -87 -71 -143t-185 -56q-115 0 -186 56t-71 143zM293 399q37 0 58.5 20.5t21.5 57.5q0 33 -19.5 54t-60.5 21t-61 -21t-20 -54q0 -37 22 -57.5
t59 -20.5zM198 200q0 -43 25 -64.5t70 -21.5t69.5 21.5t24.5 64.5q0 33 -23 56.5t-71 23.5t-71.5 -23.5t-23.5 -56.5z" />
    <glyph glyph-name="nine" unicode="9" horiz-adv-x="575" 
d="M46 37l40 121q74 -36 147 -36q74 0 106 44t38 132q-55 -60 -145 -60q-98 0 -152 55t-54 152q0 104 68 167.5t189 63.5q131 0 195.5 -86.5t64.5 -229.5q0 -78 -17 -143.5t-52 -117t-94 -80.5t-138 -29q-52 0 -107.5 14t-88.5 33zM278 367q45 0 69.5 26.5t24.5 69.5
q0 42 -23.5 66t-69.5 24q-45 0 -70 -26t-25 -69q0 -44 25.5 -67.5t68.5 -23.5z" />
    <glyph glyph-name="colon" unicode=":" horiz-adv-x="287" 
d="M143 274q-41 0 -66.5 25t-25.5 66t25.5 66t66.5 25t67 -25t26 -66t-26 -66t-67 -25zM51 83q0 41 25.5 66t66.5 25t67 -25t26 -66t-26 -66t-67 -25t-66.5 25t-25.5 66z" />
    <glyph glyph-name="semicolon" unicode=";" horiz-adv-x="318" 
d="M176 265q-43 0 -70.5 26.5t-27.5 69.5t27.5 69.5t70.5 26.5q42 0 69.5 -27t27.5 -69t-27.5 -69t-69.5 -27zM78 159h191l-129 -313h-130z" />
    <glyph glyph-name="less" unicode="&#x3c;" horiz-adv-x="553" 
d="M45 259v128l458 176v-145l-281 -95l281 -95v-145z" />
    <glyph glyph-name="equal" unicode="=" horiz-adv-x="558" 
d="M50 367v136h458v-136h-458zM50 143v136h458v-136h-458z" />
    <glyph glyph-name="greater" unicode="&#x3e;" horiz-adv-x="553" 
d="M50 83v145l281 95l-281 95v145l458 -176v-128z" />
    <glyph glyph-name="question" unicode="?" horiz-adv-x="484" 
d="M120 214v46q0 40 13 69.5t30 46t49 39.5l22.5 15.5t19 14l14.5 11.5t12.5 11t7.5 10t5.5 12.5t1.5 13.5q0 24 -20 33t-61 9q-71 0 -156 -39l-28 122q96 48 211 48q218 0 218 -162q0 -65 -29 -107t-95 -85q-25 -16 -36.5 -25.5t-22 -26t-10.5 -37.5v-19h-146zM102 83
q0 41 25.5 66t66.5 25t67 -25t26 -66t-26 -66t-67 -25t-66.5 25t-25.5 66z" />
    <glyph glyph-name="at" unicode="@" horiz-adv-x="785" 
d="M25 260q0 169 109 284t295 115q155 0 245.5 -81.5t90.5 -213.5q0 -101 -52.5 -169.5t-146.5 -68.5q-47 0 -84 24.5t-41 60.5q-42 -85 -118 -85q-47 0 -73.5 34.5t-26.5 83.5q0 102 49.5 162.5t148.5 60.5q80 0 147 -35l-27 -154q-3 -18 -3 -27q0 -44 41 -44t61.5 43.5
t20.5 107.5q0 103 -65.5 159t-173.5 56q-129 0 -211 -90.5t-82 -216.5t67.5 -195t204.5 -69q120 0 243 59l28 -80q-139 -65 -285 -65q-166 0 -264 95.5t-98 248.5zM368 218q43 0 65 117l7 38q-10 5 -23 5q-38 0 -57.5 -33.5t-19.5 -87.5q0 -39 28 -39z" />
    <glyph glyph-name="A" unicode="A" horiz-adv-x="672" 
d="M2 0l239 666h190l239 -666h-172l-42 136h-240l-42 -136h-172zM336 520l-75 -244h150z" />
    <glyph glyph-name="B" unicode="B" horiz-adv-x="629" 
d="M60 0v666h326q92 0 144 -44t52 -120q0 -56 -29 -98.5t-86 -62.5q64 -13 101 -52.5t37 -104.5q0 -82 -59 -133t-157 -51h-329zM227 399h112q38 0 57 19.5t19 52.5q0 64 -80 64h-108v-136zM227 131h138q73 0 73 71q0 31 -21 48.5t-58 17.5h-132v-137z" />
    <glyph glyph-name="C" unicode="C" horiz-adv-x="593" 
d="M196 333q0 -200 210 -200q77 0 136 26l24 -130q-74 -41 -199 -41q-152 0 -246 91.5t-94 253.5t94 253.5t246 91.5q125 0 199 -41l-24 -130q-59 26 -136 26q-210 0 -210 -200z" />
    <glyph glyph-name="D" unicode="D" horiz-adv-x="690" 
d="M64 0v666h258q157 0 250.5 -92t93.5 -241t-93.5 -241t-250.5 -92h-258zM232 143h81q85 0 134.5 46t49.5 144t-49.5 144t-134.5 46h-81v-380z" />
    <glyph glyph-name="E" unicode="E" 
d="M60 0v666h477v-146h-308v-107h289v-146h-289v-121h308v-146h-477z" />
    <glyph glyph-name="F" unicode="F" horiz-adv-x="553" 
d="M60 0v666h473v-146h-304v-129h285v-145h-285v-246h-169z" />
    <glyph glyph-name="G" unicode="G" horiz-adv-x="676" 
d="M27 327q0 163 97 257t274 94q139 0 229 -44l-24 -135q-99 36 -189 36q-218 0 -218 -209q0 -202 203 -202q36 0 66 5v191h159v-297q-92 -35 -234 -35q-91 0 -161.5 26.5t-114 73.5t-65.5 107.5t-22 131.5z" />
    <glyph glyph-name="H" unicode="H" horiz-adv-x="695" 
d="M60 0v666h169v-256h237v256h169v-666h-169v259h-237v-259h-169z" />
    <glyph glyph-name="I" unicode="I" horiz-adv-x="299" 
d="M65 0v666h169v-666h-169z" />
    <glyph glyph-name="J" unicode="J" horiz-adv-x="404" 
d="M18 13l15 129q40 -12 84 -12q58 0 58 52v484h169v-487q0 -86 -48.5 -137.5t-140.5 -51.5q-77 0 -137 23z" />
    <glyph glyph-name="K" unicode="K" horiz-adv-x="661" 
d="M60 0v666h169v-293l204 293h216l-247 -325l251 -341h-215l-209 306v-306h-169z" />
    <glyph glyph-name="L" unicode="L" horiz-adv-x="536" 
d="M60 0v666h169v-520h285v-146h-454z" />
    <glyph glyph-name="M" unicode="M" horiz-adv-x="858" 
d="M60 0v666h169l200 -415l200 415h169v-666h-164v335l-124 -251h-162l-124 251v-335h-164z" />
    <glyph glyph-name="N" unicode="N" horiz-adv-x="726" 
d="M60 0v666h168l274 -385v385h164v-666h-168l-274 385v-385h-164z" />
    <glyph glyph-name="O" unicode="O" horiz-adv-x="704" 
d="M27 333q0 154 86 249.5t239 95.5t239 -95.5t86 -249.5t-86 -249.5t-239 -95.5t-239 95.5t-86 249.5zM352 129q78 0 117 55.5t39 148.5t-39 148.5t-117 55.5t-117 -55.5t-39 -148.5t39 -148.5t117 -55.5z" />
    <glyph glyph-name="P" unicode="P" horiz-adv-x="618" 
d="M60 0v666h314q103 0 166.5 -62t63.5 -161q0 -97 -65 -161.5t-165 -64.5h-145v-217h-169zM229 351h121q39 0 62 24t23 68q0 42 -24 65t-61 23h-121v-180z" />
    <glyph glyph-name="Q" unicode="Q" horiz-adv-x="704" 
d="M27 333q0 154 86 249.5t239 95.5t239 -95.5t86 -249.5q0 -172 -104 -267l66 -109l-115 -68l-68 113q-50 -14 -104 -14q-153 0 -239 95.5t-86 249.5zM352 129q23 0 39 4l-49 85l99 58l42 -69q25 50 25 126q0 93 -39 148.5t-117 55.5t-117 -55.5t-39 -148.5t39 -148.5
t117 -55.5z" />
    <glyph glyph-name="R" unicode="R" horiz-adv-x="676" 
d="M622 444q0 -69 -35 -122t-96 -79l167 -243h-199l-141 222h-89v-222h-169v666h332q105 0 167.5 -60t62.5 -162zM453 444q0 42 -24.5 64.5t-63.5 22.5h-136v-176h136q39 0 63.5 23t24.5 66z" />
    <glyph glyph-name="S" unicode="S" 
d="M556 205q0 -103 -72 -160t-205 -57q-61 0 -129.5 13.5t-117.5 35.5l35 135q112 -45 211 -45q109 0 109 57q0 32 -24 45.5t-98 26.5q-118 21 -176.5 68t-58.5 141q0 213 267 213q127 0 235 -48l-30 -134q-104 45 -207 45q-51 0 -73.5 -12t-22.5 -43q0 -30 24.5 -42.5
t108.5 -30.5q119 -26 171.5 -70t52.5 -138z" />
    <glyph glyph-name="T" unicode="T" horiz-adv-x="573" 
d="M551 520h-180v-520h-168v520h-181v146h529v-146z" />
    <glyph glyph-name="U" unicode="U" horiz-adv-x="690" 
d="M634 666v-405q0 -117 -77 -195t-212 -78t-212 78t-77 195v405h169v-414q0 -59 33 -90t87 -31t87 31t33 90v414h169z" />
    <glyph glyph-name="V" unicode="V" horiz-adv-x="616" 
d="M210 0l-207 666h179l126 -475l126 475h179l-207 -666h-196z" />
    <glyph glyph-name="W" unicode="W" horiz-adv-x="908" 
d="M547 666l110 -389l77 389h171l-168 -666h-158l-125 482l-125 -482h-158l-168 666h171l77 -389l110 389h186z" />
    <glyph glyph-name="X" unicode="X" horiz-adv-x="603" 
d="M595 666l-202 -326l210 -340h-180l-121 202l-122 -202h-180l211 340l-202 326h180l113 -189l113 189h180z" />
    <glyph glyph-name="Y" unicode="Y" horiz-adv-x="577" 
d="M584 666l-211 -411v-255h-169v255l-211 411h180l116 -262l115 262h180z" />
    <glyph glyph-name="Z" unicode="Z" horiz-adv-x="600" 
d="M560 0h-515v146l308 378h-300v142h496v-146l-308 -378h319v-142z" />
    <glyph glyph-name="bracketleft" unicode="[" horiz-adv-x="354" 
d="M329 -150h-264v888h264v-139h-100v-610h100v-139z" />
    <glyph glyph-name="backslash" unicode="\" horiz-adv-x="481" 
d="M293 -100l-268 776h158l268 -776h-158z" />
    <glyph glyph-name="bracketright" unicode="]" horiz-adv-x="354" 
d="M289 -150h-264v139h100v610h-100v139h264v-888z" />
    <glyph glyph-name="asciicircum" unicode="^" horiz-adv-x="503" 
d="M330 666l153 -329h-149l-82 199l-83 -199h-149l154 329h156z" />
    <glyph glyph-name="underscore" unicode="_" horiz-adv-x="452" 
d="M453 -140h-454v80h454v-80z" />
    <glyph glyph-name="grave" unicode="`" horiz-adv-x="377" 
d="M155 550l-95 152h211l46 -152h-162z" />
    <glyph glyph-name="a" unicode="a" horiz-adv-x="550" 
d="M502 0h-156v59q-53 -69 -156 -69q-76 0 -114.5 41.5t-38.5 112.5q0 150 178 150h123v19q0 29 -20 40.5t-62 11.5q-80 0 -157 -37l-28 125q85 49 211 49q111 0 165.5 -42t54.5 -136v-324zM338 174v16h-95q-49 0 -49 -43q0 -46 58 -46q86 0 86 73z" />
    <glyph glyph-name="b" unicode="b" horiz-adv-x="575" 
d="M549 246q0 -116 -48 -186t-143 -70q-92 0 -144 73v-63h-159v666h164v-237q45 73 137 73q96 0 144.5 -70t48.5 -186zM385 246q0 126 -80 126q-46 0 -66 -31t-20 -95t20 -95t66 -31q80 0 80 126z" />
    <glyph glyph-name="c" unicode="c" horiz-adv-x="460" 
d="M436 466l-23 -119q-54 25 -109 25q-63 0 -89.5 -32.5t-26.5 -93.5t26.5 -93.5t89.5 -32.5q55 0 109 25l23 -119q-59 -36 -161 -36q-125 0 -188 69t-63 187t63 187t188 69q102 0 161 -36z" />
    <glyph glyph-name="d" unicode="d" horiz-adv-x="571" 
d="M22 246q0 116 48.5 186t144.5 70q92 0 137 -73v237h164v-666h-159v63q-48 -73 -144 -73q-95 0 -143 70t-48 186zM186 246q0 -126 80 -126q46 0 66 31t20 95t-20 95t-66 31q-80 0 -80 -126z" />
    <glyph glyph-name="e" unicode="e" horiz-adv-x="513" 
d="M486 194h-295q7 -43 31.5 -64t76.5 -21q81 0 157 35l28 -109q-87 -45 -206 -45q-126 0 -190 66.5t-64 189.5q0 110 62 183t184 73q109 0 162.5 -63.5t53.5 -178.5v-66zM268 394q-69 0 -78 -95h143v13q0 82 -65 82z" />
    <glyph glyph-name="f" unicode="f" horiz-adv-x="318" 
d="M324 660l-8 -113q-22 6 -47 6q-39 0 -39 -38v-23h76v-127h-76v-365h-164v365h-49v127h49v31q0 78 37 115.5t116 37.5q61 0 105 -16z" />
    <glyph glyph-name="g" unicode="g" horiz-adv-x="569" 
d="M514 492v-464q0 -216 -259 -216q-91 0 -188 33l23 115q77 -28 155 -28q58 0 82 21.5t24 63.5v69q-20 -31 -56.5 -52t-84.5 -21q-96 0 -142 67t-46 178q0 110 46.5 177t141.5 67q98 0 145 -73v63h159zM351 258q0 115 -84 115q-81 0 -81 -115q0 -60 19.5 -87.5t61.5 -27.5
q84 0 84 115z" />
    <glyph glyph-name="h" unicode="h" horiz-adv-x="565" 
d="M515 0h-164v299q0 62 -57 62q-75 0 -75 -98v-263h-164v666h164v-240q48 76 144 76q152 0 152 -169v-333z" />
    <glyph glyph-name="i" unicode="i" horiz-adv-x="274" 
d="M43 629q0 41 26 68t68 27t68 -27t26 -68q0 -39 -26 -66.5t-68 -27.5t-68 27.5t-26 66.5zM219 0h-164v492h164v-492z" />
    <glyph glyph-name="j" unicode="j" horiz-adv-x="274" 
d="M43 629q0 41 26 68t68 27t68 -27t26 -68q0 -39 -26 -66.5t-68 -27.5t-68 27.5t-26 66.5zM24 -59q31 0 31 28v523h164v-537q0 -143 -147 -143q-43 0 -91 14l12 119q13 -4 31 -4z" />
    <glyph glyph-name="k" unicode="k" horiz-adv-x="527" 
d="M349 0l-130 215v-215h-164v666h164v-385l125 211h184l-150 -244l157 -248h-186z" />
    <glyph glyph-name="l" unicode="l" horiz-adv-x="294" 
d="M281 3q-42 -14 -90 -14q-74 0 -106.5 37.5t-32.5 110.5v529h164v-520q0 -28 31 -28q18 0 30 4z" />
    <glyph glyph-name="m" unicode="m" horiz-adv-x="845" 
d="M507 0h-164v306q0 55 -53 55q-71 0 -71 -98v-263h-164v492h159v-69q44 79 141 79q103 0 136 -80q53 80 152 80q152 0 152 -169v-333h-164v306q0 55 -53 55q-71 0 -71 -98v-263z" />
    <glyph glyph-name="n" unicode="n" horiz-adv-x="565" 
d="M515 0h-164v299q0 62 -57 62q-75 0 -75 -98v-263h-164v492h159v-69q48 79 149 79q152 0 152 -169v-333z" />
    <glyph glyph-name="o" unicode="o" horiz-adv-x="540" 
d="M516 246q0 -115 -64.5 -185.5t-181.5 -70.5t-181.5 70.5t-64.5 185.5t64.5 185.5t181.5 70.5t181.5 -70.5t64.5 -185.5zM352 246q0 132 -82 132t-82 -132t82 -132t82 132z" />
    <glyph glyph-name="p" unicode="p" horiz-adv-x="575" 
d="M356 -10q-85 0 -137 73v-241h-164v670h159v-63q51 73 144 73q95 0 143 -70t48 -186q0 -113 -48.5 -184.5t-144.5 -71.5zM305 120q80 0 80 126t-80 126q-46 0 -66 -31t-20 -95t20 -95t66 -31z" />
    <glyph glyph-name="q" unicode="q" horiz-adv-x="575" 
d="M26 246q0 116 48 186t143 70q89 0 144 -73v63h159v-670h-164v241q-52 -73 -137 -73q-96 0 -144.5 70t-48.5 186zM190 246q0 -126 80 -126q46 0 66 31t20 95t-20 95t-66 31q-80 0 -80 -126z" />
    <glyph glyph-name="r" unicode="r" horiz-adv-x="364" 
d="M356 344q-20 3 -34 3q-58 0 -80.5 -30t-22.5 -103v-214h-164v492h159v-76q9 36 35 58.5t69 22.5q25 0 38 -5v-148z" />
    <glyph glyph-name="s" unicode="s" horiz-adv-x="458" 
d="M435 167q0 -83 -56.5 -130t-154.5 -47q-106 0 -199 39l34 113q80 -35 163 -35q53 0 53 30q0 12 -11.5 19t-41.5 14q-113 28 -154 64.5t-41 108.5q0 159 204 159q110 0 191 -40l-30 -110q-82 33 -154 33q-51 0 -51 -24q0 -15 15 -22.5t75 -23.5q79 -21 118.5 -52.5
t39.5 -95.5z" />
    <glyph glyph-name="t" unicode="t" horiz-adv-x="357" 
d="M326 5q-41 -15 -98 -15q-78 0 -113.5 37t-35.5 110v218h-64v137h64v124h164v-124h92v-137h-92v-200q0 -19 9 -27t31 -8q18 0 40 4z" />
    <glyph glyph-name="u" unicode="u" horiz-adv-x="560" 
d="M50 492h164v-309q0 -55 53 -55q37 0 55.5 25.5t18.5 69.5v269h164v-492h-159v69q-49 -79 -144 -79q-152 0 -152 169v333z" />
    <glyph glyph-name="v" unicode="v" horiz-adv-x="477" 
d="M239 162l76 330h172l-153 -492h-191l-153 492h172z" />
    <glyph glyph-name="w" unicode="w" horiz-adv-x="761" 
d="M465 492l76 -304l63 304h162l-137 -492h-169l-80 310l-80 -310h-168l-137 492h161l63 -304l76 304h170z" />
    <glyph glyph-name="x" unicode="x" horiz-adv-x="486" 
d="M480 492l-153 -246l153 -246h-168l-69 117l-68 -117h-169l153 247l-152 245h168l68 -117l68 117h169z" />
    <glyph glyph-name="y" unicode="y" horiz-adv-x="469" 
d="M238 165l73 327h168l-207 -670h-167l52 170l-167 500h172z" />
    <glyph glyph-name="z" unicode="z" horiz-adv-x="485" 
d="M450 0h-410v127l205 238h-195v127h398v-127l-214 -238h216v-127z" />
    <glyph glyph-name="braceleft" unicode="{" horiz-adv-x="389" 
d="M285 139v-116q0 -36 35 -36h44v-137h-97q-70 0 -108 38t-38 113v145q0 78 -82 78h-19v140h19q82 0 82 78v145q0 75 38 113t108 38h97v-137h-44q-35 0 -35 -36v-116q0 -69 -33 -107.5t-107 -47.5q74 -9 107 -47.5t33 -107.5z" />
    <glyph glyph-name="bar" unicode="|" horiz-adv-x="280" 
d="M210 -250h-140v1000h140v-1000z" />
    <glyph glyph-name="braceright" unicode="}" horiz-adv-x="389" 
d="M104 23v116q0 69 33 107.5t107 47.5q-74 9 -107 47.5t-33 107.5v116q0 36 -35 36h-44v137h97q70 0 108 -38t38 -113v-145q0 -78 82 -78h19v-140h-19q-82 0 -82 -78v-145q0 -75 -38 -113t-108 -38h-97v137h44q35 0 35 36z" />
    <glyph glyph-name="asciitilde" unicode="~" horiz-adv-x="586" 
d="M561 389q-20 -79 -52.5 -126t-90.5 -47q-40 0 -110 26t-92 26q-6 0 -11.5 -1.5t-9.5 -5t-6.5 -5.5t-6 -8.5t-4.5 -9l-4 -10.5t-4 -9l-140 49q22 84 56.5 123t103.5 39q38 0 100 -26t84 -26q29 0 47 52z" />
    <glyph glyph-name="uni00A0" unicode="&#xa0;" horiz-adv-x="220" 
 />
    <glyph glyph-name="exclamdown" unicode="&#xa1;" horiz-adv-x="287" 
d="M56 67l41 207h92l41 -207v-245h-174v245zM51 411q0 41 25.5 66t66.5 25t67 -25t26 -66t-26 -66t-67 -25t-66.5 25t-25.5 66z" />
    <glyph glyph-name="cent" unicode="&#xa2;" horiz-adv-x="463" 
d="M189 -24v132q-81 21 -123 80t-42 146q0 86 42 145t123 80v131h162v-127q50 -10 86 -30l-28 -116q-52 26 -109 26q-117 0 -117 -109t117 -109q57 0 109 26l28 -116q-36 -20 -86 -30v-129h-162z" />
    <glyph glyph-name="sterling" unicode="&#xa3;" horiz-adv-x="556" 
d="M43 246v130h76v79q0 121 62 171t175 50q102 0 180 -35l-28 -122q-71 27 -134 27q-50 0 -70.5 -22t-20.5 -74v-74h157v-130h-169q-17 -69 -64 -116h298v-130h-481v118q64 50 83 128h-64z" />
    <glyph glyph-name="currency" unicode="&#xa4;" horiz-adv-x="607" 
d="M386 520l90 91l99 -95l-79 -80q33 -49 33 -113q0 -65 -33 -113l79 -80l-99 -95l-90 90q-37 -13 -82 -13q-46 0 -83 13l-89 -90l-100 95l79 80q-33 48 -33 113q0 64 33 113l-79 80l100 95l89 -91q32 14 83 14q50 0 82 -14zM215 323q0 -48 23 -75t66 -27t65.5 27.5
t22.5 74.5t-22.5 74.5t-65.5 27.5t-66 -27t-23 -75z" />
    <glyph glyph-name="yen" unicode="&#xa5;" horiz-adv-x="572" 
d="M67 133v112h137v6l-27 61h-110v117h58l-104 237h171l94 -272l94 272h171l-105 -237h60v-117h-111l-27 -61v-6h138v-112h-138v-133h-164v133h-137z" />
    <glyph glyph-name="brokenbar" unicode="&#xa6;" horiz-adv-x="280" 
d="M210 750v-415h-140v415h140zM210 -250h-140v415h140v-415z" />
    <glyph glyph-name="section" unicode="&#xa7;" horiz-adv-x="558" 
d="M527 255q0 -88 -76 -151q61 -46 61 -117q0 -77 -66 -126t-172 -49q-124 0 -238 52l38 110q96 -46 185 -46q96 0 96 50q0 7 -2.5 13t-9 11t-12.5 9t-18 9t-21 8l-25 8.5l-27 9.5q-113 41 -162.5 84.5t-49.5 122.5q0 90 79 141q-58 46 -58 118q0 76 57.5 120t179.5 44
q114 0 206 -40l-27 -111q-85 35 -171 35q-50 0 -69.5 -9.5t-19.5 -34.5q0 -22 17.5 -33t74.5 -32q21 -8 33 -12q38 -14 60 -23.5t51.5 -26t45.5 -34t28 -43.5t12 -57zM233 330l-20 7q-29 -38 -29 -69q0 -32 25 -49t98 -45l38 -15q26 30 26 70q0 32 -28 50.5t-110 50.5z" />
    <glyph glyph-name="dieresis" unicode="&#xa8;" horiz-adv-x="479" 
d="M263 627q0 33 21 54.5t57 21.5t57 -21.5t21 -54.5q0 -32 -21 -53.5t-57 -21.5t-57 21.5t-21 53.5zM60 627q0 33 21 54.5t57 21.5t57 -21.5t21 -54.5q0 -32 -21 -53.5t-57 -21.5t-57 21.5t-21 53.5z" />
    <glyph glyph-name="copyright" unicode="&#xa9;" horiz-adv-x="741" 
d="M20 333q0 145 99 245t251 100q153 0 252 -100t99 -245t-99 -245t-252 -100q-152 0 -251 100t-99 245zM668 333q0 122 -82.5 209.5t-215.5 87.5q-132 0 -214.5 -87.5t-82.5 -209.5t82.5 -209.5t214.5 -87.5q133 0 215.5 87.5t82.5 209.5zM396 529q67 0 113 -24l-17 -84
q-38 16 -84 16q-106 0 -106 -104t106 -104q46 0 84 16l17 -84q-46 -24 -113 -24q-98 0 -151 52.5t-53 143.5t53 143.5t151 52.5z" />
    <glyph glyph-name="ordfeminine" unicode="&#xaa;" horiz-adv-x="381" 
d="M341 344h-109v41q-33 -47 -99 -47q-50 0 -76.5 27t-26.5 76q0 98 118 98h79v12q0 18 -11 25t-38 7q-51 0 -108 -20l-18 81q66 32 145 32q75 0 109.5 -28t34.5 -90v-214zM227 457v11h-62q-28 0 -28 -27q0 -30 39 -30q23 0 37 13t14 33zM34 199v96h317v-96h-317z" />
    <glyph glyph-name="guillemotleft" unicode="&#xab;" horiz-adv-x="661" 
d="M636 458l-147 -208l147 -208h-190l-148 208l148 208h190zM353 458l-147 -208l147 -208h-190l-148 208l148 208h190z" />
    <glyph glyph-name="logicalnot" unicode="&#xac;" horiz-adv-x="548" 
d="M503 83h-150v172h-308v136h458v-308z" />
    <glyph glyph-name="registered" unicode="&#xae;" horiz-adv-x="512" 
d="M25 454q0 92 64 158t167 66q104 0 167.5 -65.5t63.5 -158.5q0 -92 -63.5 -158t-167.5 -66q-102 0 -166.5 66t-64.5 158zM69 454q0 -80 52 -133t135 -53t134.5 53t51.5 133t-51.5 133t-134.5 53t-135 -53t-52 -133zM350 500q0 -47 -41 -64l59 -81h-73l-49 73h-8v-73h-63
v211h92q39 0 61 -17.5t22 -48.5zM287 496q0 24 -27 24h-22v-49h23q11 0 18.5 7t7.5 18z" />
    <glyph glyph-name="macron" unicode="&#xaf;" horiz-adv-x="450" 
d="M390 570h-330v124h330v-124z" />
    <glyph glyph-name="degree" unicode="&#xb0;" horiz-adv-x="348" 
d="M33 541q0 59 38.5 97t102.5 38t102.5 -38t38.5 -97t-38.5 -96.5t-102.5 -37.5t-102.5 37.5t-38.5 96.5zM123 541q0 -29 14 -44.5t37 -15.5t36.5 15.5t13.5 44.5t-13.5 44.5t-36.5 15.5t-37 -15.5t-14 -44.5z" />
    <glyph glyph-name="plusminus" unicode="&#xb1;" horiz-adv-x="548" 
d="M503 0h-458v129h154v140h-154v136h154v172h150v-172h154v-136h-154v-140h154v-129z" />
    <glyph glyph-name="twosuperior" unicode="&#xb2;" horiz-adv-x="370" 
d="M325 390h-290v48q0 59 22 89.5t76 60.5l22 12l20 10.5t15.5 8.5t12.5 8.5t8 8t5.5 9t1.5 10.5q0 26 -42 26q-55 0 -102 -28l-26 85q59 37 146 37q65 0 103 -29t38 -82q0 -50 -26 -78t-83 -58q-4 -2 -15 -8l-18.5 -10t-16.5 -9.5t-13.5 -10t-4.5 -7.5h167v-93z" />
    <glyph glyph-name="threesuperior" unicode="&#xb3;" horiz-adv-x="357" 
d="M322 499q0 -54 -41.5 -84t-111.5 -30q-68 0 -139 31l27 79q47 -21 95 -21q55 0 55 31q0 29 -48 29h-76v90h69q51 0 51 32q0 29 -47 29q-46 0 -92 -22l-27 78q71 34 143 34q65 0 101.5 -27.5t36.5 -72.5q0 -59 -65 -92q69 -23 69 -84z" />
    <glyph glyph-name="acute" unicode="&#xb4;" horiz-adv-x="377" 
d="M60 550l46 152h211l-95 -152h-162z" />
    <glyph glyph-name="mu" unicode="&#xb5;" horiz-adv-x="572" 
d="M55 492h164v-305q0 -59 55 -59q35 0 53.5 24.5t18.5 66.5v273h164v-350q0 -38 39 -38h13v-98q-30 -15 -79 -15q-53 0 -83 22.5t-36 58.5q-62 -82 -163 -82q-34 0 -64 14q82 -54 82 -146v-36h-164v670z" />
    <glyph glyph-name="paragraph" unicode="&#xb6;" horiz-adv-x="577" 
d="M522 -140h-120v706h-99v-431q-122 0 -201.5 70.5t-79.5 194.5q0 127 75.5 196.5t205.5 69.5h219v-806z" />
    <glyph glyph-name="periodcentered" unicode="&#xb7;" horiz-adv-x="285" 
d="M50 273q0 41 25.5 66t66.5 25t67 -25t26 -66t-26 -66t-67 -25t-66.5 25t-25.5 66z" />
    <glyph glyph-name="cedilla" unicode="&#xb8;" horiz-adv-x="316" 
d="M256 -102q0 -86 -193 -86l-3 54q32 2 45.5 7.5t13.5 17.5q0 18 -50 20l21 89h65l-8 -39q109 0 109 -63z" />
    <glyph glyph-name="onesuperior" unicode="&#xb9;" horiz-adv-x="253" 
d="M218 390h-118v272l-73 -10l-12 97l105 21h98v-380z" />
    <glyph glyph-name="ordmasculine" unicode="&#xba;" horiz-adv-x="389" 
d="M359 507q0 -77 -42 -122t-123 -45t-122.5 45t-41.5 122t41.5 123t122.5 46t123 -46t42 -123zM245 507q0 83 -51 83q-50 0 -50 -83q0 -81 50 -81q51 0 51 81zM45 199v96h299v-96h-299z" />
    <glyph glyph-name="guillemotright" unicode="&#xbb;" horiz-adv-x="661" 
d="M498 458l148 -208l-148 -208h-190l147 208l-147 208h190zM215 458l148 -208l-148 -208h-190l147 208l-147 208h190z" />
    <glyph glyph-name="onequarter" unicode="&#xbc;" horiz-adv-x="825" 
d="M637 666l-332 -666h-131l332 666h131zM238 286h-118v272l-73 -10l-12 97l105 21h98v-380zM805 79h-43v-79h-114v79h-175v84l162 217h127v-219h43v-82zM648 161v118l-83 -118h83z" />
    <glyph glyph-name="onehalf" unicode="&#xbd;" horiz-adv-x="860" 
d="M637 666l-332 -666h-131l332 666h131zM238 286h-118v272l-73 -10l-12 97l105 21h98v-380zM815 0h-290v48q0 59 22 89.5t76 60.5l22 12l20 10.5t15.5 8.5t12.5 8.5t8 8t5.5 9t1.5 10.5q0 26 -42 26q-55 0 -102 -28l-26 85q59 37 146 37q65 0 103 -29t38 -82q0 -50 -26 -78
t-83 -58q-4 -2 -15 -8l-18.5 -10t-16.5 -9.5t-13.5 -10t-4.5 -7.5h167v-93z" />
    <glyph glyph-name="threequarters" unicode="&#xbe;" horiz-adv-x="848" 
d="M660 666l-332 -666h-131l332 666h131zM828 79h-43v-79h-114v79h-175v84l162 217h127v-219h43v-82zM671 161v118l-83 -118h83zM322 395q0 -54 -41.5 -84t-111.5 -30q-68 0 -139 31l27 79q47 -21 95 -21q55 0 55 31q0 29 -48 29h-76v90h69q51 0 51 32q0 29 -47 29
q-46 0 -92 -22l-27 78q71 34 143 34q65 0 101.5 -27.5t36.5 -72.5q0 -59 -65 -92q69 -23 69 -84z" />
    <glyph glyph-name="questiondown" unicode="&#xbf;" horiz-adv-x="484" 
d="M369 275v-47q0 -40 -13 -69.5t-30 -46t-49 -39.5l-22.5 -15.5t-19 -14l-14.5 -11.5t-12.5 -11t-7.5 -10t-5.5 -12.5t-1.5 -13.5q0 -24 20 -33t61 -9q71 0 156 39l28 -122q-96 -48 -211 -48q-218 0 -218 162q0 65 29 107t95 85q25 16 36.5 25.5t22 26t10.5 37.5v20h146z
M387 411q0 -41 -25.5 -66t-66.5 -25t-67 25t-26 66t26 66t67 25t66.5 -25t25.5 -66z" />
    <glyph glyph-name="Agrave" unicode="&#xc0;" horiz-adv-x="672" 
d="M2 0l239 666h190l239 -666h-172l-42 136h-240l-42 -136h-172zM336 520l-75 -244h150zM410 725h-164l-132 132h226z" />
    <glyph glyph-name="Aacute" unicode="&#xc1;" horiz-adv-x="672" 
d="M2 0l239 666h190l239 -666h-172l-42 136h-240l-42 -136h-172zM336 520l-75 -244h150zM556 857l-132 -132h-164l70 132h226z" />
    <glyph glyph-name="Acircumflex" unicode="&#xc2;" horiz-adv-x="672" 
d="M2 0l239 666h190l239 -666h-172l-42 136h-240l-42 -136h-172zM336 520l-75 -244h150zM413 857l118 -132h-155l-40 44l-39 -44h-155l117 132h154z" />
    <glyph glyph-name="Atilde" unicode="&#xc3;" horiz-adv-x="672" 
d="M2 0l239 666h190l239 -666h-172l-42 136h-240l-42 -136h-172zM336 520l-75 -244h150zM440 892l104 -37q-10 -32 -16.5 -48t-20 -38.5t-33 -32.5t-45.5 -10q-24 0 -82 22t-75 22t-25 -11t-16 -34l-107 38q20 69 48.5 99t85.5 30q29 0 80.5 -21.5t63.5 -21.5q25 0 38 43z
" />
    <glyph glyph-name="Adieresis" unicode="&#xc4;" horiz-adv-x="672" 
d="M2 0l239 666h190l239 -666h-172l-42 136h-240l-42 -136h-172zM336 520l-75 -244h150zM364 799q0 34 20 53.5t58 19.5t58 -19.5t20 -53.5t-20.5 -54t-57.5 -20t-57.5 20t-20.5 54zM152 799q0 34 20 53.5t58 19.5t58 -19.5t20 -53.5t-20.5 -54t-57.5 -20t-57.5 20t-20.5 54
z" />
    <glyph glyph-name="Aring" unicode="&#xc5;" horiz-adv-x="672" 
d="M443 723q0 -31 -14 -56l241 -667h-172l-42 136h-240l-42 -136h-172l240 667q-13 26 -13 56q0 39 27.5 66t79.5 27t79.5 -27t27.5 -66zM298 723q0 -36 38 -36t38 36t-38 36t-38 -36zM336 519l-75 -243h150z" />
    <glyph glyph-name="AE" unicode="&#xc6;" horiz-adv-x="904" 
d="M860 520h-364l33 -107h312v-146h-268l36 -121h251v-146h-362l-43 138h-238l-43 -138h-172l240 666h618v-146zM336 533l-74 -256h148z" />
    <glyph glyph-name="Ccedilla" unicode="&#xc7;" horiz-adv-x="593" 
d="M493 -102q0 -86 -193 -86l-3 54q32 2 45.5 7.5t13.5 17.5q0 18 -50 20l18 79q-135 13 -216 103t-81 240q0 162 94 253.5t246 91.5q125 0 199 -41l-24 -130q-59 26 -136 26q-210 0 -210 -200t210 -200q77 0 136 26l24 -130q-63 -36 -177 -40l-5 -28q109 0 109 -63z" />
    <glyph glyph-name="Egrave" unicode="&#xc8;" 
d="M402 725h-164l-132 132h226zM60 0v666h477v-146h-308v-107h289v-146h-289v-121h308v-146h-477z" />
    <glyph glyph-name="Eacute" unicode="&#xc9;" 
d="M60 0v666h477v-146h-308v-107h289v-146h-289v-121h308v-146h-477zM494 857l-132 -132h-164l70 132h226z" />
    <glyph glyph-name="Ecircumflex" unicode="&#xca;" 
d="M382 857l118 -132h-155l-40 44l-39 -44h-155l117 132h154zM60 0v666h477v-146h-308v-107h289v-146h-289v-121h308v-146h-477z" />
    <glyph glyph-name="Edieresis" unicode="&#xcb;" 
d="M60 0v666h477v-146h-308v-107h289v-146h-289v-121h308v-146h-477zM330 799q0 34 20 53.5t58 19.5t58 -19.5t20 -53.5t-20.5 -54t-57.5 -20t-57.5 20t-20.5 54zM118 799q0 34 20 53.5t58 19.5t58 -19.5t20 -53.5t-20.5 -54t-57.5 -20t-57.5 20t-20.5 54z" />
    <glyph glyph-name="Igrave" unicode="&#xcc;" horiz-adv-x="299" 
d="M65 0v666h169v-666h-169zM231 725h-164l-132 132h226z" />
    <glyph glyph-name="Iacute" unicode="&#xcd;" horiz-adv-x="299" 
d="M65 0v666h169v-666h-169zM366 857l-132 -132h-164l70 132h226z" />
    <glyph glyph-name="Icircumflex" unicode="&#xce;" horiz-adv-x="299" 
d="M65 0v666h169v-666h-169zM227 857l118 -132h-155l-40 44l-39 -44h-155l117 132h154z" />
    <glyph glyph-name="Idieresis" unicode="&#xcf;" horiz-adv-x="299" 
d="M65 0v666h169v-666h-169zM178 799q0 34 20 53.5t58 19.5t58 -19.5t20 -53.5t-20.5 -54t-57.5 -20t-57.5 20t-20.5 54zM-34 799q0 34 20 53.5t58 19.5t58 -19.5t20 -53.5t-20.5 -54t-57.5 -20t-57.5 20t-20.5 54z" />
    <glyph glyph-name="Eth" unicode="&#xd0;" horiz-adv-x="706" 
d="M22 263v140h58v263h258q157 0 250.5 -92t93.5 -241t-93.5 -241t-250.5 -92h-258v263h-58zM248 143h81q85 0 134.5 46t49.5 144t-49.5 144t-134.5 46h-81v-120h160v-140h-160v-120z" />
    <glyph glyph-name="Ntilde" unicode="&#xd1;" horiz-adv-x="726" 
d="M468 892l104 -37q-10 -32 -16.5 -48t-20 -38.5t-33 -32.5t-45.5 -10q-24 0 -82 22t-75 22t-25 -11t-16 -34l-107 38q20 69 48.5 99t85.5 30q29 0 80.5 -21.5t63.5 -21.5q25 0 38 43zM60 0v666h168l274 -385v385h164v-666h-168l-274 385v-385h-164z" />
    <glyph glyph-name="Ograve" unicode="&#xd2;" horiz-adv-x="704" 
d="M438 725h-164l-132 132h226zM27 333q0 154 86 249.5t239 95.5t239 -95.5t86 -249.5t-86 -249.5t-239 -95.5t-239 95.5t-86 249.5zM352 129q78 0 117 55.5t39 148.5t-39 148.5t-117 55.5t-117 -55.5t-39 -148.5t39 -148.5t117 -55.5z" />
    <glyph glyph-name="Oacute" unicode="&#xd3;" horiz-adv-x="704" 
d="M555 857l-132 -132h-164l70 132h226zM27 333q0 154 86 249.5t239 95.5t239 -95.5t86 -249.5t-86 -249.5t-239 -95.5t-239 95.5t-86 249.5zM352 129q78 0 117 55.5t39 148.5t-39 148.5t-117 55.5t-117 -55.5t-39 -148.5t39 -148.5t117 -55.5z" />
    <glyph glyph-name="Ocircumflex" unicode="&#xd4;" horiz-adv-x="704" 
d="M429 857l118 -132h-155l-40 44l-39 -44h-155l117 132h154zM27 333q0 154 86 249.5t239 95.5t239 -95.5t86 -249.5t-86 -249.5t-239 -95.5t-239 95.5t-86 249.5zM352 129q78 0 117 55.5t39 148.5t-39 148.5t-117 55.5t-117 -55.5t-39 -148.5t39 -148.5t117 -55.5z" />
    <glyph glyph-name="Otilde" unicode="&#xd5;" horiz-adv-x="704" 
d="M27 333q0 154 86 249.5t239 95.5t239 -95.5t86 -249.5t-86 -249.5t-239 -95.5t-239 95.5t-86 249.5zM352 129q78 0 117 55.5t39 148.5t-39 148.5t-117 55.5t-117 -55.5t-39 -148.5t39 -148.5t117 -55.5zM455 892l104 -37q-10 -32 -16.5 -48t-20 -38.5t-33 -32.5
t-45.5 -10q-24 0 -82 22t-75 22t-25 -11t-16 -34l-107 38q20 69 48.5 99t85.5 30q29 0 80.5 -21.5t63.5 -21.5q25 0 38 43z" />
    <glyph glyph-name="Odieresis" unicode="&#xd6;" horiz-adv-x="700" 
d="M25 333q0 154 86 249.5t239 95.5t239 -95.5t86 -249.5t-86 -249.5t-239 -95.5t-239 95.5t-86 249.5zM350 129q78 0 117 55.5t39 148.5t-39 148.5t-117 55.5t-117 -55.5t-39 -148.5t39 -148.5t117 -55.5zM378 799q0 34 20 53.5t58 19.5t58 -19.5t20 -53.5t-20.5 -54
t-57.5 -20t-57.5 20t-20.5 54zM166 799q0 34 20 53.5t58 19.5t58 -19.5t20 -53.5t-20.5 -54t-57.5 -20t-57.5 20t-20.5 54z" />
    <glyph glyph-name="multiply" unicode="&#xd7;" horiz-adv-x="560" 
d="M414 88l-134 135l-135 -135l-100 100l135 135l-135 134l101 101l134 -135l135 135l100 -100l-135 -135l135 -134z" />
    <glyph glyph-name="Oslash" unicode="&#xd8;" horiz-adv-x="704" 
d="M27 333q0 154 86 249.5t239 95.5q41 0 81 -8l32 80h106l-46 -115q74 -42 113 -121t39 -181q0 -154 -86 -249.5t-239 -95.5q-41 0 -81 8l-31 -80h-106l45 114q-74 42 -113 121t-39 182zM196 333q0 -100 42 -154l141 356q-18 2 -27 2q-78 0 -117 -55.5t-39 -148.5zM352 129
q78 0 117 55.5t39 148.5q0 98 -42 152l-141 -354q8 -2 27 -2z" />
    <glyph glyph-name="Ugrave" unicode="&#xd9;" horiz-adv-x="690" 
d="M440 725h-164l-132 132h226zM634 666v-405q0 -117 -77 -195t-212 -78t-212 78t-77 195v405h169v-414q0 -59 33 -90t87 -31t87 31t33 90v414h169z" />
    <glyph glyph-name="Uacute" unicode="&#xda;" horiz-adv-x="690" 
d="M634 666v-405q0 -117 -77 -195t-212 -78t-212 78t-77 195v405h169v-414q0 -59 33 -90t87 -31t87 31t33 90v414h169zM541 857l-132 -132h-164l70 132h226z" />
    <glyph glyph-name="Ucircumflex" unicode="&#xdb;" horiz-adv-x="690" 
d="M421 857l118 -132h-155l-40 44l-39 -44h-155l117 132h154zM634 666v-405q0 -117 -77 -195t-212 -78t-212 78t-77 195v405h169v-414q0 -59 33 -90t87 -31t87 31t33 90v414h169z" />
    <glyph glyph-name="Udieresis" unicode="&#xdc;" horiz-adv-x="690" 
d="M634 666v-405q0 -117 -77 -195t-212 -78t-212 78t-77 195v405h169v-414q0 -59 33 -90t87 -31t87 31t33 90v414h169zM373 799q0 34 20 53.5t58 19.5t58 -19.5t20 -53.5t-20.5 -54t-57.5 -20t-57.5 20t-20.5 54zM161 799q0 34 20 53.5t58 19.5t58 -19.5t20 -53.5t-20.5 -54
t-57.5 -20t-57.5 20t-20.5 54z" />
    <glyph glyph-name="Yacute" unicode="&#xdd;" horiz-adv-x="577" 
d="M584 666l-211 -411v-255h-169v255l-211 411h180l116 -262l115 262h180zM492 857l-132 -132h-164l70 132h226z" />
    <glyph glyph-name="Thorn" unicode="&#xde;" horiz-adv-x="620" 
d="M604 336q0 -97 -65 -161.5t-165 -64.5h-145v-110h-169v666h169v-106h145q103 0 166.5 -62.5t63.5 -161.5zM435 336q0 43 -24 66t-61 23h-121v-180h121q38 0 61.5 24t23.5 67z" />
    <glyph glyph-name="germandbls" unicode="&#xdf;" horiz-adv-x="592" 
d="M210 0h-161v427q0 125 70.5 187t196.5 62q86 0 143.5 -42.5t57.5 -112.5q0 -53 -44 -116q-5 -7 -19.5 -25.5t-21 -30t-6.5 -23.5q0 -4 1 -7.5t4.5 -6.5l6.5 -5.5t8.5 -6t10 -6t13 -6.5t13.5 -7q50 -27 74.5 -57.5t24.5 -79.5q0 -69 -48 -111.5t-130 -42.5q-81 0 -139 20
l20 109q37 -15 88 -15q50 0 50 28q0 11 -11 19t-37 19q-111 46 -111 142q0 57 50 120q3 4 11.5 14.5t12 15.5l9 13.5t7.5 16.5t2 16q0 19 -14.5 30.5t-38.5 11.5q-45 0 -69 -35t-24 -89v-426z" />
    <glyph glyph-name="agrave" unicode="&#xe0;" horiz-adv-x="550" 
d="M502 0h-156v59q-53 -69 -156 -69q-76 0 -114.5 41.5t-38.5 112.5q0 150 178 150h123v19q0 29 -20 40.5t-62 11.5q-80 0 -157 -37l-28 125q85 49 211 49q111 0 165.5 -42t54.5 -136v-324zM338 174v16h-95q-49 0 -49 -43q0 -46 58 -46q86 0 86 73zM209 550l-95 152h211
l46 -152h-162z" />
    <glyph glyph-name="aacute" unicode="&#xe1;" horiz-adv-x="550" 
d="M502 0h-156v59q-53 -69 -156 -69q-76 0 -114.5 41.5t-38.5 112.5q0 150 178 150h123v19q0 29 -20 40.5t-62 11.5q-80 0 -157 -37l-28 125q85 49 211 49q111 0 165.5 -42t54.5 -136v-324zM338 174v16h-95q-49 0 -49 -43q0 -46 58 -46q86 0 86 73zM197 550l46 152h211
l-95 -152h-162z" />
    <glyph glyph-name="acircumflex" unicode="&#xe2;" horiz-adv-x="550" 
d="M502 0h-156v59q-53 -69 -156 -69q-76 0 -114.5 41.5t-38.5 112.5q0 150 178 150h123v19q0 29 -20 40.5t-62 11.5q-80 0 -157 -37l-28 125q85 49 211 49q111 0 165.5 -42t54.5 -136v-324zM338 174v16h-95q-49 0 -49 -43q0 -46 58 -46q86 0 86 73zM368 702l107 -152h-149
l-38 59l-38 -59h-148l107 152h159z" />
    <glyph glyph-name="atilde" unicode="&#xe3;" horiz-adv-x="550" 
d="M502 0h-156v59q-53 -69 -156 -69q-76 0 -114.5 41.5t-38.5 112.5q0 150 178 150h123v19q0 29 -20 40.5t-62 11.5q-80 0 -157 -37l-28 125q85 49 211 49q111 0 165.5 -42t54.5 -136v-324zM338 174v16h-95q-49 0 -49 -43q0 -46 58 -46q86 0 86 73zM392 717l104 -38
q-17 -60 -42.5 -94.5t-76.5 -34.5q-25 0 -77 22t-68 22q-17 0 -25 -10t-17 -34l-102 37q21 70 48 99.5t80 29.5q27 0 76 -21.5t62 -21.5q23 0 38 44z" />
    <glyph glyph-name="adieresis" unicode="&#xe4;" horiz-adv-x="550" 
d="M502 0h-156v59q-53 -69 -156 -69q-76 0 -114.5 41.5t-38.5 112.5q0 150 178 150h123v19q0 29 -20 40.5t-62 11.5q-80 0 -157 -37l-28 125q85 49 211 49q111 0 165.5 -42t54.5 -136v-324zM338 174v16h-95q-49 0 -49 -43q0 -46 58 -46q86 0 86 73zM314 627q0 33 21 54.5
t57 21.5t57 -21.5t21 -54.5q0 -32 -21 -53.5t-57 -21.5t-57 21.5t-21 53.5zM111 627q0 33 21 54.5t57 21.5t57 -21.5t21 -54.5q0 -32 -21 -53.5t-57 -21.5t-57 21.5t-21 53.5z" />
    <glyph glyph-name="aring" unicode="&#xe5;" horiz-adv-x="550" 
d="M502 0h-156v59q-53 -69 -156 -69q-76 0 -114.5 41.5t-38.5 112.5q0 150 178 150h123v19q0 29 -20 40.5t-62 11.5q-80 0 -157 -37l-28 125q85 49 211 49q111 0 165.5 -42t54.5 -136v-324zM338 174v16h-95q-49 0 -49 -43q0 -46 58 -46q86 0 86 73zM393 643q0 -39 -27.5 -66
t-79.5 -27t-79.5 27t-27.5 66t27.5 65.5t79.5 26.5t79.5 -26.5t27.5 -65.5zM248 643q0 -36 38 -36t38 36q0 35 -38 35t-38 -35z" />
    <glyph glyph-name="ae" unicode="&#xe6;" horiz-adv-x="844" 
d="M264 502q118 0 172 -54q65 54 165 54q109 0 162.5 -63.5t53.5 -178.5v-66h-303q6 -45 32.5 -67.5t83.5 -22.5q81 0 157 35l28 -104q-87 -45 -206 -45q-127 0 -192 68q-75 -68 -191 -68q-88 0 -138.5 39.5t-50.5 114.5q0 150 178 150h133v14q0 34 -24 48t-73 14
q-76 0 -145 -31l-30 119q85 44 188 44zM348 182v12h-98q-59 0 -59 -47q0 -48 66 -48q42 0 66.5 21t24.5 62zM599 392q-42 0 -61.5 -23.5t-24.5 -74.5h151v18q0 80 -65 80z" />
    <glyph glyph-name="ccedilla" unicode="&#xe7;" horiz-adv-x="460" 
d="M390 -102q0 -86 -193 -86l-3 54q32 2 45.5 7.5t13.5 17.5q0 18 -50 20l19 83q-98 14 -148 80.5t-50 171.5q0 118 63 187t188 69q102 0 161 -36l-23 -119q-54 25 -109 25q-63 0 -89.5 -32.5t-26.5 -93.5t26.5 -93.5t89.5 -32.5q55 0 109 25l23 -119q-53 -33 -149 -36
l-6 -29q109 0 109 -63z" />
    <glyph glyph-name="egrave" unicode="&#xe8;" horiz-adv-x="513" 
d="M486 194h-295q7 -43 31.5 -64t76.5 -21q81 0 157 35l28 -109q-87 -45 -206 -45q-126 0 -190 66.5t-64 189.5q0 110 62 183t184 73q109 0 162.5 -63.5t53.5 -178.5v-66zM268 394q-69 0 -78 -95h143v13q0 82 -65 82zM190 550l-95 152h211l46 -152h-162z" />
    <glyph glyph-name="eacute" unicode="&#xe9;" horiz-adv-x="513" 
d="M182 550l46 152h211l-95 -152h-162zM486 194h-295q7 -43 31.5 -64t76.5 -21q81 0 157 35l28 -109q-87 -45 -206 -45q-126 0 -190 66.5t-64 189.5q0 110 62 183t184 73q109 0 162.5 -63.5t53.5 -178.5v-66zM268 394q-69 0 -78 -95h143v13q0 82 -65 82z" />
    <glyph glyph-name="ecircumflex" unicode="&#xea;" horiz-adv-x="513" 
d="M352 702l107 -152h-149l-38 59l-38 -59h-148l107 152h159zM486 194h-295q7 -43 31.5 -64t76.5 -21q81 0 157 35l28 -109q-87 -45 -206 -45q-126 0 -190 66.5t-64 189.5q0 110 62 183t184 73q109 0 162.5 -63.5t53.5 -178.5v-66zM268 394q-69 0 -78 -95h143v13
q0 82 -65 82z" />
    <glyph glyph-name="edieresis" unicode="&#xeb;" horiz-adv-x="513" 
d="M294 627q0 33 21 54.5t57 21.5t57 -21.5t21 -54.5q0 -32 -21 -53.5t-57 -21.5t-57 21.5t-21 53.5zM91 627q0 33 21 54.5t57 21.5t57 -21.5t21 -54.5q0 -32 -21 -53.5t-57 -21.5t-57 21.5t-21 53.5zM486 194h-295q7 -43 31.5 -64t76.5 -21q81 0 157 35l28 -109
q-87 -45 -206 -45q-126 0 -190 66.5t-64 189.5q0 110 62 183t184 73q109 0 162.5 -63.5t53.5 -178.5v-66zM268 394q-69 0 -78 -95h143v13q0 82 -65 82z" />
    <glyph glyph-name="igrave" unicode="&#xec;" horiz-adv-x="274" 
d="M219 0h-164v492h164v-492zM57 550l-95 152h211l46 -152h-162z" />
    <glyph glyph-name="iacute" unicode="&#xed;" horiz-adv-x="274" 
d="M59 550l46 152h211l-95 -152h-162zM219 0h-164v492h164v-492z" />
    <glyph glyph-name="icircumflex" unicode="&#xee;" horiz-adv-x="274" 
d="M217 702l107 -152h-149l-38 59l-38 -59h-148l107 152h159zM219 0h-164v492h164v-492z" />
    <glyph glyph-name="idieresis" unicode="&#xef;" horiz-adv-x="274" 
d="M161 627q0 33 21 54.5t57 21.5t57 -21.5t21 -54.5q0 -32 -21 -53.5t-57 -21.5t-57 21.5t-21 53.5zM-42 627q0 33 21 54.5t57 21.5t57 -21.5t21 -54.5q0 -32 -21 -53.5t-57 -21.5t-57 21.5t-21 53.5zM219 0h-164v492h164v-492z" />
    <glyph glyph-name="eth" unicode="&#xf0;" horiz-adv-x="541" 
d="M251 458l-65 49l19 25q-42 15 -84 23l33 121q71 -13 132 -38l45 59l64 -50l-37 -48q163 -110 163 -333q0 -47 -14.5 -93.5t-43.5 -88.5t-81.5 -68t-119.5 -26q-105 0 -171.5 64t-66.5 163q0 102 58 164t152 62q82 0 134 -40q-23 54 -88 93zM184 217q0 -48 22 -77.5
t65 -29.5q41 0 63 29.5t22 77.5q0 103 -86 103q-42 0 -64 -27t-22 -76z" />
    <glyph glyph-name="ntilde" unicode="&#xf1;" horiz-adv-x="565" 
d="M515 0h-164v299q0 62 -57 62q-75 0 -75 -98v-263h-164v492h159v-69q48 79 149 79q152 0 152 -169v-333zM398 717l104 -38q-17 -60 -42.5 -94.5t-76.5 -34.5q-25 0 -77 22t-68 22q-17 0 -25 -10t-17 -34l-102 37q21 70 48 99.5t80 29.5q27 0 76 -21.5t62 -21.5q23 0 38 44
z" />
    <glyph glyph-name="ograve" unicode="&#xf2;" horiz-adv-x="540" 
d="M516 246q0 -115 -64.5 -185.5t-181.5 -70.5t-181.5 70.5t-64.5 185.5t64.5 185.5t181.5 70.5t181.5 -70.5t64.5 -185.5zM352 246q0 132 -82 132t-82 -132t82 -132t82 132zM190 550l-95 152h211l46 -152h-162z" />
    <glyph glyph-name="oacute" unicode="&#xf3;" horiz-adv-x="540" 
d="M187 550l46 152h211l-95 -152h-162zM516 246q0 -115 -64.5 -185.5t-181.5 -70.5t-181.5 70.5t-64.5 185.5t64.5 185.5t181.5 70.5t181.5 -70.5t64.5 -185.5zM352 246q0 132 -82 132t-82 -132t82 -132t82 132z" />
    <glyph glyph-name="ocircumflex" unicode="&#xf4;" horiz-adv-x="540" 
d="M349 702l107 -152h-149l-38 59l-38 -59h-148l107 152h159zM516 246q0 -115 -64.5 -185.5t-181.5 -70.5t-181.5 70.5t-64.5 185.5t64.5 185.5t181.5 70.5t181.5 -70.5t64.5 -185.5zM352 246q0 132 -82 132t-82 -132t82 -132t82 132z" />
    <glyph glyph-name="otilde" unicode="&#xf5;" horiz-adv-x="540" 
d="M516 246q0 -115 -64.5 -185.5t-181.5 -70.5t-181.5 70.5t-64.5 185.5t64.5 185.5t181.5 70.5t181.5 -70.5t64.5 -185.5zM352 246q0 132 -82 132t-82 -132t82 -132t82 132zM374 717l104 -38q-17 -60 -42.5 -94.5t-76.5 -34.5q-25 0 -77 22t-68 22q-17 0 -25 -10t-17 -34
l-102 37q21 70 48 99.5t80 29.5q27 0 76 -21.5t62 -21.5q23 0 38 44z" />
    <glyph glyph-name="odieresis" unicode="&#xf6;" horiz-adv-x="540" 
d="M295 627q0 33 21 54.5t57 21.5t57 -21.5t21 -54.5q0 -32 -21 -53.5t-57 -21.5t-57 21.5t-21 53.5zM92 627q0 33 21 54.5t57 21.5t57 -21.5t21 -54.5q0 -32 -21 -53.5t-57 -21.5t-57 21.5t-21 53.5zM516 246q0 -115 -64.5 -185.5t-181.5 -70.5t-181.5 70.5t-64.5 185.5
t64.5 185.5t181.5 70.5t181.5 -70.5t64.5 -185.5zM352 246q0 132 -82 132t-82 -132t82 -132t82 132z" />
    <glyph glyph-name="divide" unicode="&#xf7;" horiz-adv-x="552" 
d="M364 528q0 -38 -25 -61t-63 -23t-63 23t-25 61t25 61.5t63 23.5t63 -23.5t25 -61.5zM507 255h-462v136h462v-136zM364 118q0 -38 -25 -61.5t-63 -23.5t-63 23.5t-25 61.5t25 61t63 23t63 -23t25 -61z" />
    <glyph glyph-name="oslash" unicode="&#xf8;" horiz-adv-x="540" 
d="M516 246q0 -115 -64.5 -185.5t-181.5 -70.5q-31 0 -66 7l-32 -81h-68l40 102q-59 30 -89.5 89.5t-30.5 138.5q0 115 64.5 185.5t181.5 70.5q37 0 65 -7l32 81h68l-41 -102q59 -30 90.5 -89.5t31.5 -138.5zM352 246q0 54 -14 87l-87 -217q12 -2 19 -2q82 0 82 132z
M188 246q0 -56 13 -86l86 216q-10 2 -17 2q-82 0 -82 -132z" />
    <glyph glyph-name="ugrave" unicode="&#xf9;" horiz-adv-x="560" 
d="M50 492h164v-309q0 -55 53 -55q37 0 55.5 25.5t18.5 69.5v269h164v-492h-159v69q-49 -79 -144 -79q-152 0 -152 169v333zM215 550l-95 152h211l46 -152h-162z" />
    <glyph glyph-name="uacute" unicode="&#xfa;" horiz-adv-x="560" 
d="M190 550l46 152h211l-95 -152h-162zM50 492h164v-309q0 -55 53 -55q37 0 55.5 25.5t18.5 69.5v269h164v-492h-159v69q-49 -79 -144 -79q-152 0 -152 169v333z" />
    <glyph glyph-name="ucircumflex" unicode="&#xfb;" horiz-adv-x="560" 
d="M359 702l107 -152h-149l-38 59l-38 -59h-148l107 152h159zM50 492h164v-309q0 -55 53 -55q37 0 55.5 25.5t18.5 69.5v269h164v-492h-159v69q-49 -79 -144 -79q-152 0 -152 169v333z" />
    <glyph glyph-name="udieresis" unicode="&#xfc;" horiz-adv-x="560" 
d="M303 627q0 33 21 54.5t57 21.5t57 -21.5t21 -54.5q0 -32 -21 -53.5t-57 -21.5t-57 21.5t-21 53.5zM100 627q0 33 21 54.5t57 21.5t57 -21.5t21 -54.5q0 -32 -21 -53.5t-57 -21.5t-57 21.5t-21 53.5zM50 492h164v-309q0 -55 53 -55q37 0 55.5 25.5t18.5 69.5v269h164v-492
h-159v69q-49 -79 -144 -79q-152 0 -152 169v333z" />
    <glyph glyph-name="yacute" unicode="&#xfd;" horiz-adv-x="469" 
d="M238 165l73 327h168l-207 -670h-167l52 170l-167 500h172zM159 550l46 152h211l-95 -152h-162z" />
    <glyph glyph-name="thorn" unicode="&#xfe;" horiz-adv-x="575" 
d="M356 -10q-85 0 -137 73v-241h-164v844h164v-233q51 69 139 69q95 0 143 -70t48 -186q0 -113 -48.5 -184.5t-144.5 -71.5zM305 120q80 0 80 126t-80 126q-46 0 -66 -31t-20 -95t20 -95t66 -31z" />
    <glyph glyph-name="ydieresis" unicode="&#xff;" horiz-adv-x="469" 
d="M238 165l73 327h168l-207 -670h-167l52 170l-167 500h172zM264 627q0 33 21 54.5t57 21.5t57 -21.5t21 -54.5q0 -32 -21 -53.5t-57 -21.5t-57 21.5t-21 53.5zM61 627q0 33 21 54.5t57 21.5t57 -21.5t21 -54.5q0 -32 -21 -53.5t-57 -21.5t-57 21.5t-21 53.5z" />
    <glyph glyph-name="Amacron" unicode="&#x100;" horiz-adv-x="672" 
d="M2 0l239 666h190l239 -666h-172l-42 136h-240l-42 -136h-172zM336 520l-75 -244h150zM519 728h-367v127h367v-127z" />
    <glyph glyph-name="amacron" unicode="&#x101;" horiz-adv-x="550" 
d="M502 0h-156v59q-53 -69 -156 -69q-76 0 -114.5 41.5t-38.5 112.5q0 150 178 150h123v19q0 29 -20 40.5t-62 11.5q-80 0 -157 -37l-28 125q85 49 211 49q111 0 165.5 -42t54.5 -136v-324zM338 174v16h-95q-49 0 -49 -43q0 -46 58 -46q86 0 86 73zM456 570h-330v124h330
v-124z" />
    <glyph glyph-name="Abreve" unicode="&#x102;" horiz-adv-x="672" 
d="M2 0l239 666h190l239 -666h-172l-42 136h-240l-42 -136h-172zM336 520l-75 -244h150zM393 862h127q0 -68 -49 -102.5t-135 -34.5t-135.5 34.5t-49.5 102.5h128q0 -45 57 -45t57 45z" />
    <glyph glyph-name="abreve" unicode="&#x103;" horiz-adv-x="550" 
d="M502 0h-156v59q-53 -69 -156 -69q-76 0 -114.5 41.5t-38.5 112.5q0 150 178 150h123v19q0 29 -20 40.5t-62 11.5q-80 0 -157 -37l-28 125q85 49 211 49q111 0 165.5 -42t54.5 -136v-324zM338 174v16h-95q-49 0 -49 -43q0 -46 58 -46q86 0 86 73zM467 704
q0 -74 -49.5 -114.5t-129.5 -40.5t-129 40.5t-49 114.5h117q0 -61 61 -61q62 0 62 61h117z" />
    <glyph glyph-name="Aogonek" unicode="&#x104;" horiz-adv-x="672" 
d="M2 0l239 666h190l239 -666q-77 -33 -77 -71q0 -27 34 -27q17 0 29 4l12 -77q-41 -17 -97 -17q-54 0 -81.5 27.5t-27.5 73.5q0 44 36 87l-42 136h-240l-42 -136h-172zM336 520l-75 -244h150z" />
    <glyph glyph-name="aogonek" unicode="&#x105;" horiz-adv-x="550" 
d="M490 -94l12 -77q-40 -17 -97 -17q-55 0 -82.5 25t-27.5 66q0 62 51 97v59q-53 -69 -156 -69q-76 0 -114.5 41.5t-38.5 112.5q0 150 178 150h123v19q0 29 -20 40.5t-62 11.5q-80 0 -157 -37l-28 125q85 49 211 49q111 0 165.5 -42t54.5 -136v-324q-28 -12 -51.5 -31
t-23.5 -40q0 -27 34 -27q17 0 29 4zM338 174v16h-95q-49 0 -49 -43q0 -46 58 -46q86 0 86 73z" />
    <glyph glyph-name="Cacute" unicode="&#x106;" horiz-adv-x="593" 
d="M196 333q0 -200 210 -200q77 0 136 26l24 -130q-74 -41 -199 -41q-152 0 -246 91.5t-94 253.5t94 253.5t246 91.5q125 0 199 -41l-24 -130q-59 26 -136 26q-210 0 -210 -200zM562 857l-132 -132h-164l70 132h226z" />
    <glyph glyph-name="cacute" unicode="&#x107;" horiz-adv-x="460" 
d="M183 550l46 152h211l-95 -152h-162zM436 466l-23 -119q-54 25 -109 25q-63 0 -89.5 -32.5t-26.5 -93.5t26.5 -93.5t89.5 -32.5q55 0 109 25l23 -119q-59 -36 -161 -36q-125 0 -188 69t-63 187t63 187t188 69q102 0 161 -36z" />
    <glyph glyph-name="Ccircumflex" unicode="&#x108;" horiz-adv-x="593" 
d="M196 333q0 -200 210 -200q77 0 136 26l24 -130q-74 -41 -199 -41q-152 0 -246 91.5t-94 253.5t94 253.5t246 91.5q125 0 199 -41l-24 -130q-59 26 -136 26q-210 0 -210 -200zM438 857l118 -132h-155l-40 44l-39 -44h-155l117 132h154z" />
    <glyph glyph-name="ccircumflex" unicode="&#x109;" horiz-adv-x="460" 
d="M349 702l107 -152h-149l-38 59l-38 -59h-148l107 152h159zM436 466l-23 -119q-54 25 -109 25q-63 0 -89.5 -32.5t-26.5 -93.5t26.5 -93.5t89.5 -32.5q55 0 109 25l23 -119q-59 -36 -161 -36q-125 0 -188 69t-63 187t63 187t188 69q102 0 161 -36z" />
    <glyph glyph-name="Cdotaccent" unicode="&#x10a;" horiz-adv-x="593" 
d="M265 819q0 41 26 68t68 27t68.5 -27.5t26.5 -67.5q0 -39 -26.5 -66.5t-68.5 -27.5t-68 27.5t-26 66.5zM196 333q0 -200 210 -200q77 0 136 26l24 -130q-74 -41 -199 -41q-152 0 -246 91.5t-94 253.5t94 253.5t246 91.5q125 0 199 -41l-24 -130q-59 26 -136 26
q-210 0 -210 -200z" />
    <glyph glyph-name="cdotaccent" unicode="&#x10b;" horiz-adv-x="460" 
d="M436 466l-23 -119q-54 25 -109 25q-63 0 -89.5 -32.5t-26.5 -93.5t26.5 -93.5t89.5 -32.5q55 0 109 25l23 -119q-59 -36 -161 -36q-125 0 -188 69t-63 187t63 187t188 69q102 0 161 -36zM174 639q0 41 26 68t68 27t68.5 -27.5t26.5 -67.5q0 -39 -26.5 -66.5t-68.5 -27.5
t-68 27.5t-26 66.5z" />
    <glyph glyph-name="Ccaron" unicode="&#x10c;" horiz-adv-x="593" 
d="M196 333q0 -200 210 -200q77 0 136 26l24 -130q-74 -41 -199 -41q-152 0 -246 91.5t-94 253.5t94 253.5t246 91.5q125 0 199 -41l-24 -130q-59 26 -136 26q-210 0 -210 -200zM560 857l-118 -132h-154l-117 132h155l39 -45l40 45h155z" />
    <glyph glyph-name="ccaron" unicode="&#x10d;" horiz-adv-x="460" 
d="M456 702l-107 -152h-159l-107 152h148l38 -59l38 59h149zM436 466l-23 -119q-54 25 -109 25q-63 0 -89.5 -32.5t-26.5 -93.5t26.5 -93.5t89.5 -32.5q55 0 109 25l23 -119q-59 -36 -161 -36q-125 0 -188 69t-63 187t63 187t188 69q102 0 161 -36z" />
    <glyph glyph-name="Dcaron" unicode="&#x10e;" horiz-adv-x="690" 
d="M64 0v666h258q157 0 250.5 -92t93.5 -241t-93.5 -241t-250.5 -92h-258zM232 143h81q85 0 134.5 46t49.5 144t-49.5 144t-134.5 46h-81v-380zM509 857l-118 -132h-154l-117 132h155l39 -45l40 45h155z" />
    <glyph glyph-name="dcaron" unicode="&#x10f;" horiz-adv-x="782" 
d="M796 666l-94 -235h-127l29 235h192zM22 246q0 116 48.5 186t144.5 70q92 0 137 -73v237h164v-666h-159v63q-48 -73 -144 -73q-95 0 -143 70t-48 186zM186 246q0 -126 80 -126q46 0 66 31t20 95t-20 95t-66 31q-80 0 -80 -126z" />
    <glyph glyph-name="Dcroat" unicode="&#x110;" horiz-adv-x="706" 
d="M22 263v140h58v263h258q157 0 250.5 -92t93.5 -241t-93.5 -241t-250.5 -92h-258v263h-58zM248 143h81q85 0 134.5 46t49.5 144t-49.5 144t-134.5 46h-81v-120h160v-140h-160v-120z" />
    <glyph glyph-name="dcroat" unicode="&#x111;" horiz-adv-x="579" 
d="M22 246q0 116 48.5 186t144.5 70q92 0 137 -73v89h-76v100h76v48h164v-48h56v-100h-56v-518h-159v63q-48 -73 -144 -73q-95 0 -143 70t-48 186zM186 246q0 -126 80 -126q46 0 66 31t20 95t-20 95t-66 31q-80 0 -80 -126z" />
    <glyph glyph-name="Emacron" unicode="&#x112;" 
d="M60 0v666h477v-146h-308v-107h289v-146h-289v-121h308v-146h-477zM483 728h-367v127h367v-127z" />
    <glyph glyph-name="emacron" unicode="&#x113;" horiz-adv-x="513" 
d="M486 194h-295q7 -43 31.5 -64t76.5 -21q81 0 157 35l28 -109q-87 -45 -206 -45q-126 0 -190 66.5t-64 189.5q0 110 62 183t184 73q109 0 162.5 -63.5t53.5 -178.5v-66zM268 394q-69 0 -78 -95h143v13q0 82 -65 82zM432 570h-330v124h330v-124z" />
    <glyph glyph-name="Ebreve" unicode="&#x114;" 
d="M60 0v666h477v-146h-308v-107h289v-146h-289v-121h308v-146h-477zM368 862h127q0 -68 -49 -102.5t-135 -34.5t-135.5 34.5t-49.5 102.5h128q0 -45 57 -45t57 45z" />
    <glyph glyph-name="ebreve" unicode="&#x115;" horiz-adv-x="513" 
d="M486 194h-295q7 -43 31.5 -64t76.5 -21q81 0 157 35l28 -109q-87 -45 -206 -45q-126 0 -190 66.5t-64 189.5q0 110 62 183t184 73q109 0 162.5 -63.5t53.5 -178.5v-66zM268 394q-69 0 -78 -95h143v13q0 82 -65 82zM455 704q0 -74 -49.5 -114.5t-129.5 -40.5t-129 40.5
t-49 114.5h117q0 -61 61 -61q62 0 62 61h117z" />
    <glyph glyph-name="Edotaccent" unicode="&#x116;" 
d="M209 819q0 41 26 68t68 27t68.5 -27.5t26.5 -67.5q0 -39 -26.5 -66.5t-68.5 -27.5t-68 27.5t-26 66.5zM60 0v666h477v-146h-308v-107h289v-146h-289v-121h308v-146h-477z" />
    <glyph glyph-name="edotaccent" unicode="&#x117;" horiz-adv-x="513" 
d="M486 194h-295q7 -43 31.5 -64t76.5 -21q81 0 157 35l28 -109q-87 -45 -206 -45q-126 0 -190 66.5t-64 189.5q0 110 62 183t184 73q109 0 162.5 -63.5t53.5 -178.5v-66zM268 394q-69 0 -78 -95h143v13q0 82 -65 82zM182 639q0 41 26 68t68 27t68.5 -27.5t26.5 -67.5
q0 -39 -26.5 -66.5t-68.5 -27.5t-68 27.5t-26 66.5z" />
    <glyph glyph-name="Eogonek" unicode="&#x118;" 
d="M60 0v666h477v-146h-308v-107h289v-146h-289v-121h308v-146q-75 -34 -75 -71q0 -27 34 -27q17 0 29 4l12 -77q-40 -17 -97 -17q-55 0 -82.5 25t-27.5 66q0 62 51 97h-321z" />
    <glyph glyph-name="eogonek" unicode="&#x119;" horiz-adv-x="513" 
d="M443 -94l13 -77q-42 -17 -97 -17t-82.5 22t-27.5 58q0 38 21 60.5t59 41.5q-24 -4 -51 -4q-126 0 -190 66.5t-64 189.5q0 110 62 183t184 73q109 0 162.5 -63.5t53.5 -178.5v-66h-295q7 -43 31.5 -64t76.5 -21q81 0 157 35l28 -109q-41 -20 -72 -50t-31 -55q0 -28 34 -28
q14 0 28 4zM268 394q-69 0 -78 -95h143v13q0 82 -65 82z" />
    <glyph glyph-name="Ecaron" unicode="&#x11a;" 
d="M60 0v666h477v-146h-308v-107h289v-146h-289v-121h308v-146h-477zM507 857l-118 -132h-154l-117 132h155l39 -45l40 45h155z" />
    <glyph glyph-name="ecaron" unicode="&#x11b;" horiz-adv-x="513" 
d="M457 702l-107 -152h-159l-107 152h148l38 -59l38 59h149zM486 194h-295q7 -43 31.5 -64t76.5 -21q81 0 157 35l28 -109q-87 -45 -206 -45q-126 0 -190 66.5t-64 189.5q0 110 62 183t184 73q109 0 162.5 -63.5t53.5 -178.5v-66zM268 394q-69 0 -78 -95h143v13q0 82 -65 82
z" />
    <glyph glyph-name="Gcircumflex" unicode="&#x11c;" horiz-adv-x="676" 
d="M459 857l118 -132h-155l-40 44l-39 -44h-155l117 132h154zM27 327q0 163 97 257t274 94q139 0 229 -44l-24 -135q-99 36 -189 36q-218 0 -218 -209q0 -202 203 -202q36 0 66 5v191h159v-297q-92 -35 -234 -35q-91 0 -161.5 26.5t-114 73.5t-65.5 107.5t-22 131.5z" />
    <glyph glyph-name="gcircumflex" unicode="&#x11d;" horiz-adv-x="569" 
d="M373 702l107 -152h-149l-38 59l-38 -59h-148l107 152h159zM514 492v-464q0 -216 -259 -216q-91 0 -188 33l23 115q77 -28 155 -28q58 0 82 21.5t24 63.5v69q-20 -31 -56.5 -52t-84.5 -21q-96 0 -142 67t-46 178q0 110 46.5 177t141.5 67q98 0 145 -73v63h159zM351 258
q0 115 -84 115q-81 0 -81 -115q0 -60 19.5 -87.5t61.5 -27.5q84 0 84 115z" />
    <glyph glyph-name="Gbreve" unicode="&#x11e;" horiz-adv-x="676" 
d="M27 327q0 163 97 257t274 94q139 0 229 -44l-24 -135q-99 36 -189 36q-218 0 -218 -209q0 -202 203 -202q36 0 66 5v191h159v-297q-92 -35 -234 -35q-91 0 -161.5 26.5t-114 73.5t-65.5 107.5t-22 131.5zM441 862h127q0 -68 -49 -102.5t-135 -34.5t-135.5 34.5
t-49.5 102.5h128q0 -45 57 -45t57 45z" />
    <glyph glyph-name="gbreve" unicode="&#x11f;" horiz-adv-x="569" 
d="M514 492v-464q0 -216 -259 -216q-91 0 -188 33l23 115q77 -28 155 -28q58 0 82 21.5t24 63.5v69q-20 -31 -56.5 -52t-84.5 -21q-96 0 -142 67t-46 178q0 110 46.5 177t141.5 67q98 0 145 -73v63h159zM351 258q0 115 -84 115q-81 0 -81 -115q0 -60 19.5 -87.5t61.5 -27.5
q84 0 84 115zM467 704q0 -74 -49.5 -114.5t-129.5 -40.5t-129 40.5t-49 114.5h117q0 -61 61 -61q62 0 62 61h117z" />
    <glyph glyph-name="Gdotaccent" unicode="&#x120;" horiz-adv-x="676" 
d="M283 819q0 41 26 68t68 27t68.5 -27.5t26.5 -67.5q0 -39 -26.5 -66.5t-68.5 -27.5t-68 27.5t-26 66.5zM27 327q0 163 97 257t274 94q139 0 229 -44l-24 -135q-99 36 -189 36q-218 0 -218 -209q0 -202 203 -202q36 0 66 5v191h159v-297q-92 -35 -234 -35
q-91 0 -161.5 26.5t-114 73.5t-65.5 107.5t-22 131.5z" />
    <glyph glyph-name="gdotaccent" unicode="&#x121;" horiz-adv-x="569" 
d="M514 492v-464q0 -216 -259 -216q-91 0 -188 33l23 115q77 -28 155 -28q58 0 82 21.5t24 63.5v69q-20 -31 -56.5 -52t-84.5 -21q-96 0 -142 67t-46 178q0 110 46.5 177t141.5 67q98 0 145 -73v63h159zM351 258q0 115 -84 115q-81 0 -81 -115q0 -60 19.5 -87.5t61.5 -27.5
q84 0 84 115zM196 639q0 41 26 68t68 27t68.5 -27.5t26.5 -67.5q0 -39 -26.5 -66.5t-68.5 -27.5t-68 27.5t-26 66.5z" />
    <glyph glyph-name="Gcommaaccent" unicode="&#x122;" horiz-adv-x="676" 
d="M497 -68l-79 -182h-139l29 182h189zM27 327q0 163 97 257t274 94q139 0 229 -44l-24 -135q-99 36 -189 36q-218 0 -218 -209q0 -202 203 -202q36 0 66 5v191h159v-297q-92 -35 -234 -35q-91 0 -161.5 26.5t-114 73.5t-65.5 107.5t-22 131.5z" />
    <glyph glyph-name="gcommaaccent" unicode="&#x123;" horiz-adv-x="569" 
d="M190 550l65 152h154l-25 -152h-194zM514 492v-464q0 -216 -259 -216q-91 0 -188 33l23 115q77 -28 155 -28q58 0 82 21.5t24 63.5v69q-20 -31 -56.5 -52t-84.5 -21q-96 0 -142 67t-46 178q0 110 46.5 177t141.5 67q98 0 145 -73v63h159zM351 258q0 115 -84 115
q-81 0 -81 -115q0 -60 19.5 -87.5t61.5 -27.5q84 0 84 115z" />
    <glyph glyph-name="Hcircumflex" unicode="&#x124;" horiz-adv-x="695" 
d="M60 0v666h169v-256h237v256h169v-666h-169v259h-237v-259h-169zM424 857l118 -132h-155l-40 44l-39 -44h-155l117 132h154z" />
    <glyph glyph-name="hcircumflex" unicode="&#x125;" horiz-adv-x="565" 
d="M515 0h-164v299q0 62 -57 62q-75 0 -75 -98v-263h-164v666h164v-240q48 76 144 76q152 0 152 -169v-333zM217 857l118 -132h-155l-40 44l-39 -44h-155l117 132h154z" />
    <glyph glyph-name="Hbar" unicode="&#x126;" horiz-adv-x="755" 
d="M665 0h-169v259h-237v-259h-169v484h-68v104h68v78h169v-78h237v78h169v-78h68v-104h-68v-484zM259 410h237v74h-237v-74z" />
    <glyph glyph-name="hbar" unicode="&#x127;" horiz-adv-x="573" 
d="M523 0h-164v299q0 62 -57 62q-75 0 -75 -98v-263h-164v518h-56v100h56v48h164v-48h67v-100h-67v-92q48 76 144 76q152 0 152 -169v-333z" />
    <glyph glyph-name="Itilde" unicode="&#x128;" horiz-adv-x="299" 
d="M65 0v666h169v-666h-169zM255 892l104 -37q-10 -32 -16.5 -48t-20 -38.5t-33 -32.5t-45.5 -10q-24 0 -82 22t-75 22t-25 -11t-16 -34l-107 38q20 69 48.5 99t85.5 30q29 0 80.5 -21.5t63.5 -21.5q25 0 38 43z" />
    <glyph glyph-name="itilde" unicode="&#x129;" horiz-adv-x="274" 
d="M219 0h-164v492h164v-492zM238 717l104 -38q-17 -60 -42.5 -94.5t-76.5 -34.5q-26 0 -77.5 22t-67.5 22q-17 0 -25 -10t-17 -34l-102 37q21 70 48 99.5t80 29.5q27 0 76 -21.5t62 -21.5q23 0 38 44z" />
    <glyph glyph-name="uni012A" unicode="&#x12a;" horiz-adv-x="299" 
d="M65 0v666h169v-666h-169zM333 728h-367v127h367v-127z" />
    <glyph glyph-name="imacron" unicode="&#x12b;" horiz-adv-x="274" 
d="M219 0h-164v492h164v-492zM302 570h-330v124h330v-124z" />
    <glyph glyph-name="Ibreve" unicode="&#x12c;" horiz-adv-x="299" 
d="M65 0v666h169v-666h-169zM207 862h127q0 -68 -49 -102.5t-135 -34.5t-135.5 34.5t-49.5 102.5h128q0 -45 57 -45t57 45z" />
    <glyph glyph-name="uni012D" unicode="&#x12d;" horiz-adv-x="274" 
d="M219 0h-164v492h164v-492zM316 704q0 -74 -49.5 -114.5t-129.5 -40.5t-129 40.5t-49 114.5h117q0 -61 61 -61q62 0 62 61h117z" />
    <glyph glyph-name="Iogonek" unicode="&#x12e;" horiz-adv-x="299" 
d="M221 -93l13 -77q-44 -18 -89 -18q-53 0 -81 28.5t-28 77.5q0 46 29 82v666h169v-666q-1 -1 -11.5 -7.5t-15 -10l-14 -11t-13.5 -13.5t-8 -14.5t-4 -16.5q0 -25 27 -25q14 0 26 5z" />
    <glyph glyph-name="iogonek" unicode="&#x12f;" horiz-adv-x="274" 
d="M207 -93l12 -77q-33 -18 -88 -18q-56 0 -83 27t-27 74q0 41 34 87v492h164v-492q-66 -37 -66 -73q0 -25 26 -25q15 0 28 5zM43 629q0 41 26 68t68 27t68 -27t26 -68q0 -39 -26 -66.5t-68 -27.5t-68 27.5t-26 66.5z" />
    <glyph glyph-name="Idotaccent" unicode="&#x130;" horiz-adv-x="299" 
d="M65 0v666h169v-666h-169zM55 819q0 41 26 68t68 27t68.5 -27.5t26.5 -67.5q0 -39 -26.5 -66.5t-68.5 -27.5t-68 27.5t-26 66.5z" />
    <glyph glyph-name="dotlessi" unicode="&#x131;" horiz-adv-x="274" 
d="M219 0h-164v492h164v-492z" />
    <glyph glyph-name="IJ" unicode="&#x132;" horiz-adv-x="702" 
d="M65 0v666h169v-666h-169zM316 13l15 129q40 -12 84 -12q58 0 58 52v484h169v-487q0 -86 -48.5 -137.5t-140.5 -51.5q-77 0 -137 23z" />
    <glyph glyph-name="ij" unicode="&#x133;" horiz-adv-x="548" 
d="M43 629q0 41 26 68t68 27t68 -27t26 -68q0 -39 -26 -66.5t-68 -27.5t-68 27.5t-26 66.5zM219 0h-164v492h164v-492zM317 629q0 41 26 68t68 27t68 -27t26 -68q0 -39 -26 -66.5t-68 -27.5t-68 27.5t-26 66.5zM298 -59q31 0 31 28v523h164v-537q0 -143 -147 -143
q-43 0 -91 14l12 119q13 -4 31 -4z" />
    <glyph glyph-name="Jcircumflex" unicode="&#x134;" horiz-adv-x="404" 
d="M18 13l15 129q40 -12 84 -12q58 0 58 52v484h169v-487q0 -86 -48.5 -137.5t-140.5 -51.5q-77 0 -137 23zM333 857l118 -132h-155l-40 44l-39 -44h-155l117 132h154z" />
    <glyph glyph-name="jcircumflex" unicode="&#x135;" horiz-adv-x="274" 
d="M24 -59q31 0 31 28v523h164v-537q0 -143 -147 -143q-43 0 -91 14l12 119q13 -4 31 -4zM215 702l107 -152h-149l-38 59l-38 -59h-148l107 152h159z" />
    <glyph glyph-name="Kcommaaccent" unicode="&#x136;" horiz-adv-x="661" 
d="M60 0v666h169v-293l204 293h216l-247 -325l251 -341h-215l-209 306v-306h-169zM432 -68l-79 -182h-139l29 182h189z" />
    <glyph glyph-name="kcommaaccent" unicode="&#x137;" horiz-adv-x="527" 
d="M349 0l-130 215v-215h-164v666h164v-385l125 211h184l-150 -244l157 -248h-186zM380 -68l-79 -182h-139l29 182h189z" />
    <glyph glyph-name="kgreenlandic" unicode="&#x138;" horiz-adv-x="528" 
d="M347 0l-128 217v-217h-164v492h164v-213l123 213h186l-151 -244l158 -248h-188z" />
    <glyph glyph-name="Lacute" unicode="&#x139;" horiz-adv-x="536" 
d="M364 857l-132 -132h-164l70 132h226zM60 0v666h169v-520h285v-146h-454z" />
    <glyph glyph-name="lacute" unicode="&#x13a;" horiz-adv-x="293" 
d="M353 857l-132 -132h-164l70 132h226zM282 3q-42 -14 -90 -14q-74 0 -106.5 37.5t-32.5 110.5v529h164v-520q0 -28 31 -28q18 0 30 4z" />
    <glyph glyph-name="Lcommaaccent" unicode="&#x13b;" horiz-adv-x="536" 
d="M391 -68l-79 -182h-139l29 182h189zM60 0v666h169v-520h285v-146h-454z" />
    <glyph glyph-name="lcommaaccent" unicode="&#x13c;" horiz-adv-x="293" 
d="M274 -68l-79 -182h-139l29 182h189zM282 3q-42 -14 -90 -14q-74 0 -106.5 37.5t-32.5 110.5v529h164v-520q0 -28 31 -28q18 0 30 4z" />
    <glyph glyph-name="Lcaron" unicode="&#x13d;" horiz-adv-x="537" 
d="M519 666l-94 -235h-127l29 235h192zM60 0v666h169v-520h285v-146h-454z" />
    <glyph glyph-name="lcaron" unicode="&#x13e;" horiz-adv-x="444" 
d="M490 666l-94 -235h-127l29 235h192zM282 3q-42 -14 -90 -14q-74 0 -106.5 37.5t-32.5 110.5v529h164v-520q0 -28 31 -28q18 0 30 4z" />
    <glyph glyph-name="Ldot" unicode="&#x13f;" horiz-adv-x="536" 
d="M60 0v666h169v-520h285v-146h-454zM288 314q0 41 25.5 66t66.5 25t67 -25t26 -66t-26 -66t-67 -25t-66.5 25t-25.5 66z" />
    <glyph glyph-name="ldot" unicode="&#x140;" horiz-adv-x="459" 
d="M282 3q-42 -14 -90 -14q-74 0 -106.5 37.5t-32.5 110.5v529h164v-520q0 -28 31 -28q18 0 30 4zM264 280q0 41 25.5 66t66.5 25t67 -25t26 -66t-26 -66t-67 -25t-66.5 25t-25.5 66z" />
    <glyph glyph-name="Lslash" unicode="&#x141;" horiz-adv-x="548" 
d="M19 196v151l53 22v297h169v-226l122 52v-151l-122 -52v-143h285v-146h-454v218z" />
    <glyph glyph-name="lslash" unicode="&#x142;" horiz-adv-x="308" 
d="M15 223v154l42 17v272h164v-203l67 29v-154l-67 -29v-163q0 -28 31 -28q18 0 30 4l4 -119q-42 -14 -90 -14q-74 0 -106.5 37.5t-32.5 110.5v103z" />
    <glyph glyph-name="Nacute" unicode="&#x143;" horiz-adv-x="726" 
d="M563 857l-132 -132h-164l70 132h226zM60 0v666h168l274 -385v385h164v-666h-168l-274 385v-385h-164z" />
    <glyph glyph-name="nacute" unicode="&#x144;" horiz-adv-x="565" 
d="M198 550l46 152h211l-95 -152h-162zM515 0h-164v299q0 62 -57 62q-75 0 -75 -98v-263h-164v492h159v-69q48 79 149 79q152 0 152 -169v-333z" />
    <glyph glyph-name="Ncommaaccent" unicode="&#x145;" horiz-adv-x="726" 
d="M471 -68l-79 -182h-139l29 182h189zM60 0v666h168l274 -385v385h164v-666h-168l-274 385v-385h-164z" />
    <glyph glyph-name="ncommaaccent" unicode="&#x146;" horiz-adv-x="565" 
d="M381 -68l-79 -182h-139l29 182h189zM515 0h-164v299q0 62 -57 62q-75 0 -75 -98v-263h-164v492h159v-69q48 79 149 79q152 0 152 -169v-333z" />
    <glyph glyph-name="Ncaron" unicode="&#x147;" horiz-adv-x="726" 
d="M60 0v666h168l274 -385v385h164v-666h-168l-274 385v-385h-164zM554 857l-118 -132h-154l-117 132h155l39 -45l40 45h155z" />
    <glyph glyph-name="ncaron" unicode="&#x148;" horiz-adv-x="565" 
d="M471 702l-107 -152h-159l-107 152h148l38 -59l38 59h149zM515 0h-164v299q0 62 -57 62q-75 0 -75 -98v-263h-164v492h159v-69q48 79 149 79q152 0 152 -169v-333z" />
    <glyph glyph-name="napostrophe" unicode="&#x149;" horiz-adv-x="724" 
d="M229 666l-94 -235h-127l29 235h192zM673 0h-164v299q0 62 -57 62q-75 0 -75 -98v-263h-164v492h159v-69q48 79 149 79q152 0 152 -169v-333z" />
    <glyph glyph-name="Eng" unicode="&#x14a;" horiz-adv-x="726" 
d="M666 666v-557q0 -117 -59.5 -190t-196.5 -107l-41 116q86 29 130 95l-275 362v-385h-164v666h168l274 -385v385h164z" />
    <glyph glyph-name="eng" unicode="&#x14b;" horiz-adv-x="565" 
d="M515 333v-272q0 -167 -170 -249l-72 113q78 46 78 129v245q0 62 -57 62q-75 0 -75 -98v-263h-164v492h159v-69q48 79 149 79q152 0 152 -169z" />
    <glyph glyph-name="Omacron" unicode="&#x14c;" horiz-adv-x="704" 
d="M27 333q0 154 86 249.5t239 95.5t239 -95.5t86 -249.5t-86 -249.5t-239 -95.5t-239 95.5t-86 249.5zM352 129q78 0 117 55.5t39 148.5t-39 148.5t-117 55.5t-117 -55.5t-39 -148.5t39 -148.5t117 -55.5zM535 728h-367v127h367v-127z" />
    <glyph glyph-name="omacron" unicode="&#x14d;" horiz-adv-x="540" 
d="M435 570h-330v124h330v-124zM516 246q0 -115 -64.5 -185.5t-181.5 -70.5t-181.5 70.5t-64.5 185.5t64.5 185.5t181.5 70.5t181.5 -70.5t64.5 -185.5zM352 246q0 132 -82 132t-82 -132t82 -132t82 132z" />
    <glyph glyph-name="Obreve" unicode="&#x14e;" horiz-adv-x="704" 
d="M27 333q0 154 86 249.5t239 95.5t239 -95.5t86 -249.5t-86 -249.5t-239 -95.5t-239 95.5t-86 249.5zM352 129q78 0 117 55.5t39 148.5t-39 148.5t-117 55.5t-117 -55.5t-39 -148.5t39 -148.5t117 -55.5zM409 862h127q0 -68 -49 -102.5t-135 -34.5t-135.5 34.5
t-49.5 102.5h128q0 -45 57 -45t57 45z" />
    <glyph glyph-name="obreve" unicode="&#x14f;" horiz-adv-x="540" 
d="M516 246q0 -115 -64.5 -185.5t-181.5 -70.5t-181.5 70.5t-64.5 185.5t64.5 185.5t181.5 70.5t181.5 -70.5t64.5 -185.5zM352 246q0 132 -82 132t-82 -132t82 -132t82 132zM448 704q0 -74 -49.5 -114.5t-129.5 -40.5t-129 40.5t-49 114.5h117q0 -61 61 -61q62 0 62 61h117
z" />
    <glyph glyph-name="Ohungarumlaut" unicode="&#x150;" horiz-adv-x="704" 
d="M616 857l-80 -132h-155l46 132h189zM391 857l-61 -132h-147l31 132h177zM27 333q0 154 86 249.5t239 95.5t239 -95.5t86 -249.5t-86 -249.5t-239 -95.5t-239 95.5t-86 249.5zM352 129q78 0 117 55.5t39 148.5t-39 148.5t-117 55.5t-117 -55.5t-39 -148.5t39 -148.5
t117 -55.5z" />
    <glyph glyph-name="ohungarumlaut" unicode="&#x151;" horiz-adv-x="540" 
d="M542 702l-90 -152h-155l55 152h190zM313 702l-69 -152h-148l40 152h177zM516 246q0 -115 -64.5 -185.5t-181.5 -70.5t-181.5 70.5t-64.5 185.5t64.5 185.5t181.5 70.5t181.5 -70.5t64.5 -185.5zM352 246q0 132 -82 132t-82 -132t82 -132t82 132z" />
    <glyph glyph-name="OE" unicode="&#x152;" horiz-adv-x="1029" 
d="M392 678q62 0 114 -12h479v-146h-311v-107h292v-146h-292v-121h311v-146h-479q-52 -12 -114 -12q-181 0 -273 91.5t-92 253.5t92 253.5t273 91.5zM506 142v381q-45 12 -111 12q-104 0 -151.5 -55t-47.5 -147q0 -202 205 -202q62 0 105 11z" />
    <glyph glyph-name="oe" unicode="&#x153;" horiz-adv-x="831" 
d="M265 502q99 0 163 -56q61 56 160 56q109 0 162.5 -63.5t53.5 -178.5v-66h-296q6 -46 29.5 -68t79.5 -22q80 0 157 35l28 -104q-94 -45 -206 -45q-108 0 -170 54q-64 -54 -161 -54q-115 0 -178 70.5t-63 185.5t63 185.5t178 70.5zM352 246q0 132 -82 132t-82 -132t82 -132
t82 132zM586 394q-38 0 -55.5 -24t-22.5 -74h146v16q0 82 -68 82z" />
    <glyph glyph-name="Racute" unicode="&#x154;" horiz-adv-x="676" 
d="M622 444q0 -69 -35 -122t-96 -79l167 -243h-199l-141 222h-89v-222h-169v666h332q105 0 167.5 -60t62.5 -162zM453 444q0 42 -24.5 64.5t-63.5 22.5h-136v-176h136q39 0 63.5 23t24.5 66zM507 857l-132 -132h-164l70 132h226z" />
    <glyph glyph-name="racute" unicode="&#x155;" horiz-adv-x="364" 
d="M120 550l46 152h211l-95 -152h-162zM357 344q-19 3 -34 3q-58 0 -80.5 -30t-22.5 -103v-214h-164v492h159v-76q9 36 35 58.5t69 22.5q25 0 38 -5v-148z" />
    <glyph glyph-name="Rcommaaccent" unicode="&#x156;" horiz-adv-x="676" 
d="M438 -68l-79 -182h-139l29 182h189zM622 444q0 -69 -35 -122t-96 -79l167 -243h-199l-141 222h-89v-222h-169v666h332q105 0 167.5 -60t62.5 -162zM453 444q0 42 -24.5 64.5t-63.5 22.5h-136v-176h136q39 0 63.5 23t24.5 66z" />
    <glyph glyph-name="rcommaaccent" unicode="&#x157;" horiz-adv-x="364" 
d="M234 -68l-79 -182h-139l29 182h189zM357 344q-19 3 -34 3q-58 0 -80.5 -30t-22.5 -103v-214h-164v492h159v-76q9 36 35 58.5t69 22.5q25 0 38 -5v-148z" />
    <glyph glyph-name="Rcaron" unicode="&#x158;" horiz-adv-x="676" 
d="M622 444q0 -69 -35 -122t-96 -79l167 -243h-199l-141 222h-89v-222h-169v666h332q105 0 167.5 -60t62.5 -162zM453 444q0 42 -24.5 64.5t-63.5 22.5h-136v-176h136q39 0 63.5 23t24.5 66zM506 857l-118 -132h-154l-117 132h155l39 -45l40 45h155z" />
    <glyph glyph-name="rcaron" unicode="&#x159;" horiz-adv-x="364" 
d="M398 702l-107 -152h-159l-107 152h148l38 -59l38 59h149zM357 344q-19 3 -34 3q-58 0 -80.5 -30t-22.5 -103v-214h-164v492h159v-76q9 36 35 58.5t69 22.5q25 0 38 -5v-148z" />
    <glyph glyph-name="Sacute" unicode="&#x15a;" 
d="M556 205q0 -103 -72 -160t-205 -57q-61 0 -129.5 13.5t-117.5 35.5l35 135q112 -45 211 -45q109 0 109 57q0 32 -24 45.5t-98 26.5q-118 21 -176.5 68t-58.5 141q0 213 267 213q127 0 235 -48l-30 -134q-104 45 -207 45q-51 0 -73.5 -12t-22.5 -43q0 -30 24.5 -42.5
t108.5 -30.5q119 -26 171.5 -70t52.5 -138zM485 857l-132 -132h-164l70 132h226z" />
    <glyph glyph-name="sacute" unicode="&#x15b;" horiz-adv-x="458" 
d="M143 550l46 152h211l-95 -152h-162zM435 167q0 -83 -56.5 -130t-154.5 -47q-106 0 -199 39l34 113q80 -35 163 -35q53 0 53 30q0 12 -11.5 19t-41.5 14q-113 28 -154 64.5t-41 108.5q0 159 204 159q110 0 191 -40l-30 -110q-82 33 -154 33q-51 0 -51 -24q0 -15 15 -22.5
t75 -23.5q79 -21 118.5 -52.5t39.5 -95.5z" />
    <glyph glyph-name="Scircumflex" unicode="&#x15c;" 
d="M556 205q0 -103 -72 -160t-205 -57q-61 0 -129.5 13.5t-117.5 35.5l35 135q112 -45 211 -45q109 0 109 57q0 32 -24 45.5t-98 26.5q-118 21 -176.5 68t-58.5 141q0 213 267 213q127 0 235 -48l-30 -134q-104 45 -207 45q-51 0 -73.5 -12t-22.5 -43q0 -30 24.5 -42.5
t108.5 -30.5q119 -26 171.5 -70t52.5 -138zM373 857l118 -132h-155l-40 44l-39 -44h-155l117 132h154z" />
    <glyph glyph-name="scircumflex" unicode="&#x15d;" horiz-adv-x="458" 
d="M309 702l107 -152h-149l-38 59l-38 -59h-148l107 152h159zM435 167q0 -83 -56.5 -130t-154.5 -47q-106 0 -199 39l34 113q80 -35 163 -35q53 0 53 30q0 12 -11.5 19t-41.5 14q-113 28 -154 64.5t-41 108.5q0 159 204 159q110 0 191 -40l-30 -110q-82 33 -154 33
q-51 0 -51 -24q0 -15 15 -22.5t75 -23.5q79 -21 118.5 -52.5t39.5 -95.5z" />
    <glyph glyph-name="Scedilla" unicode="&#x15e;" 
d="M400 -102q0 -86 -193 -86l-3 54q32 2 45.5 7.5t13.5 17.5q0 18 -50 20l18 79q-117 10 -199 47l35 135q112 -45 211 -45q109 0 109 57q0 32 -24 45.5t-98 26.5q-118 21 -176.5 68t-58.5 141q0 213 267 213q127 0 235 -48l-30 -134q-104 45 -207 45q-51 0 -73.5 -12
t-22.5 -43q0 -30 24.5 -42.5t108.5 -30.5q119 -26 171.5 -70t52.5 -138q0 -100 -67.5 -156.5t-192.5 -60.5l-5 -27q109 0 109 -63z" />
    <glyph glyph-name="Scedilla" unicode="&#xf6c1;" 
d="M400 -102q0 -86 -193 -86l-3 54q32 2 45.5 7.5t13.5 17.5q0 18 -50 20l18 79q-117 10 -199 47l35 135q112 -45 211 -45q109 0 109 57q0 32 -24 45.5t-98 26.5q-118 21 -176.5 68t-58.5 141q0 213 267 213q127 0 235 -48l-30 -134q-104 45 -207 45q-51 0 -73.5 -12
t-22.5 -43q0 -30 24.5 -42.5t108.5 -30.5q119 -26 171.5 -70t52.5 -138q0 -100 -67.5 -156.5t-192.5 -60.5l-5 -27q109 0 109 -63z" />
    <glyph glyph-name="scedilla" unicode="&#x15f;" horiz-adv-x="458" 
d="M335 -102q0 -86 -193 -86l-3 54q32 2 45.5 7.5t13.5 17.5q0 18 -50 20l20 83q-78 8 -143 35l34 113q80 -35 163 -35q53 0 53 30q0 12 -11.5 19t-41.5 14q-113 28 -154 64.5t-41 108.5q0 159 204 159q110 0 191 -40l-30 -110q-82 33 -154 33q-51 0 -51 -24q0 -15 15 -22.5
t75 -23.5q79 -21 118.5 -52.5t39.5 -95.5q0 -81 -54 -128t-149 -49l-6 -29q109 0 109 -63z" />
    <glyph glyph-name="scedilla" unicode="&#xf6c2;" horiz-adv-x="458" 
d="M335 -102q0 -86 -193 -86l-3 54q32 2 45.5 7.5t13.5 17.5q0 18 -50 20l20 83q-78 8 -143 35l34 113q80 -35 163 -35q53 0 53 30q0 12 -11.5 19t-41.5 14q-113 28 -154 64.5t-41 108.5q0 159 204 159q110 0 191 -40l-30 -110q-82 33 -154 33q-51 0 -51 -24q0 -15 15 -22.5
t75 -23.5q79 -21 118.5 -52.5t39.5 -95.5q0 -81 -54 -128t-149 -49l-6 -29q109 0 109 -63z" />
    <glyph glyph-name="Scaron" unicode="&#x160;" 
d="M556 205q0 -103 -72 -160t-205 -57q-61 0 -129.5 13.5t-117.5 35.5l35 135q112 -45 211 -45q109 0 109 57q0 32 -24 45.5t-98 26.5q-118 21 -176.5 68t-58.5 141q0 213 267 213q127 0 235 -48l-30 -134q-104 45 -207 45q-51 0 -73.5 -12t-22.5 -43q0 -30 24.5 -42.5
t108.5 -30.5q119 -26 171.5 -70t52.5 -138zM483 857l-118 -132h-154l-117 132h155l39 -45l40 45h155z" />
    <glyph glyph-name="scaron" unicode="&#x161;" horiz-adv-x="458" 
d="M419 702l-107 -152h-159l-107 152h148l38 -59l38 59h149zM435 167q0 -83 -56.5 -130t-154.5 -47q-106 0 -199 39l34 113q80 -35 163 -35q53 0 53 30q0 12 -11.5 19t-41.5 14q-113 28 -154 64.5t-41 108.5q0 159 204 159q110 0 191 -40l-30 -110q-82 33 -154 33
q-51 0 -51 -24q0 -15 15 -22.5t75 -23.5q79 -21 118.5 -52.5t39.5 -95.5z" />
    <glyph glyph-name="Tcommaaccent" unicode="&#x162;" horiz-adv-x="573" 
d="M382 -68l-79 -182h-139l29 182h189zM551 520h-180v-520h-168v520h-181v146h529v-146z" />
    <glyph glyph-name="Tcommaaccent" unicode="&#x21a;" horiz-adv-x="573" 
d="M382 -68l-79 -182h-139l29 182h189zM551 520h-180v-520h-168v520h-181v146h529v-146z" />
    <glyph glyph-name="tcommaaccent" unicode="&#x163;" horiz-adv-x="357" 
d="M305 -68l-79 -182h-139l29 182h189zM326 5q-41 -15 -98 -15q-78 0 -113.5 37t-35.5 110v218h-64v137h64v124h164v-124h92v-137h-92v-200q0 -19 9 -27t31 -8q18 0 40 4z" />
    <glyph glyph-name="tcommaaccent" unicode="&#x21b;" horiz-adv-x="357" 
d="M305 -68l-79 -182h-139l29 182h189zM326 5q-41 -15 -98 -15q-78 0 -113.5 37t-35.5 110v218h-64v137h64v124h164v-124h92v-137h-92v-200q0 -19 9 -27t31 -8q18 0 40 4z" />
    <glyph glyph-name="Tcaron" unicode="&#x164;" horiz-adv-x="573" 
d="M551 520h-180v-520h-168v520h-181v146h529v-146zM482 857l-118 -132h-154l-117 132h155l39 -45l40 45h155z" />
    <glyph glyph-name="tcaron" unicode="&#x165;" horiz-adv-x="404" 
d="M491 750l-73 -197h-124l18 197h179zM328 5q-41 -15 -98 -15q-78 0 -113.5 37t-35.5 110v218h-64v137h64v124h164v-124h92v-137h-92v-200q0 -19 9 -27t31 -8q18 0 40 4z" />
    <glyph glyph-name="Tbar" unicode="&#x166;" horiz-adv-x="573" 
d="M477 232h-106v-232h-168v232h-106v141h106v147h-181v146h529v-146h-180v-147h106v-141z" />
    <glyph glyph-name="tbar" unicode="&#x167;" horiz-adv-x="357" 
d="M326 5q-41 -15 -98 -15q-78 0 -113.5 37t-35.5 110v43h-64v128h64v47h-64v137h64v124h164v-124h92v-137h-92v-47h70v-128h-70v-25q0 -19 9 -27t31 -8q18 0 40 4z" />
    <glyph glyph-name="Utilde" unicode="&#x168;" horiz-adv-x="690" 
d="M634 666v-405q0 -117 -77 -195t-212 -78t-212 78t-77 195v405h169v-414q0 -59 33 -90t87 -31t87 31t33 90v414h169zM460 892l104 -37q-10 -32 -16.5 -48t-20 -38.5t-33 -32.5t-45.5 -10q-24 0 -82 22t-75 22t-25 -11t-16 -34l-107 38q20 69 48.5 99t85.5 30
q29 0 80.5 -21.5t63.5 -21.5q25 0 38 43z" />
    <glyph glyph-name="utilde" unicode="&#x169;" horiz-adv-x="560" 
d="M50 492h164v-309q0 -55 53 -55q37 0 55.5 25.5t18.5 69.5v269h164v-492h-159v69q-49 -79 -144 -79q-152 0 -152 169v333zM394 717l104 -38q-17 -60 -42.5 -94.5t-76.5 -34.5q-25 0 -77 22t-68 22q-17 0 -25 -10t-17 -34l-102 37q21 70 48 99.5t80 29.5q27 0 76 -21.5
t62 -21.5q23 0 38 44z" />
    <glyph glyph-name="Umacron" unicode="&#x16a;" horiz-adv-x="690" 
d="M634 666v-405q0 -117 -77 -195t-212 -78t-212 78t-77 195v405h169v-414q0 -59 33 -90t87 -31t87 31t33 90v414h169zM527 728h-367v127h367v-127z" />
    <glyph glyph-name="umacron" unicode="&#x16b;" horiz-adv-x="560" 
d="M50 492h164v-309q0 -55 53 -55q37 0 55.5 25.5t18.5 69.5v269h164v-492h-159v69q-49 -79 -144 -79q-152 0 -152 169v333zM454 570h-330v124h330v-124z" />
    <glyph glyph-name="Ubreve" unicode="&#x16c;" horiz-adv-x="690" 
d="M634 666v-405q0 -117 -77 -195t-212 -78t-212 78t-77 195v405h169v-414q0 -59 33 -90t87 -31t87 31t33 90v414h169zM402 862h127q0 -68 -49 -102.5t-135 -34.5t-135.5 34.5t-49.5 102.5h128q0 -45 57 -45t57 45z" />
    <glyph glyph-name="ubreve" unicode="&#x16d;" horiz-adv-x="560" 
d="M50 492h164v-309q0 -55 53 -55q37 0 55.5 25.5t18.5 69.5v269h164v-492h-159v69q-49 -79 -144 -79q-152 0 -152 169v333zM466 704q0 -74 -49.5 -114.5t-129.5 -40.5t-129 40.5t-49 114.5h117q0 -61 61 -61q62 0 62 61h117z" />
    <glyph glyph-name="Uring" unicode="&#x16e;" horiz-adv-x="690" 
d="M451 817q0 -39 -27.5 -65.5t-79.5 -26.5t-79.5 26.5t-27.5 65.5t27.5 66t79.5 27t79.5 -27t27.5 -66zM306 817q0 -35 38 -35t38 35q0 36 -38 36t-38 -36zM634 666v-405q0 -117 -77 -195t-212 -78t-212 78t-77 195v405h169v-414q0 -59 33 -90t87 -31t87 31t33 90v414h169z
" />
    <glyph glyph-name="uring" unicode="&#x16f;" horiz-adv-x="560" 
d="M388 643q0 -39 -27.5 -66t-79.5 -27t-79.5 27t-27.5 66t27.5 65.5t79.5 26.5t79.5 -26.5t27.5 -65.5zM243 643q0 -36 38 -36t38 36q0 35 -38 35t-38 -35zM50 492h164v-309q0 -55 53 -55q37 0 55.5 25.5t18.5 69.5v269h164v-492h-159v69q-49 -79 -144 -79q-152 0 -152 169
v333z" />
    <glyph glyph-name="Uhungarumlaut" unicode="&#x170;" horiz-adv-x="690" 
d="M600 857l-80 -132h-155l46 132h189zM375 857l-61 -132h-147l31 132h177zM634 666v-405q0 -117 -77 -195t-212 -78t-212 78t-77 195v405h169v-414q0 -59 33 -90t87 -31t87 31t33 90v414h169z" />
    <glyph glyph-name="uhungarumlaut" unicode="&#x171;" horiz-adv-x="560" 
d="M50 492h164v-309q0 -55 53 -55q37 0 55.5 25.5t18.5 69.5v269h164v-492h-159v69q-49 -79 -144 -79q-152 0 -152 169v333zM549 702l-90 -152h-155l55 152h190zM320 702l-69 -152h-148l40 152h177z" />
    <glyph glyph-name="Uogonek" unicode="&#x172;" horiz-adv-x="690" 
d="M634 666v-405q0 -72 -27 -123.5t-86 -95.5q-3 -2 -42 -26.5t-57.5 -44t-18.5 -41.5q0 -28 34 -28q15 0 29 4l12 -77q-34 -17 -97 -17q-55 0 -82.5 24.5t-27.5 64.5q0 54 56 88q-127 5 -199 82t-72 190v405h169v-414q0 -59 33 -90t87 -31t87 31t33 90v414h169z" />
    <glyph glyph-name="uogonek" unicode="&#x173;" horiz-adv-x="560" 
d="M50 492h164v-309q0 -55 53 -55q37 0 55.5 25.5t18.5 69.5v269h164v-492q-28 -12 -51.5 -31t-23.5 -40q0 -27 34 -27q13 0 29 4l12 -77q-40 -17 -97 -17q-54 0 -82 27t-28 69q0 33 12 52.5t36 39.5v69q-49 -79 -144 -79q-152 0 -152 169v333z" />
    <glyph glyph-name="Wcircumflex" unicode="&#x174;" horiz-adv-x="908" 
d="M529 857l118 -132h-155l-40 44l-39 -44h-155l117 132h154zM547 666l110 -389l77 389h171l-168 -666h-158l-125 482l-125 -482h-158l-168 666h171l77 -389l110 389h186z" />
    <glyph glyph-name="wcircumflex" unicode="&#x175;" horiz-adv-x="761" 
d="M459 702l107 -152h-149l-38 59l-38 -59h-148l107 152h159zM465 492l76 -304l63 304h162l-137 -492h-169l-80 310l-80 -310h-168l-137 492h161l63 -304l76 304h170z" />
    <glyph glyph-name="Ycircumflex" unicode="&#x176;" horiz-adv-x="577" 
d="M584 666l-211 -411v-255h-169v255l-211 411h180l116 -262l115 262h180zM365 857l118 -132h-155l-40 44l-39 -44h-155l117 132h154z" />
    <glyph glyph-name="ycircumflex" unicode="&#x177;" horiz-adv-x="469" 
d="M238 165l73 327h168l-207 -670h-167l52 170l-167 500h172zM326 702l107 -152h-149l-38 59l-38 -59h-148l107 152h159z" />
    <glyph glyph-name="Ydieresis" unicode="&#x178;" horiz-adv-x="577" 
d="M584 666l-211 -411v-255h-169v255l-211 411h180l116 -262l115 262h180zM317 799q0 34 20 53.5t58 19.5t58 -19.5t20 -53.5t-20.5 -54t-57.5 -20t-57.5 20t-20.5 54zM105 799q0 34 20 53.5t58 19.5t58 -19.5t20 -53.5t-20.5 -54t-57.5 -20t-57.5 20t-20.5 54z" />
    <glyph glyph-name="Zacute" unicode="&#x179;" horiz-adv-x="600" 
d="M560 0h-515v146l308 378h-300v142h496v-146l-308 -378h319v-142zM502 857l-132 -132h-164l70 132h226z" />
    <glyph glyph-name="zacute" unicode="&#x17a;" horiz-adv-x="485" 
d="M159 550l46 152h211l-95 -152h-162zM450 0h-410v127l205 238h-195v127h398v-127l-214 -238h216v-127z" />
    <glyph glyph-name="Zdotaccent" unicode="&#x17b;" horiz-adv-x="600" 
d="M208 819q0 41 26 68t68 27t68.5 -27.5t26.5 -67.5q0 -39 -26.5 -66.5t-68.5 -27.5t-68 27.5t-26 66.5zM560 0h-515v146l308 378h-300v142h496v-146l-308 -378h319v-142z" />
    <glyph glyph-name="zdotaccent" unicode="&#x17c;" horiz-adv-x="485" 
d="M450 0h-410v127l205 238h-195v127h398v-127l-214 -238h216v-127zM162 639q0 41 26 68t68 27t68.5 -27.5t26.5 -67.5q0 -39 -26.5 -66.5t-68.5 -27.5t-68 27.5t-26 66.5z" />
    <glyph glyph-name="Zcaron" unicode="&#x17d;" horiz-adv-x="600" 
d="M560 0h-515v146l308 378h-300v142h496v-146l-308 -378h319v-142zM499 857l-118 -132h-154l-117 132h155l39 -45l40 45h155z" />
    <glyph glyph-name="zcaron" unicode="&#x17e;" horiz-adv-x="485" 
d="M443 702l-107 -152h-159l-107 152h148l38 -59l38 59h149zM450 0h-410v127l205 238h-195v127h398v-127l-214 -238h216v-127z" />
    <glyph glyph-name="florin" unicode="&#x192;" horiz-adv-x="389" 
d="M95 331h-52v131h63l6 62q8 78 46 115t114 37q64 0 120 -22l-19 -116q-30 11 -58 11q-37 0 -40 -34l-5 -53h76v-131h-87l-32 -363q-13 -156 -161 -156q-54 0 -109 17l18 117q23 -7 44 -7q42 0 45 39z" />
    <glyph glyph-name="Aringacute" unicode="&#x1fa;" horiz-adv-x="672" 
d="M481 950l-68 -110h-152l17 110h203zM443 723q0 -31 -14 -56l241 -667h-172l-42 136h-240l-42 -136h-172l240 667q-13 26 -13 56q0 39 27.5 66t79.5 27t79.5 -27t27.5 -66zM298 723q0 -36 38 -36t38 36t-38 36t-38 -36zM336 519l-75 -243h150z" />
    <glyph glyph-name="aringacute" unicode="&#x1fb;" horiz-adv-x="550" 
d="M444 881l-72 -112h-153l22 112h203zM179 639q0 40 27.5 66.5t80.5 26.5q52 0 79.5 -27t27.5 -66t-27.5 -66t-79.5 -27q-53 0 -80.5 26.5t-27.5 66.5zM249 639q0 -36 38 -36q37 0 37 36t-37 36q-38 0 -38 -36zM502 0h-156v59q-53 -69 -156 -69q-76 0 -114.5 41.5
t-38.5 112.5q0 150 178 150h123v19q0 29 -20 40.5t-62 11.5q-80 0 -157 -37l-28 125q85 49 211 49q111 0 165.5 -42t54.5 -136v-324zM338 174v16h-95q-49 0 -49 -43q0 -46 58 -46q86 0 86 73z" />
    <glyph glyph-name="AEacute" unicode="&#x1fc;" horiz-adv-x="892" 
d="M858 520h-364l33 -107h312v-146h-268l36 -121h251v-146h-362l-43 138h-238l-43 -138h-172l240 666h618v-146zM334 533l-74 -256h148zM577 857l-132 -132h-164l70 132h226z" />
    <glyph glyph-name="aeacute" unicode="&#x1fd;" horiz-adv-x="844" 
d="M356 550l46 152h211l-95 -152h-162zM264 502q118 0 172 -54q65 54 165 54q109 0 162.5 -63.5t53.5 -178.5v-66h-303q6 -45 32.5 -67.5t83.5 -22.5q81 0 157 35l28 -104q-87 -45 -206 -45q-127 0 -192 68q-75 -68 -191 -68q-88 0 -138.5 39.5t-50.5 114.5q0 150 178 150
h133v14q0 34 -24 48t-73 14q-76 0 -145 -31l-30 119q85 44 188 44zM348 182v12h-98q-59 0 -59 -47q0 -48 66 -48q42 0 66.5 21t24.5 62zM599 392q-42 0 -61.5 -23.5t-24.5 -74.5h151v18q0 80 -65 80z" />
    <glyph glyph-name="Oslashacute" unicode="&#x1fe;" horiz-adv-x="700" 
d="M27 333q0 154 86 249.5t239 95.5q41 0 81 -8l18 45h106l-32 -80q74 -42 113 -121t39 -181q0 -154 -86 -249.5t-239 -95.5q-41 0 -81 8l-31 -80h-106l45 114q-74 42 -113 121t-39 182zM196 333q0 -100 42 -154l141 356q-18 2 -27 2q-78 0 -117 -55.5t-39 -148.5zM352 129
q78 0 117 55.5t39 148.5q0 98 -42 152l-141 -354q8 -2 27 -2zM498 857l-92 -132h-164l50 132h206z" />
    <glyph glyph-name="oslashacute" unicode="&#x1ff;" horiz-adv-x="540" 
d="M516 246q0 -115 -64.5 -185.5t-181.5 -70.5q-31 0 -66 7l-32 -81h-68l40 102q-59 30 -89.5 89.5t-30.5 138.5q0 115 64.5 185.5t181.5 70.5q37 0 65 -7l13 34h68l-22 -55q59 -30 90.5 -89.5t31.5 -138.5zM352 246q0 54 -14 87l-87 -217q12 -2 19 -2q82 0 82 132zM188 246
q0 -56 13 -86l86 216q-10 2 -17 2q-82 0 -82 -132zM185 550l46 152h194l-85 -152h-155z" />
    <glyph glyph-name="Scommaaccent" unicode="&#x218;" 
d="M556 205q0 -103 -72 -160t-205 -57q-61 0 -129.5 13.5t-117.5 35.5l35 135q112 -45 211 -45q109 0 109 57q0 32 -24 45.5t-98 26.5q-118 21 -176.5 68t-58.5 141q0 213 267 213q127 0 235 -48l-30 -134q-104 45 -207 45q-51 0 -73.5 -12t-22.5 -43q0 -30 24.5 -42.5
t108.5 -30.5q119 -26 171.5 -70t52.5 -138zM381 -68l-79 -182h-139l29 182h189z" />
    <glyph glyph-name="scommaaccent" unicode="&#x219;" horiz-adv-x="458" 
d="M435 167q0 -83 -56.5 -130t-154.5 -47q-106 0 -199 39l34 113q80 -35 163 -35q53 0 53 30q0 12 -11.5 19t-41.5 14q-113 28 -154 64.5t-41 108.5q0 159 204 159q110 0 191 -40l-30 -110q-82 33 -154 33q-51 0 -51 -24q0 -15 15 -22.5t75 -23.5q79 -21 118.5 -52.5
t39.5 -95.5zM321 -68l-79 -182h-139l29 182h189z" />
    <glyph glyph-name="circumflex" unicode="&#x2c6;" horiz-adv-x="493" 
d="M326 702l107 -152h-149l-38 59l-38 -59h-148l107 152h159z" />
    <glyph glyph-name="caron" unicode="&#x2c7;" horiz-adv-x="493" 
d="M433 702l-107 -152h-159l-107 152h148l38 -59l38 59h149z" />
    <glyph glyph-name="breve" unicode="&#x2d8;" horiz-adv-x="477" 
d="M417 704q0 -74 -49.5 -114.5t-129.5 -40.5t-129 40.5t-49 114.5h117q0 -61 61 -61q62 0 62 61h117z" />
    <glyph glyph-name="dotaccent" unicode="&#x2d9;" horiz-adv-x="309" 
d="M60 629q0 41 26 68t68 27t68.5 -27.5t26.5 -67.5q0 -39 -26.5 -66.5t-68.5 -27.5t-68 27.5t-26 66.5z" />
    <glyph glyph-name="ring" unicode="&#x2da;" horiz-adv-x="334" 
d="M274 643q0 -39 -27.5 -66t-79.5 -27t-79.5 27t-27.5 66t27.5 65.5t79.5 26.5t79.5 -26.5t27.5 -65.5zM129 643q0 -36 38 -36t38 36q0 35 -38 35t-38 -35z" />
    <glyph glyph-name="ogonek" unicode="&#x2db;" horiz-adv-x="327" 
d="M255 -94l12 -77q-40 -17 -97 -17q-55 0 -82.5 25t-27.5 66q0 62 51 97h156q-28 -12 -51.5 -31t-23.5 -40q0 -27 34 -27q17 0 29 4z" />
    <glyph glyph-name="tilde" unicode="&#x2dc;" horiz-adv-x="528" 
d="M364 717l104 -38q-17 -60 -42.5 -94.5t-76.5 -34.5q-25 0 -77 22t-68 22q-17 0 -25 -10t-17 -34l-102 37q21 70 48 99.5t80 29.5q27 0 76 -21.5t62 -21.5q23 0 38 44z" />
    <glyph glyph-name="hungarumlaut" unicode="&#x2dd;" horiz-adv-x="566" 
d="M506 702l-90 -152h-155l55 152h190zM277 702l-69 -152h-148l40 152h177z" />
    <glyph glyph-name="uni0312" unicode="&#x312;" horiz-adv-x="339" 
d="M60 550l65 152h154l-25 -152h-194z" />
    <glyph glyph-name="uni0315" unicode="&#x315;" horiz-adv-x="341" 
d="M281 666l-94 -235h-127l29 235h192z" />
    <glyph glyph-name="uni0326" unicode="&#x326;" horiz-adv-x="338" 
d="M278 -68l-79 -182h-139l29 182h189z" />
    <glyph glyph-name="uni037E" unicode="&#x37e;" horiz-adv-x="329" 
d="M190 265q-43 0 -70.5 26.5t-27.5 69.5t27.5 69.5t70.5 26.5q42 0 69.5 -27t27.5 -69t-27.5 -69t-69.5 -27zM92 159h191l-129 -313h-130z" />
    <glyph glyph-name="tonos" unicode="&#x384;" horiz-adv-x="358" 
d="M60 550l27 152h212l-88 -152h-151z" />
    <glyph glyph-name="dieresistonos" unicode="&#x385;" 
d="M216 550l26 181h156l-81 -181h-101zM384 623q0 30 18.5 49t52.5 19q33 0 51.5 -19t18.5 -49q0 -29 -18.5 -48.5t-51.5 -19.5q-34 0 -52.5 19.5t-18.5 48.5zM60 623q0 30 19 49t52 19t52 -19t19 -49q0 -29 -19 -48.5t-52 -19.5t-52 19.5t-19 48.5z" />
    <glyph glyph-name="Alphatonos" unicode="&#x386;" horiz-adv-x="672" 
d="M2 0l239 666h190l239 -666h-172l-42 136h-240l-42 -136h-172zM336 520l-75 -244h150zM-50 514l27 152h212l-88 -152h-151z" />
    <glyph glyph-name="anoteleia" unicode="&#x387;" horiz-adv-x="285" 
d="M50 273q0 42 25 66.5t67 24.5t67.5 -24.5t25.5 -66.5t-25.5 -66.5t-67.5 -24.5t-67 24.5t-25 66.5z" />
    <glyph glyph-name="Epsilontonos" unicode="&#x388;" 
d="M60 0v666h477v-146h-308v-107h289v-146h-289v-121h308v-146h-477zM-215 514l27 152h212l-88 -152h-151z" />
    <glyph glyph-name="Etatonos" unicode="&#x389;" horiz-adv-x="695" 
d="M60 0v666h169v-256h237v256h169v-666h-169v259h-237v-259h-169zM-217 514l27 152h212l-88 -152h-151z" />
    <glyph glyph-name="Iotatonos" unicode="&#x38a;" horiz-adv-x="299" 
d="M65 0v666h169v-666h-169zM-217 514l27 152h212l-88 -152h-151z" />
    <glyph glyph-name="Omicrontonos" unicode="&#x38c;" horiz-adv-x="700" 
d="M25 333q0 154 86 249.5t239 95.5t239 -95.5t86 -249.5t-86 -249.5t-239 -95.5t-239 95.5t-86 249.5zM350 129q78 0 117 55t39 149t-39 149t-117 55t-117 -55t-39 -149t39 -149t117 -55zM-153 514l27 152h212l-88 -152h-151z" />
    <glyph glyph-name="Upsilontonos" unicode="&#x38e;" horiz-adv-x="577" 
d="M584 666l-211 -411v-255h-169v255l-211 411h180l116 -262l115 262h180zM-264 514l27 152h212l-88 -152h-151z" />
    <glyph glyph-name="Omegatonos" unicode="&#x38f;" horiz-adv-x="761" 
d="M677 376q0 -75 -23 -132.5t-68 -113.5h85v-130h-261v130q43 37 73 98.5t30 132.5q0 187 -159 187q-160 0 -160 -187q0 -71 30 -132.5t73 -98.5v-130h-261v130h85q-45 56 -68 113.5t-23 132.5q0 139 86 220.5t238 81.5t237.5 -81.5t85.5 -220.5zM-105 666l-27 -152h151
l88 152h-212z" />
    <glyph glyph-name="iotadieresistonos" unicode="&#x390;" horiz-adv-x="334" 
d="M50 137v355h170v-331q0 -22 8 -31.5t31 -9.5q31 0 56 4l3 -119q-52 -15 -118 -15q-150 0 -150 147zM79 550l26 181h156l-81 -181h-101zM247 623q0 30 18.5 49t52.5 19q33 0 51.5 -19t18.5 -49q0 -29 -18.5 -48.5t-51.5 -19.5q-34 0 -52.5 19.5t-18.5 48.5zM-77 623
q0 30 19 49t52 19t52 -19t19 -49q0 -29 -19 -48.5t-52 -19.5t-52 19.5t-19 48.5z" />
    <glyph glyph-name="Alpha" unicode="&#x391;" horiz-adv-x="672" 
d="M2 0l239 666h190l239 -666h-172l-42 136h-240l-42 -136h-172zM336 520l-75 -244h150z" />
    <glyph glyph-name="Beta" unicode="&#x392;" horiz-adv-x="629" 
d="M60 0v666h326q92 0 144 -44t52 -120q0 -120 -115 -161q138 -29 138 -157q0 -82 -59 -133t-157 -51h-329zM227 399h112q38 0 57 19.5t19 52.5q0 64 -80 64h-108v-136zM227 131h138q73 0 73 71q0 32 -21 49t-58 17h-132v-137z" />
    <glyph glyph-name="Gamma" unicode="&#x393;" horiz-adv-x="522" 
d="M60 0v666h457v-146h-288v-520h-169z" />
    <glyph glyph-name="uni0394" unicode="&#x394;" horiz-adv-x="669" 
d="M12 0v56l235 610h175l235 -610v-56h-645zM215 145h234l-117 374z" />
    <glyph glyph-name="Epsilon" unicode="&#x395;" 
d="M60 0v666h477v-146h-308v-107h289v-146h-289v-121h308v-146h-477z" />
    <glyph glyph-name="Zeta" unicode="&#x396;" horiz-adv-x="600" 
d="M560 0h-515v146l308 378h-300v142h496v-146l-308 -378h319v-142z" />
    <glyph glyph-name="Eta" unicode="&#x397;" horiz-adv-x="695" 
d="M60 0v666h169v-256h237v256h169v-666h-169v259h-237v-259h-169z" />
    <glyph glyph-name="Theta" unicode="&#x398;" horiz-adv-x="700" 
d="M246 282v116h204v-116h-204zM25 333q0 154 86 249.5t239 95.5t239 -95.5t86 -249.5t-86 -249.5t-239 -95.5t-239 95.5t-86 249.5zM350 129q78 0 117 55t39 149t-39 149t-117 55t-117 -55t-39 -149t39 -149t117 -55z" />
    <glyph glyph-name="Iota" unicode="&#x399;" horiz-adv-x="299" 
d="M65 0v666h169v-666h-169z" />
    <glyph glyph-name="Kappa" unicode="&#x39a;" horiz-adv-x="661" 
d="M60 0v666h169v-293l204 293h216l-247 -325l251 -341h-215l-209 306v-306h-169z" />
    <glyph glyph-name="Lambda" unicode="&#x39b;" horiz-adv-x="647" 
d="M7 0l218 666h198l217 -666h-176l-140 513l-142 -513h-175z" />
    <glyph glyph-name="Mu" unicode="&#x39c;" horiz-adv-x="858" 
d="M60 0v666h169l200 -415l200 415h169v-666h-164v335l-124 -251h-162l-124 251v-335h-164z" />
    <glyph glyph-name="Nu" unicode="&#x39d;" horiz-adv-x="726" 
d="M60 0v666h168l274 -385v385h164v-666h-168l-274 385v-385h-164z" />
    <glyph glyph-name="Xi" unicode="&#x39e;" horiz-adv-x="578" 
d="M34 0v152h509v-152h-509zM98 265v146h382v-146h-382zM34 516v150h510v-150h-510z" />
    <glyph glyph-name="Omicron" unicode="&#x39f;" horiz-adv-x="700" 
d="M25 333q0 154 86 249.5t239 95.5t239 -95.5t86 -249.5t-86 -249.5t-239 -95.5t-239 95.5t-86 249.5zM350 129q78 0 117 55t39 149t-39 149t-117 55t-117 -55t-39 -149t39 -149t117 -55z" />
    <glyph glyph-name="Pi" unicode="&#x3a0;" horiz-adv-x="689" 
d="M60 0v666h569v-666h-169v522h-231v-522h-169z" />
    <glyph glyph-name="Rho" unicode="&#x3a1;" horiz-adv-x="618" 
d="M60 0v666h314q104 0 167 -62t63 -161q0 -97 -65 -161.5t-165 -64.5h-145v-217h-169zM229 351h121q39 0 62 24t23 68q0 43 -24 65.5t-61 22.5h-121v-180z" />
    <glyph glyph-name="Sigma" unicode="&#x3a3;" horiz-adv-x="634" 
d="M40 0v92l189 233l-171 229v112h519v-146h-279l129 -173l-154 -201h323v-146h-556z" />
    <glyph glyph-name="Tau" unicode="&#x3a4;" horiz-adv-x="573" 
d="M551 520h-180v-520h-168v520h-181v146h529v-146z" />
    <glyph glyph-name="Upsilon" unicode="&#x3a5;" horiz-adv-x="577" 
d="M584 666l-211 -411v-255h-169v255l-211 411h180l116 -262l115 262h180z" />
    <glyph glyph-name="Phi" unicode="&#x3a6;" horiz-adv-x="813" 
d="M322 0v61q-144 12 -222 85.5t-78 188.5q0 116 77 189t223 89v60h169v-60q147 -16 223.5 -88.5t76.5 -189.5q0 -115 -78 -188.5t-222 -85.5v-61h-169zM322 198v276q-65 -4 -100.5 -44t-35.5 -95q0 -126 136 -137zM491 474v-276q135 11 135 137q0 55 -35 95t-100 44z" />
    <glyph glyph-name="Chi" unicode="&#x3a7;" horiz-adv-x="603" 
d="M595 666l-202 -326l210 -340h-180l-121 202l-122 -202h-180l211 340l-202 326h180l113 -189l113 189h180z" />
    <glyph glyph-name="Psi" unicode="&#x3a8;" horiz-adv-x="843" 
d="M336 0v104q-148 11 -214 81.5t-66 212.5v268h170v-255q0 -94 26 -131.5t84 -46.5v433h169v-434q59 9 86.5 46.5t27.5 131.5v256h168v-268q0 -143 -66.5 -213.5t-215.5 -80.5v-104h-169z" />
    <glyph glyph-name="uni03A9" unicode="&#x3a9;" horiz-adv-x="707" 
d="M677 376q0 -75 -23 -132.5t-68 -113.5h85v-130h-261v130q43 37 73 98.5t30 132.5q0 187 -159 187q-160 0 -160 -187q0 -71 30 -132.5t73 -98.5v-130h-261v130h85q-45 56 -68 113.5t-23 132.5q0 139 86 220.5t238 81.5t237.5 -81.5t85.5 -220.5z" />
    <glyph glyph-name="Iotadieresis" unicode="&#x3aa;" horiz-adv-x="299" 
d="M65 666v-666h169v666h-169zM178 799q0 34 20 53.5t58 19.5t58 -19.5t20 -53.5t-20.5 -54t-57.5 -20t-57.5 20t-20.5 54zM-34 799q0 34 20 53.5t58 19.5t58 -19.5t20 -53.5t-20.5 -54t-57.5 -20t-57.5 20t-20.5 54z" />
    <glyph glyph-name="Upsilondieresis" unicode="&#x3ab;" horiz-adv-x="577" 
d="M373 255l211 411h-180l-115 -262l-116 262h-180l211 -411v-255h169v255zM319 799q0 34 20 53.5t58 19.5t58 -19.5t20 -53.5t-20.5 -54t-57.5 -20t-57.5 20t-20.5 54zM107 799q0 34 20 53.5t58 19.5t58 -19.5t20 -53.5t-20.5 -54t-57.5 -20t-57.5 20t-20.5 54z" />
    <glyph glyph-name="alphatonos" unicode="&#x3ac;" horiz-adv-x="613" 
d="M224 -10q-98 0 -148 67t-50 183q0 125 59 193.5t148 68.5q98 0 149 -78q3 17 14.5 43t17.5 35l156 -44q-62 -148 -62 -254q0 -84 48 -84q21 0 32 4l3 -119q-51 -15 -90 -15q-31 0 -53 4.5t-45 24t-34 54.5q-36 -51 -69 -67t-76 -16zM270 120q36 0 58 35.5t22 94.5
q0 56 -21 89t-54 33q-35 0 -55.5 -35t-20.5 -95q0 -122 71 -122zM196 550l27 152h212l-88 -152h-151z" />
    <glyph glyph-name="epsilontonos" unicode="&#x3ad;" horiz-adv-x="460" 
d="M239 -10q-62 0 -106 9t-77.5 41t-33.5 87q0 39 24 76t77 51q-86 36 -86 110q0 58 55 98t157 40q107 0 183 -26l-25 -118q-73 20 -141 20q-56 0 -56 -36q0 -18 12.5 -26.5t43.5 -8.5h68v-115h-76q-55 0 -55 -37t61 -37q91 0 163 27l23 -122q-83 -33 -211 -33zM171 550
l27 152h212l-88 -152h-151z" />
    <glyph glyph-name="etatonos" unicode="&#x3ae;" horiz-adv-x="596" 
d="M78 0v247q0 70 -11.5 96.5t-53.5 44.5l91 115q48 -5 77.5 -33.5t32.5 -71.5q67 104 170 104q162 0 162 -169v-511h-170v482q0 57 -53 57q-75 0 -75 -97v-264h-170zM217 550l27 152h212l-88 -152h-151z" />
    <glyph glyph-name="iotatonos" unicode="&#x3af;" horiz-adv-x="334" 
d="M50 137v355h170v-331q0 -22 8 -31.5t31 -9.5q31 0 56 4l3 -119q-52 -15 -118 -15q-150 0 -150 147zM55 550l27 152h212l-88 -152h-151z" />
    <glyph glyph-name="upsilondieresistonos" unicode="&#x3b0;" horiz-adv-x="556" 
d="M51 214v12q0 174 -31 231l165 45q22 -37 28 -80t6 -138v-70q0 -86 64 -86q41 0 59.5 28t18.5 89q0 122 -37 212l163 45q43 -105 43 -241q0 -31 -3 -59t-17.5 -69.5t-39.5 -70.5t-74 -50.5t-116 -21.5q-229 0 -229 224zM205 550l26 181h156l-81 -181h-101zM373 623
q0 30 18.5 49t52.5 19q33 0 51.5 -19t18.5 -49q0 -29 -18.5 -48.5t-51.5 -19.5q-34 0 -52.5 19.5t-18.5 48.5zM49 623q0 30 19 49t52 19t52 -19t19 -49q0 -29 -19 -48.5t-52 -19.5t-52 19.5t-19 48.5z" />
    <glyph glyph-name="alpha" unicode="&#x3b1;" horiz-adv-x="613" 
d="M224 -10q-98 0 -148 67t-50 183q0 125 59 193.5t148 68.5q98 0 149 -78q3 17 14.5 43t17.5 35l156 -44q-62 -148 -62 -254q0 -84 48 -84q21 0 32 4l3 -119q-51 -15 -90 -15q-31 0 -53 4.5t-45 24t-34 54.5q-36 -51 -69 -67t-76 -16zM270 120q36 0 58 35.5t22 94.5
q0 56 -21 89t-54 33q-35 0 -55.5 -35t-20.5 -95q0 -122 71 -122z" />
    <glyph glyph-name="beta" unicode="&#x3b2;" horiz-adv-x="594" 
d="M55 -178v585q0 73 20.5 127t56 84t76 44t86.5 14q64 0 109.5 -17t68 -45t32 -55.5t9.5 -56.5q0 -88 -70 -132q123 -42 123 -181q0 -29 -10 -60.5t-32 -64t-64.5 -53.5t-98.5 -21q-82 0 -136 70v-238h-170zM306 120q46 0 64 25t18 55q0 87 -79 87h-28v119h28q27 0 41 18
t14 46q0 76 -67 76q-33 0 -52.5 -24t-19.5 -73v-211q0 -57 18 -87.5t63 -30.5z" />
    <glyph glyph-name="gamma" unicode="&#x3b3;" horiz-adv-x="605" 
d="M239 -178v180l-125 291q-23 53 -33 66t-34 13q-12 0 -31 -6l-4 122q58 15 86 15q74 0 108.5 -29t62.5 -123l59 -197l108 338h169l-196 -487v-183h-170z" />
    <glyph glyph-name="delta" unicode="&#x3b4;" horiz-adv-x="529" 
d="M262 -10q-103 0 -170.5 60t-67.5 170q0 74 39 129.5t104 80.5q-32 24 -49 46.5t-20 35t-3 28.5q0 61 48 98.5t139 37.5q119 0 195 -39l-29 -130q-89 44 -136 44q-26 0 -26 -20q0 -11 11 -21t69 -51q69 -49 103 -103.5t34 -127.5q0 -94 -62 -166t-179 -72zM268 120
q36 0 54 30t18 78q0 97 -82 143q-66 -51 -66 -141q0 -50 19 -80t57 -30z" />
    <glyph glyph-name="epsilon" unicode="&#x3b5;" horiz-adv-x="460" 
d="M239 -10q-62 0 -106 9t-77.5 41t-33.5 87q0 39 24 76t77 51q-86 36 -86 110q0 58 55 98t157 40q107 0 183 -26l-25 -118q-73 20 -141 20q-56 0 -56 -36q0 -18 12.5 -26.5t43.5 -8.5h68v-115h-76q-55 0 -55 -37t61 -37q91 0 163 27l23 -122q-83 -33 -211 -33z" />
    <glyph glyph-name="zeta" unicode="&#x3b6;" horiz-adv-x="426" 
d="M274 -197l-63 69q59 52 59 77q0 10 -2 15.5t-14.5 15.5t-37.5 22q-113 55 -152.5 100.5t-39.5 126.5q0 78 52.5 157.5t140.5 140.5h-170v139h378v-110q-232 -153 -232 -293q0 -25 6.5 -42.5t25.5 -33.5t34.5 -25t52.5 -29q67 -36 90.5 -62.5t23.5 -71.5q0 -94 -152 -196z
" />
    <glyph glyph-name="eta" unicode="&#x3b7;" horiz-adv-x="596" 
d="M78 0v247q0 70 -11.5 96.5t-53.5 44.5l91 115q48 -5 77.5 -33.5t32.5 -71.5q67 104 170 104q162 0 162 -169v-511h-170v482q0 57 -53 57q-75 0 -75 -97v-264h-170z" />
    <glyph glyph-name="theta" unicode="&#x3b8;" horiz-adv-x="567" 
d="M284 -10q-71 0 -122.5 27.5t-79.5 75.5t-41 105t-13 125q0 168 63.5 260.5t192.5 92.5t192 -93.5t63 -259.5q0 -92 -23.5 -164t-82.5 -120.5t-149 -48.5zM284 120q46 0 66 46t20 106h-175q7 -152 89 -152zM195 390h176q-3 74 -21.5 115t-65.5 41q-83 0 -89 -156z" />
    <glyph glyph-name="iota" unicode="&#x3b9;" horiz-adv-x="334" 
d="M50 137v355h170v-331q0 -22 8 -31.5t31 -9.5q31 0 56 4l3 -119q-52 -15 -118 -15q-150 0 -150 147z" />
    <glyph glyph-name="kappa" unicode="&#x3ba;" horiz-adv-x="574" 
d="M55 0v492h171v-208l78 102q52 67 87.5 91.5t99.5 24.5q30 0 49 -5v-127q-32 2 -37 2q-26 0 -49 -15t-58 -58l-29 -34l206 -265h-184l-118 159l-45 -51v-108h-171z" />
    <glyph glyph-name="lambda" unicode="&#x3bb;" horiz-adv-x="596" 
d="M5 0l217 462l-2 6q-13 42 -30.5 59.5t-49.5 17.5q-18 0 -43 -6q-2 115 -2 125q47 12 79 12q79 0 121.5 -34.5t72.5 -121.5l122 -358q9 -26 20 -34t36 -8t38 4l2 -119q-42 -15 -97 -15q-69 0 -103.5 31t-57.5 108l-46 154l-106 -283h-171z" />
    <glyph glyph-name="uni03BC" unicode="&#x3bc;" horiz-adv-x="620" 
d="M55 -178v670h170v-312q0 -28 14 -40t33 -12q40 0 60 27.5t20 72.5v264h170v-320q0 -32 11 -42t35 -10q15 0 31 4l3 -119q-48 -15 -89 -15q-51 0 -79 14t-51 57q-25 -40 -49 -55.5t-54 -15.5q-33 0 -55 22v-190h-170z" />
    <glyph glyph-name="nu" unicode="&#x3bd;" horiz-adv-x="523" 
d="M166 0l-170 492h181l91 -338l22 65q45 141 45 258v15h168v-7q0 -121 -71 -293l-80 -192h-186z" />
    <glyph glyph-name="xi" unicode="&#x3be;" horiz-adv-x="432" 
d="M256 -197l-63 69q59 54 59 75q0 14 -13 26.5t-59 38.5q-87 47 -121.5 85t-34.5 84q0 105 132 153q-24 8 -39.5 15.5t-31.5 19.5t-24 28.5t-8 38.5q0 35 22.5 58t50.5 33h-89v139h383v-105l-60 -12q-72 -13 -102 -29t-30 -49q0 -28 21.5 -41t73.5 -13h63v-128h-61
q-37 0 -62.5 -8.5t-35.5 -22t-13.5 -24t-3.5 -21.5q0 -21 14.5 -36t50.5 -38q87 -55 109 -79t22 -62q0 -91 -150 -195z" />
    <glyph glyph-name="omicron" unicode="&#x3bf;" horiz-adv-x="540" 
d="M516 246q0 -115 -64.5 -185.5t-181.5 -70.5t-181.5 70.5t-64.5 185.5t64.5 185.5t181.5 70.5t181.5 -70.5t64.5 -185.5zM352 246q0 132 -82 132t-82 -132t82 -132t82 132z" />
    <glyph glyph-name="pi" unicode="&#x3c0;" horiz-adv-x="677" 
d="M269 0h-162v363h-89v129h632v-129h-106v-213q0 -33 35 -33q26 0 52 7l13 -114q-55 -20 -113 -20q-74 0 -111.5 40.5t-37.5 109.5v223h-113v-363z" />
    <glyph glyph-name="rho" unicode="&#x3c1;" horiz-adv-x="555" 
d="M38 -178v416q0 130 67 197t182 67q59 0 104.5 -19t71 -46.5t42 -63.5t21.5 -66t5 -59q0 -34 -4 -65t-17.5 -68t-35.5 -63t-61.5 -44t-91.5 -18q-68 0 -113 47v-215h-170zM208 251v-31q0 -100 75 -100t75 120q0 65 -16.5 98.5t-57.5 33.5q-40 0 -58 -29t-18 -92z" />
    <glyph glyph-name="uni03C2" unicode="&#x3c2;" horiz-adv-x="459" 
d="M247 -197l-63 69q59 48 59 77q0 18 -9 28t-50 40q-83 59 -121.5 110t-38.5 135q0 101 68.5 170.5t176.5 69.5q104 0 166 -30l-25 -127q-52 25 -111 25q-51 0 -78.5 -28t-27.5 -70q0 -44 22 -74.5t97 -80.5q49 -33 68 -59.5t19 -58.5q0 -51 -36 -95.5t-116 -100.5z" />
    <glyph glyph-name="sigma" unicode="&#x3c3;" horiz-adv-x="570" 
d="M269 -10q-119 0 -182 72t-63 174q0 126 75 191t198 65h258v-147h-87q37 -46 37 -113q0 -108 -60.5 -175t-175.5 -67zM269 120q76 0 76 128q0 74 -28 111q-19 5 -41 5q-11 0 -22.5 -4.5t-25.5 -16.5t-22.5 -38.5t-8.5 -65.5q0 -59 15.5 -89t56.5 -30z" />
    <glyph glyph-name="tau" unicode="&#x3c4;" horiz-adv-x="484" 
d="M295 -10q-152 0 -152 150v215h-128v137h451v-137h-159v-186q0 -49 64 -49q39 0 64 4l3 -119q-71 -15 -143 -15z" />
    <glyph glyph-name="upsilon" unicode="&#x3c5;" horiz-adv-x="556" 
d="M51 214v12q0 174 -31 231l165 45q22 -37 28 -80t6 -138v-70q0 -86 64 -86q41 0 59.5 28t18.5 89q0 122 -37 212l163 45q43 -105 43 -241q0 -31 -3 -59t-17.5 -69.5t-39.5 -70.5t-74 -50.5t-116 -21.5q-229 0 -229 224z" />
    <glyph glyph-name="phi" unicode="&#x3c6;" horiz-adv-x="756" 
d="M295 -178v154q-128 16 -199.5 87t-71.5 177q0 113 72 186.5t199 81.5v108h164v-108q132 -10 202.5 -83t70.5 -186q0 -110 -70 -178t-203 -85v-154h-164zM295 104v276q-53 -4 -80.5 -40t-27.5 -95q0 -21 4.5 -41t15 -42.5t33.5 -38t55 -19.5zM459 381v-277q32 3 55.5 19.5
t34 40t15.5 43.5t5 38q0 57 -29.5 94t-80.5 42z" />
    <glyph glyph-name="chi" unicode="&#x3c7;" horiz-adv-x="606" 
d="M15 -178l219 331l-61 108q-38 67 -60.5 89t-47.5 22q-15 0 -33 -6q-3 101 -3 122q50 15 94 15q55 0 89 -22t66 -79l57 -105l103 195h173l-210 -326l64 -121q32 -61 55.5 -82t53.5 -21q32 0 49 4l3 -119q-45 -15 -96 -15q-62 0 -97.5 24t-76.5 97l-53 96l-118 -207h-170z
" />
    <glyph glyph-name="psi" unicode="&#x3c8;" horiz-adv-x="777" 
d="M317 -178v155q-131 9 -198.5 76t-67.5 205v4q0 138 -31 195l165 45q21 -39 27.5 -80.5t6.5 -132.5v-37q0 -75 21.5 -106t76.5 -39v509h163v-509q58 8 80 43.5t22 100.5q0 108 -34 206l163 44q40 -102 40 -229q0 -74 -23.5 -130.5t-63.5 -90t-86 -52t-98 -22.5v-155h-163z
" />
    <glyph glyph-name="omega" unicode="&#x3c9;" horiz-adv-x="731" 
d="M288 183v139h153v-139q0 -55 43 -55q49 0 49 80q0 110 -74 211l127 83q55 -46 88 -125.5t33 -168.5q0 -103 -54.5 -160.5t-136.5 -57.5q-44 0 -87 21t-66 71q-27 -57 -64 -74.5t-88 -17.5q-83 0 -135 60.5t-52 168.5q0 83 32 157t88 126l128 -82q-74 -87 -74 -213
q0 -44 15.5 -61.5t35.5 -17.5q39 0 39 55z" />
    <glyph glyph-name="iotadieresis" unicode="&#x3ca;" horiz-adv-x="334" 
d="M50 492v-355q0 -147 150 -147q66 0 118 15q-3 101 -3 119q-25 -4 -56 -4q-23 0 -31 9.5t-8 31.5v331h-170zM163 627q0 33 21 54.5t57 21.5t57 -21.5t21 -54.5q0 -32 -21 -53.5t-57 -21.5t-57 21.5t-21 53.5zM-40 627q0 33 21 54.5t57 21.5t57 -21.5t21 -54.5
q0 -32 -21 -53.5t-57 -21.5t-57 21.5t-21 53.5z" />
    <glyph glyph-name="upsilondieresis" unicode="&#x3cb;" horiz-adv-x="556" 
d="M51 226v-12q0 -224 229 -224q67 0 116 21.5t74 50.5t39.5 70.5t17.5 69.5t3 59q0 136 -43 241l-163 -45q37 -90 37 -212q0 -61 -18.5 -89t-59.5 -28q-64 0 -64 86v70q0 95 -6 138t-28 80l-165 -45q31 -57 31 -231zM291 627q0 33 21 54.5t57 21.5t57 -21.5t21 -54.5
q0 -32 -21 -53.5t-57 -21.5t-57 21.5t-21 53.5zM88 627q0 33 21 54.5t57 21.5t57 -21.5t21 -54.5q0 -32 -21 -53.5t-57 -21.5t-57 21.5t-21 53.5z" />
    <glyph glyph-name="omicrontonos" unicode="&#x3cc;" horiz-adv-x="540" 
d="M516 246q0 -115 -64.5 -185.5t-181.5 -70.5t-181.5 70.5t-64.5 185.5t64.5 185.5t181.5 70.5t181.5 -70.5t64.5 -185.5zM352 246q0 132 -82 132t-82 -132t82 -132t82 132zM191 550l27 152h212l-88 -152h-151z" />
    <glyph glyph-name="upsilontonos" unicode="&#x3cd;" horiz-adv-x="556" 
d="M51 214v12q0 174 -31 231l165 45q22 -37 28 -80t6 -138v-70q0 -86 64 -86q41 0 59.5 28t18.5 89q0 122 -37 212l163 45q43 -105 43 -241q0 -31 -3 -59t-17.5 -69.5t-39.5 -70.5t-74 -50.5t-116 -21.5q-229 0 -229 224zM195 550l27 152h212l-88 -152h-151z" />
    <glyph glyph-name="omegatonos" unicode="&#x3ce;" horiz-adv-x="731" 
d="M288 183v139h153v-139q0 -55 43 -55q49 0 49 80q0 110 -74 211l127 83q55 -46 88 -125.5t33 -168.5q0 -103 -54.5 -160.5t-136.5 -57.5q-44 0 -87 21t-66 71q-27 -57 -64 -74.5t-88 -17.5q-83 0 -135 60.5t-52 168.5q0 83 32 157t88 126l128 -82q-74 -87 -74 -213
q0 -44 15.5 -61.5t35.5 -17.5q39 0 39 55zM291 550l27 152h212l-88 -152h-151z" />
    <glyph glyph-name="uni0400" unicode="&#x400;" 
d="M402 725h-164l-132 132h226zM60 0v666h477v-146h-308v-107h289v-146h-289v-121h308v-146h-477z" />
    <glyph glyph-name="afii10023" unicode="&#x401;" 
d="M60 0v666h477v-146h-308v-107h289v-146h-289v-121h308v-146h-477zM330 799q0 34 20 53.5t58 19.5t58 -19.5t20 -53.5t-20.5 -54t-57.5 -20t-57.5 20t-20.5 54zM118 799q0 34 20 53.5t58 19.5t58 -19.5t20 -53.5t-20.5 -54t-57.5 -20t-57.5 20t-20.5 54z" />
    <glyph glyph-name="afii10051" unicode="&#x402;" horiz-adv-x="808" 
d="M562 -10q-69 0 -128 21l30 132q31 -13 63 -13q44 0 66 26t22 72t-29 69t-77 23q-55 0 -96 -29.5t-41 -82.5v-208h-169v520h-181v146h530v-146h-180v-133q28 34 77 60t115 26q96 0 158 -61t62 -172q0 -106 -55.5 -178t-166.5 -72z" />
    <glyph glyph-name="afii10052" unicode="&#x403;" horiz-adv-x="549" 
d="M60 0v666h470v-146h-301v-520h-169zM494 857l-132 -132h-164l70 132h226z" />
    <glyph glyph-name="afii10053" unicode="&#x404;" horiz-adv-x="593" 
d="M484 267h-281q31 -134 203 -134q77 0 136 26l24 -130q-74 -41 -199 -41q-152 0 -246 91.5t-94 253.5t94 253.5t246 91.5q125 0 199 -41l-24 -130q-59 26 -136 26q-162 0 -199 -120h277v-146z" />
    <glyph glyph-name="afii10054" unicode="&#x405;" 
d="M556 205q0 -103 -72 -160t-205 -57q-61 0 -129.5 13.5t-117.5 35.5l35 135q112 -45 211 -45q109 0 109 57q0 32 -24 45.5t-98 26.5q-118 21 -176.5 68t-58.5 141q0 213 267 213q127 0 235 -48l-30 -134q-104 45 -207 45q-51 0 -73.5 -12t-22.5 -43q0 -30 24.5 -42.5
t108.5 -30.5q119 -26 171.5 -70t52.5 -138z" />
    <glyph glyph-name="afii10055" unicode="&#x406;" horiz-adv-x="299" 
d="M65 0v666h169v-666h-169z" />
    <glyph glyph-name="afii10056" unicode="&#x407;" horiz-adv-x="299" 
d="M65 0v666h169v-666h-169zM234 719q-38 0 -58.5 20t-20.5 54t20.5 53.5t58.5 19.5t58 -19.5t20 -53.5t-20.5 -54t-57.5 -20zM66 719q-37 0 -57.5 20t-20.5 54t20 53.5t58 19.5t58 -19.5t20 -53.5t-20.5 -54t-57.5 -20z" />
    <glyph glyph-name="afii10057" unicode="&#x408;" horiz-adv-x="404" 
d="M18 13l15 129q40 -12 84 -12q58 0 58 52v484h169v-487q0 -86 -48.5 -137.5t-140.5 -51.5q-77 0 -137 23z" />
    <glyph glyph-name="afii10058" unicode="&#x409;" horiz-adv-x="1001" 
d="M327 520v-68q0 -173 -25.5 -275.5t-73.5 -144.5t-127 -42q-58 0 -108 16l16 132q26 -8 46 -8q54 0 79 68t25 236v232h475v-234h120q112 0 171.5 -59t59.5 -157q0 -96 -64.5 -156t-166.5 -60h-289v520h-138zM634 135h97q37 0 62 22t25 59q0 38 -24 59.5t-64 21.5h-96v-162
z" />
    <glyph glyph-name="afii10059" unicode="&#x40a;" horiz-adv-x="974" 
d="M60 0v666h169v-237h209v237h169v-237h121q111 0 170.5 -59t59.5 -157q0 -95 -64.5 -154t-165.5 -59h-290v289h-209v-289h-169zM607 135h97q38 0 62.5 20t24.5 57t-24 57t-63 20h-97v-154z" />
    <glyph glyph-name="afii10060" unicode="&#x40b;" horiz-adv-x="817" 
d="M371 520v-133q27 33 77 59.5t117 26.5q204 0 204 -236v-237h-169v194q0 62 -20 94t-75 32q-52 0 -93 -29.5t-41 -82.5v-208h-169v520h-180v146h529v-146h-180z" />
    <glyph glyph-name="afii10061" unicode="&#x40c;" horiz-adv-x="661" 
d="M60 0v666h169v-293l204 293h216l-247 -325l251 -341h-215l-209 306v-306h-169zM538 857l-132 -132h-164l70 132h226z" />
    <glyph glyph-name="uni040D" unicode="&#x40d;" horiz-adv-x="726" 
d="M60 0v666h164v-384l274 384h168v-666h-164v384l-274 -384h-168zM458 725h-164l-132 132h226z" />
    <glyph glyph-name="afii10062" unicode="&#x40e;" horiz-adv-x="653" 
d="M141 0l113 188l-256 478h197l145 -317l131 317h179l-312 -666h-197zM392 862h127q0 -68 -49 -102.5t-135 -34.5t-135.5 34.5t-49.5 102.5h128q0 -45 57 -45t57 45z" />
    <glyph glyph-name="afii10145" unicode="&#x40f;" horiz-adv-x="715" 
d="M281 -158v158h-221v666h169v-524h257v524h169v-666h-220v-158h-154z" />
    <glyph glyph-name="afii10017" unicode="&#x410;" horiz-adv-x="672" 
d="M2 0l239 666h190l239 -666h-172l-42 136h-240l-42 -136h-172zM336 520l-75 -244h150z" />
    <glyph glyph-name="afii10018" unicode="&#x411;" horiz-adv-x="630" 
d="M60 0v666h518v-146h-349v-103h148q112 0 171 -55.5t59 -152.5q0 -96 -63.5 -152.5t-166.5 -56.5h-317zM229 135h124q38 0 62.5 19t24.5 55q0 73 -87 73h-124v-147z" />
    <glyph glyph-name="afii10019" unicode="&#x412;" horiz-adv-x="629" 
d="M60 0v666h326q92 0 144 -44t52 -120q0 -56 -29 -98.5t-86 -62.5q64 -13 101 -52.5t37 -104.5q0 -82 -59 -133t-157 -51h-329zM227 399h112q38 0 57 19.5t19 52.5q0 64 -80 64h-108v-136zM227 131h138q73 0 73 71q0 31 -21 48.5t-58 17.5h-132v-137z" />
    <glyph glyph-name="afii10020" unicode="&#x413;" horiz-adv-x="549" 
d="M60 0v666h470v-146h-301v-520h-169z" />
    <glyph glyph-name="afii10021" unicode="&#x414;" horiz-adv-x="707" 
d="M-4 -158v300h9q75 0 110 66t35 226v232h463v-524h84v-300h-154v158h-393v-158h-154zM240 142h204v382h-125v-65q0 -227 -79 -317z" />
    <glyph glyph-name="afii10022" unicode="&#x415;" 
d="M60 0v666h477v-146h-308v-107h289v-146h-289v-121h308v-146h-477z" />
    <glyph glyph-name="afii10024" unicode="&#x416;" horiz-adv-x="994" 
d="M8 0l225 341l-221 325h207l160 -256h34v256h168v-256h34l160 256h207l-221 -325l225 -341h-207l-158 259h-40v-259h-168v259h-41l-158 -259h-206z" />
    <glyph glyph-name="afii10025" unicode="&#x417;" horiz-adv-x="573" 
d="M243 -12q-124 0 -217 35l26 138q88 -33 169 -33q160 0 160 83q0 62 -119 62h-149v136h132q116 0 116 61q0 34 -37 51t-98 17q-76 0 -159 -34l-25 129q103 45 225 45q75 0 131 -17t92.5 -58t36.5 -104q0 -107 -125 -153q66 -13 105.5 -51.5t39.5 -103.5q0 -72 -44 -119
t-109.5 -65.5t-150.5 -18.5z" />
    <glyph glyph-name="afii10026" unicode="&#x418;" horiz-adv-x="726" 
d="M60 0v666h164v-384l274 384h168v-666h-164v384l-274 -384h-168z" />
    <glyph glyph-name="afii10027" unicode="&#x419;" horiz-adv-x="726" 
d="M60 0v666h164v-384l274 384h168v-666h-164v384l-274 -384h-168zM427 862h127q0 -68 -49 -102.5t-135 -34.5t-135.5 34.5t-49.5 102.5h128q0 -45 57 -45t57 45z" />
    <glyph glyph-name="afii10028" unicode="&#x41a;" horiz-adv-x="661" 
d="M60 0v666h169v-293l204 293h216l-247 -325l251 -341h-215l-209 306v-306h-169z" />
    <glyph glyph-name="afii10029" unicode="&#x41b;" horiz-adv-x="695" 
d="M101 -10q-58 0 -108 16l16 132q26 -8 46 -8q54 0 79 68t25 236v232h476v-666h-168v520h-140v-68q0 -173 -25.5 -275.5t-73.5 -144.5t-127 -42z" />
    <glyph glyph-name="afii10030" unicode="&#x41c;" horiz-adv-x="858" 
d="M60 0v666h169l200 -415l200 415h169v-666h-164v335l-124 -251h-162l-124 251v-335h-164z" />
    <glyph glyph-name="afii10031" unicode="&#x41d;" horiz-adv-x="695" 
d="M60 0v666h169v-256h237v256h169v-666h-169v259h-237v-259h-169z" />
    <glyph glyph-name="afii10032" unicode="&#x41e;" horiz-adv-x="704" 
d="M27 333q0 154 86 249.5t239 95.5t239 -95.5t86 -249.5t-86 -249.5t-239 -95.5t-239 95.5t-86 249.5zM352 129q78 0 117 55.5t39 148.5t-39 148.5t-117 55.5t-117 -55.5t-39 -148.5t39 -148.5t117 -55.5z" />
    <glyph glyph-name="afii10033" unicode="&#x41f;" horiz-adv-x="701" 
d="M60 0v666h581v-666h-168v520h-245v-520h-168z" />
    <glyph glyph-name="afii10034" unicode="&#x420;" horiz-adv-x="618" 
d="M60 0v666h314q103 0 166.5 -62t63.5 -161q0 -97 -65 -161.5t-165 -64.5h-145v-217h-169zM229 351h121q39 0 62 24t23 68q0 42 -24 65t-61 23h-121v-180z" />
    <glyph glyph-name="afii10035" unicode="&#x421;" horiz-adv-x="593" 
d="M196 333q0 -200 210 -200q77 0 136 26l24 -130q-74 -41 -199 -41q-152 0 -246 91.5t-94 253.5t94 253.5t246 91.5q125 0 199 -41l-24 -130q-59 26 -136 26q-210 0 -210 -200z" />
    <glyph glyph-name="afii10036" unicode="&#x422;" horiz-adv-x="573" 
d="M551 520h-180v-520h-168v520h-181v146h529v-146z" />
    <glyph glyph-name="afii10037" unicode="&#x423;" horiz-adv-x="653" 
d="M141 0l113 188l-256 478h197l145 -317l131 317h179l-312 -666h-197z" />
    <glyph glyph-name="afii10038" unicode="&#x424;" horiz-adv-x="807" 
d="M319 0v85q-141 16 -218.5 80.5t-77.5 169.5q0 107 76 171.5t220 78.5v81h169v-81q145 -14 220.5 -78.5t75.5 -171.5q0 -106 -77.5 -170.5t-218.5 -79.5v-85h-169zM488 226q132 20 132 109q0 91 -132 109v-218zM319 226v218q-132 -18 -132 -109q0 -89 132 -109z" />
    <glyph glyph-name="afii10039" unicode="&#x425;" horiz-adv-x="603" 
d="M595 666l-202 -326l210 -340h-180l-121 202l-122 -202h-180l211 340l-202 326h180l113 -189l113 189h180z" />
    <glyph glyph-name="afii10040" unicode="&#x426;" horiz-adv-x="713" 
d="M549 -158v158h-489v666h169v-524h221v524h169v-524h84v-300h-154z" />
    <glyph glyph-name="afii10041" unicode="&#x427;" horiz-adv-x="675" 
d="M446 0v277q-27 -33 -77 -59.5t-117 -26.5q-204 0 -204 236v239h169v-196q0 -62 20 -94t75 -32q52 0 93 29.5t41 82.5v210h169v-666h-169z" />
    <glyph glyph-name="afii10042" unicode="&#x428;" horiz-adv-x="943" 
d="M60 0v666h169v-524h158v524h169v-524h158v524h169v-666h-823z" />
    <glyph glyph-name="afii10043" unicode="&#x429;" horiz-adv-x="977" 
d="M813 -158v158h-753v666h169v-524h158v524h169v-524h158v524h169v-524h84v-300h-154z" />
    <glyph glyph-name="afii10044" unicode="&#x42a;" horiz-adv-x="783" 
d="M241 0v520h-219v146h388v-234h127q111 0 170.5 -59t59.5 -157q0 -96 -64 -156t-166 -60h-296zM410 135h103q37 0 62 22t25 59q0 38 -24 59.5t-63 21.5h-103v-162z" />
    <glyph glyph-name="afii10045" unicode="&#x42b;" horiz-adv-x="882" 
d="M653 0v666h169v-666h-169zM229 135h98q37 0 61.5 22t24.5 59q0 38 -23.5 59.5t-62.5 21.5h-98v-162zM60 0v666h169v-234h122q111 0 170 -59t59 -157q0 -96 -63.5 -156t-165.5 -60h-291z" />
    <glyph glyph-name="afii10046" unicode="&#x42c;" horiz-adv-x="623" 
d="M229 135h125q37 0 61.5 22t24.5 59q0 38 -23.5 59.5t-62.5 21.5h-125v-162zM60 0v666h169v-234h149q111 0 170 -59t59 -157q0 -96 -63.5 -156t-165.5 -60h-318z" />
    <glyph glyph-name="afii10047" unicode="&#x42d;" horiz-adv-x="593" 
d="M110 267v146h277q-36 120 -200 120q-77 0 -136 -26l-24 130q74 41 199 41q156 0 248 -91t92 -254q0 -162 -94 -253.5t-246 -91.5q-125 0 -199 41l24 130q59 -26 136 -26q170 0 203 134h-280z" />
    <glyph glyph-name="afii10048" unicode="&#x42e;" horiz-adv-x="912" 
d="M607 -12q-118 0 -188 73t-86 198h-104v-259h-169v666h169v-256h106q16 124 85.5 196t186.5 72q134 0 206 -95t72 -250t-72 -250t-206 -95zM607 129q109 0 109 204t-109 204t-109 -204t109 -204z" />
    <glyph glyph-name="afii10049" unicode="&#x42f;" horiz-adv-x="665" 
d="M1 0l169 242q-58 28 -92 81t-34 121q0 102 62 162t167 60h332v-666h-169v222h-85l-139 -222h-211zM301 355h135v176h-135q-39 0 -63.5 -23t-24.5 -64q0 -43 24.5 -66t63.5 -23z" />
    <glyph glyph-name="afii10065" unicode="&#x430;" horiz-adv-x="550" 
d="M502 0h-156v59q-53 -69 -156 -69q-76 0 -114.5 41.5t-38.5 112.5q0 150 178 150h123v19q0 29 -20 40.5t-62 11.5q-80 0 -157 -37l-28 125q85 49 211 49q111 0 165.5 -42t54.5 -136v-324zM338 174v16h-95q-49 0 -49 -43q0 -46 58 -46q86 0 86 73z" />
    <glyph glyph-name="afii10066" unicode="&#x431;" horiz-adv-x="543" 
d="M275 -10q-69 0 -119.5 26t-77.5 68.5t-39 88t-12 93.5q0 189 96 279t347 131l23 -125q-146 -26 -216 -57t-98 -97q54 48 140 48q96 0 148 -61t52 -166q0 -99 -68 -163.5t-176 -64.5zM275 114q80 0 80 104q0 103 -83 103q-81 0 -81 -104q0 -48 24.5 -75.5t59.5 -27.5z" />
    <glyph glyph-name="afii10067" unicode="&#x432;" horiz-adv-x="522" 
d="M213 298h73q20 0 29.5 13t9.5 29q0 35 -44 35h-68v-77zM213 117h88q42 0 42 41q0 16 -12 27.5t-33 11.5h-85v-80zM55 0v492h259q81 0 125.5 -32t44.5 -89q0 -92 -98 -119q117 -15 117 -118q0 -60 -50 -97t-136 -37h-262z" />
    <glyph glyph-name="afii10068" unicode="&#x433;" horiz-adv-x="443" 
d="M55 0v492h378v-127h-214v-365h-164z" />
    <glyph glyph-name="afii10069" unicode="&#x434;" horiz-adv-x="598" 
d="M4 -158v285h8q36 0 56.5 13.5t33 57t12.5 122.5v172h403v-365h75v-285h-151v158h-286v-158h-151zM212 127h141v238h-81v-26q0 -149 -60 -212z" />
    <glyph glyph-name="afii10070" unicode="&#x435;" horiz-adv-x="513" 
d="M486 194h-295q7 -43 31.5 -64t76.5 -21q81 0 157 35l28 -109q-87 -45 -206 -45q-126 0 -190 66.5t-64 189.5q0 110 62 183t184 73q109 0 162.5 -63.5t53.5 -178.5v-66zM268 394q-69 0 -78 -95h143v13q0 82 -65 82z" />
    <glyph glyph-name="afii10072" unicode="&#x436;" horiz-adv-x="796" 
d="M-2 0l162 252l-159 240h186l109 -186h20v186h164v-186h21l110 186h185l-159 -240l161 -252h-184l-109 189h-25v-189h-164v189h-25l-108 -189h-185z" />
    <glyph glyph-name="afii10073" unicode="&#x437;" horiz-adv-x="453" 
d="M185 -10q-98 0 -173 26l25 118q71 -23 131 -23q106 0 106 46q0 39 -79 39h-110v108h95q76 0 76 38q0 39 -92 39q-58 0 -116 -21l-19 109q83 33 175 33q96 0 153.5 -33t57.5 -101q0 -41 -27.5 -71t-78.5 -43q125 -16 125 -115q0 -77 -68.5 -113t-180.5 -36z" />
    <glyph glyph-name="afii10074" unicode="&#x438;" horiz-adv-x="599" 
d="M55 0v492h153v-257l181 257h155v-492h-153v257l-181 -257h-155z" />
    <glyph glyph-name="afii10075" unicode="&#x439;" horiz-adv-x="599" 
d="M481 704q0 -74 -49.5 -114.5t-129.5 -40.5t-129 40.5t-49 114.5h117q0 -61 61 -61q62 0 62 61h117zM55 0v492h153v-257l181 257h155v-492h-153v257l-181 -257h-155z" />
    <glyph glyph-name="afii10076" unicode="&#x43a;" horiz-adv-x="549" 
d="M55 0v492h164v-218l144 218h185l-170 -240l173 -252h-187l-145 227v-227h-164z" />
    <glyph glyph-name="afii10077" unicode="&#x43b;" horiz-adv-x="573" 
d="M90 -7q-50 0 -89 13l13 121q17 -5 38 -5q41 0 54.5 40t13.5 158v172h398v-492h-164v365h-76v-32q0 -190 -43.5 -265t-144.5 -75z" />
    <glyph glyph-name="afii10078" unicode="&#x43c;" horiz-adv-x="701" 
d="M55 0v492h173l122 -282l123 282h173v-492h-154v242l-74 -175h-135l-74 175v-242h-154z" />
    <glyph glyph-name="afii10079" unicode="&#x43d;" horiz-adv-x="589" 
d="M55 0v492h164v-180h151v180h164v-492h-164v183h-151v-183h-164z" />
    <glyph glyph-name="afii10080" unicode="&#x43e;" horiz-adv-x="540" 
d="M516 246q0 -115 -64.5 -185.5t-181.5 -70.5t-181.5 70.5t-64.5 185.5t64.5 185.5t181.5 70.5t181.5 -70.5t64.5 -185.5zM352 246q0 132 -82 132t-82 -132t82 -132t82 132z" />
    <glyph glyph-name="afii10081" unicode="&#x43f;" horiz-adv-x="588" 
d="M55 0v492h478v-492h-164v365h-150v-365h-164z" />
    <glyph glyph-name="afii10082" unicode="&#x440;" horiz-adv-x="575" 
d="M356 -10q-85 0 -137 73v-241h-164v670h159v-63q51 73 144 73q95 0 143 -70t48 -186q0 -113 -48.5 -184.5t-144.5 -71.5zM305 120q80 0 80 126t-80 126q-46 0 -66 -31t-20 -95t20 -95t66 -31z" />
    <glyph glyph-name="afii10083" unicode="&#x441;" horiz-adv-x="460" 
d="M436 466l-23 -119q-54 25 -109 25q-63 0 -89.5 -32.5t-26.5 -93.5t26.5 -93.5t89.5 -32.5q55 0 109 25l23 -119q-59 -36 -161 -36q-125 0 -188 69t-63 187t63 187t188 69q102 0 161 -36z" />
    <glyph glyph-name="afii10084" unicode="&#x442;" horiz-adv-x="477" 
d="M156 0v365h-143v127h451v-127h-144v-365h-164z" />
    <glyph glyph-name="afii10085" unicode="&#x443;" horiz-adv-x="469" 
d="M238 165l73 327h168l-207 -670h-167l52 170l-167 500h172z" />
    <glyph glyph-name="afii10086" unicode="&#x444;" horiz-adv-x="756" 
d="M508 120q60 0 60 126t-60 126q-66 0 -66 -126t66 -126zM296 -178v220q-24 -27 -48 -39.5t-65 -12.5q-83 0 -121 71t-38 185q0 112 40.5 184t120.5 72q42 0 64 -12t47 -41v217h164v-216q23 27 47 39.5t65 12.5q84 0 122 -71t38 -185q0 -112 -40.5 -184t-120.5 -72
q-42 0 -64 12t-47 41v-221h-164zM248 120q66 0 66 126t-66 126q-60 0 -60 -126t60 -126z" />
    <glyph glyph-name="afii10087" unicode="&#x445;" horiz-adv-x="486" 
d="M480 492l-153 -246l153 -246h-168l-69 117l-68 -117h-169l153 247l-152 245h168l68 -117l68 117h169z" />
    <glyph glyph-name="afii10088" unicode="&#x446;" horiz-adv-x="600" 
d="M443 -158v158h-388v492h164v-365h136v365h164v-365h75v-285h-151z" />
    <glyph glyph-name="afii10089" unicode="&#x447;" horiz-adv-x="577" 
d="M358 0v211q-57 -78 -162 -78q-149 0 -149 168v191h164v-143q0 -36 13 -55.5t48 -19.5q32 0 59 17.5t27 48.5v152h164v-492h-164z" />
    <glyph glyph-name="afii10090" unicode="&#x448;" horiz-adv-x="778" 
d="M55 0v492h164v-365h88v365h164v-365h88v365h164v-492h-668z" />
    <glyph glyph-name="afii10091" unicode="&#x449;" horiz-adv-x="804" 
d="M647 -158v158h-592v492h164v-365h88v365h164v-365h88v365h164v-365h75v-285h-151z" />
    <glyph glyph-name="afii10092" unicode="&#x44a;" horiz-adv-x="629" 
d="M341 122h55q23 0 38 12t15 36t-14.5 36t-38.5 12h-55v-96zM177 0v365h-164v127h328v-157h85q90 0 138.5 -46t48.5 -121t-51.5 -121.5t-135.5 -46.5h-249z" />
    <glyph glyph-name="afii10093" unicode="&#x44b;" horiz-adv-x="751" 
d="M532 0v492h164v-492h-164zM219 122h43q23 0 38 12t15 36t-14.5 36t-38.5 12h-43v-96zM55 0v492h164v-157h73q90 0 138.5 -46t48.5 -121t-51.5 -121.5t-135.5 -46.5h-237z" />
    <glyph glyph-name="afii10094" unicode="&#x44c;" horiz-adv-x="527" 
d="M219 122h76q22 0 37 12t15 36q0 48 -52 48h-76v-96zM55 0v492h164v-157h106q89 0 137.5 -46t48.5 -121q0 -74 -51.5 -121t-134.5 -47h-270z" />
    <glyph glyph-name="afii10095" unicode="&#x44d;" horiz-adv-x="476" 
d="M24 26l23 117q54 -25 115 -25q97 0 119 74h-194v117h191q-24 65 -116 65q-61 0 -115 -25l-23 117q59 36 167 36q128 0 194.5 -69.5t66.5 -186.5q0 -116 -69 -186t-192 -70q-108 0 -167 36z" />
    <glyph glyph-name="afii10096" unicode="&#x44e;" horiz-adv-x="752" 
d="M505 -10q-93 0 -147.5 52t-68.5 141h-70v-183h-164v492h164v-180h72q14 88 67.5 139t146.5 51q109 0 166 -70t57 -186t-57 -186t-166 -70zM499 114q65 0 65 132t-65 132q-66 0 -66 -132t66 -132z" />
    <glyph glyph-name="afii10097" unicode="&#x44f;" horiz-adv-x="552" 
d="M4 0l115 175q-82 43 -82 144q0 80 53.5 126.5t146.5 46.5h260v-492h-164v159h-54l-93 -159h-182zM251 266h82v105h-82q-23 0 -37.5 -14t-14.5 -39q0 -24 14.5 -38t37.5 -14z" />
    <glyph glyph-name="uni0450" unicode="&#x450;" horiz-adv-x="513" 
d="M486 194h-295q7 -43 31.5 -64t76.5 -21q81 0 157 35l28 -109q-87 -45 -206 -45q-126 0 -190 66.5t-64 189.5q0 110 62 183t184 73q109 0 162.5 -63.5t53.5 -178.5v-66zM268 394q-69 0 -78 -95h143v13q0 82 -65 82zM190 550l-95 152h211l46 -152h-162z" />
    <glyph glyph-name="afii10071" unicode="&#x451;" horiz-adv-x="513" 
d="M294 627q0 33 21 54.5t57 21.5t57 -21.5t21 -54.5q0 -32 -21 -53.5t-57 -21.5t-57 21.5t-21 53.5zM91 627q0 33 21 54.5t57 21.5t57 -21.5t21 -54.5q0 -32 -21 -53.5t-57 -21.5t-57 21.5t-21 53.5zM486 194h-295q7 -43 31.5 -64t76.5 -21q81 0 157 35l28 -109
q-87 -45 -206 -45q-126 0 -190 66.5t-64 189.5q0 110 62 183t184 73q109 0 162.5 -63.5t53.5 -178.5v-66zM268 394q-69 0 -78 -95h143v13q0 82 -65 82z" />
    <glyph glyph-name="afii10099" unicode="&#x452;" horiz-adv-x="573" 
d="M328 -59q31 0 31 28v330q0 62 -57 62q-75 0 -75 -98v-263h-164v518h-56v100h56v48h164v-48h67v-100h-67v-92q48 76 144 76q152 0 152 -169v-378q0 -143 -147 -143q-43 0 -91 14l12 119q13 -4 31 -4z" />
    <glyph glyph-name="afii10100" unicode="&#x453;" horiz-adv-x="443" 
d="M163 550l46 152h211l-95 -152h-162zM55 0v492h378v-127h-214v-365h-164z" />
    <glyph glyph-name="afii10101" unicode="&#x454;" horiz-adv-x="460" 
d="M436 466l-23 -117q-54 25 -109 25q-85 0 -107 -65h175v-117h-178q19 -74 110 -74q55 0 109 25l23 -117q-59 -36 -161 -36q-125 0 -188 69t-63 187t63 187t188 69q102 0 161 -36z" />
    <glyph glyph-name="afii10102" unicode="&#x455;" horiz-adv-x="458" 
d="M435 167q0 -83 -56.5 -130t-154.5 -47q-106 0 -199 39l34 113q80 -35 163 -35q53 0 53 30q0 12 -11.5 19t-41.5 14q-113 28 -154 64.5t-41 108.5q0 159 204 159q110 0 191 -40l-30 -110q-82 33 -154 33q-51 0 -51 -24q0 -15 15 -22.5t75 -23.5q79 -21 118.5 -52.5
t39.5 -95.5z" />
    <glyph glyph-name="afii10103" unicode="&#x456;" horiz-adv-x="274" 
d="M43 629q0 41 26 68t68 27t68 -27t26 -68q0 -39 -26 -66.5t-68 -27.5t-68 27.5t-26 66.5zM219 0h-164v492h164v-492z" />
    <glyph glyph-name="afii10104" unicode="&#x457;" horiz-adv-x="274" 
d="M219 0h-164v492h164v-492zM50 540q-38 0 -60 25.5t-22 63.5q0 40 21.5 65t60.5 25q38 0 59.5 -25.5t21.5 -64.5q0 -38 -21.5 -63.5t-59.5 -25.5zM224 540q-38 0 -59.5 25.5t-21.5 63.5q0 39 21.5 64.5t59.5 25.5q37 0 59.5 -25.5t22.5 -64.5q0 -37 -22.5 -63t-59.5 -26z
" />
    <glyph glyph-name="afii10105" unicode="&#x458;" horiz-adv-x="274" 
d="M43 629q0 41 26 68t68 27t68 -27t26 -68q0 -39 -26 -66.5t-68 -27.5t-68 27.5t-26 66.5zM24 -59q31 0 31 28v523h164v-537q0 -143 -147 -143q-43 0 -91 14l12 119q13 -4 31 -4z" />
    <glyph glyph-name="afii10106" unicode="&#x459;" horiz-adv-x="799" 
d="M519 122h47q23 0 38 12t15 36t-14.5 36t-38.5 12h-47v-96zM120 492h399v-157h77q90 0 138.5 -46t48.5 -121t-51.5 -121.5t-135.5 -46.5h-241v365h-77v-32q0 -190 -43.5 -265t-144.5 -75q-50 0 -89 13l13 121q17 -5 38 -5q41 0 54.5 40t13.5 158v172z" />
    <glyph glyph-name="afii10107" unicode="&#x45a;" horiz-adv-x="807" 
d="M55 0v492h164v-166h144v166h164v-166h77q90 0 138.5 -43.5t48.5 -118.5q0 -74 -51.5 -119t-135.5 -45h-241v202h-144v-202h-164zM527 122h47q53 0 53 41q0 39 -53 39h-47v-80z" />
    <glyph glyph-name="afii10108" unicode="&#x45b;" horiz-adv-x="573" 
d="M523 0h-164v299q0 62 -57 62q-75 0 -75 -98v-263h-164v518h-56v100h56v48h164v-48h67v-100h-67v-92q48 76 144 76q152 0 152 -169v-333z" />
    <glyph glyph-name="afii10109" unicode="&#x45c;" horiz-adv-x="549" 
d="M207 550l46 152h211l-95 -152h-162zM55 0v492h164v-218l144 218h185l-170 -240l173 -252h-187l-145 227v-227h-164z" />
    <glyph glyph-name="uni045D" unicode="&#x45d;" horiz-adv-x="599" 
d="M231 550l-95 152h211l46 -152h-162zM55 0v492h153v-257l181 257h155v-492h-153v257l-181 -257h-155z" />
    <glyph glyph-name="afii10110" unicode="&#x45e;" horiz-adv-x="469" 
d="M238 165l73 327h168l-207 -670h-167l52 170l-167 500h172zM425 704q0 -74 -49.5 -114.5t-129.5 -40.5t-129 40.5t-49 114.5h117q0 -61 61 -61q62 0 62 61h117z" />
    <glyph glyph-name="afii10193" unicode="&#x45f;" horiz-adv-x="600" 
d="M225 -158v158h-170v492h164v-365h162v365h164v-492h-169v-158h-151z" />
    <glyph glyph-name="afii10146" unicode="&#x462;" horiz-adv-x="650" 
d="M90 0v484h-68v104h68v78h169v-78h175v-104h-175v-59h149q111 0 170.5 -58.5t59.5 -154.5q0 -94 -64 -153t-166 -59h-318zM259 135h125q37 0 62 20.5t25 56.5q0 37 -24 57.5t-63 20.5h-125v-155z" />
    <glyph glyph-name="afii10194" unicode="&#x463;" horiz-adv-x="542" 
d="M70 0v392h-56v100h56v174h164v-174h144v-100h-144v-57h106q89 0 137.5 -46t48.5 -121q0 -74 -51.5 -121t-134.5 -47h-270zM234 122h76q22 0 37 12t15 36q0 48 -52 48h-76v-96z" />
    <glyph glyph-name="afii10147" unicode="&#x472;" horiz-adv-x="704" 
d="M27 333q0 154 86 249.5t239 95.5t239 -95.5t86 -249.5t-86 -249.5t-239 -95.5t-239 95.5t-86 249.5zM352 129q123 0 150 138h-300q12 -65 49.5 -101.5t100.5 -36.5zM352 537q-123 0 -150 -135h299q-27 135 -149 135z" />
    <glyph glyph-name="afii10195" unicode="&#x473;" horiz-adv-x="540" 
d="M516 246q0 -115 -64.5 -185.5t-181.5 -70.5t-181.5 70.5t-64.5 185.5t64.5 185.5t181.5 70.5t181.5 -70.5t64.5 -185.5zM270 114q63 0 77 77h-155q15 -77 78 -77zM270 378q-62 0 -77 -75h154q-15 75 -77 75z" />
    <glyph glyph-name="afii10148" unicode="&#x474;" horiz-adv-x="709" 
d="M199 0l-196 666h181l116 -475l90 290q30 99 76 148t135 49q59 0 118 -23l-18 -130q-36 12 -62 12q-38 0 -58.5 -23t-35.5 -69l-153 -445h-193z" />
    <glyph glyph-name="afii10196" unicode="&#x475;" horiz-adv-x="563" 
d="M140 0l-150 492h175l73 -330l55 193q21 73 59 110t113 37q50 0 100 -18l-16 -118q-24 7 -44 7q-29 0 -43 -14t-23 -41l-110 -318h-189z" />
    <glyph glyph-name="afii10050" unicode="&#x490;" horiz-adv-x="569" 
d="M60 0v666h336v161h154v-307h-321v-520h-169z" />
    <glyph glyph-name="afii10098" unicode="&#x491;" horiz-adv-x="467" 
d="M55 0v492h251v161h151v-288h-238v-365h-164z" />
    <glyph glyph-name="Wgrave" unicode="&#x1e80;" horiz-adv-x="908" 
d="M527 725h-164l-132 132h226zM547 666l110 -389l77 389h171l-168 -666h-158l-125 482l-125 -482h-158l-168 666h171l77 -389l110 389h186z" />
    <glyph glyph-name="wgrave" unicode="&#x1e81;" horiz-adv-x="761" 
d="M465 492l76 -304l63 304h162l-137 -492h-169l-80 310l-80 -310h-168l-137 492h161l63 -304l76 304h170zM293 550l-95 152h211l46 -152h-162z" />
    <glyph glyph-name="Wacute" unicode="&#x1e82;" horiz-adv-x="908" 
d="M669 857l-132 -132h-164l70 132h226zM547 666l110 -389l77 389h171l-168 -666h-158l-125 482l-125 -482h-158l-168 666h171l77 -389l110 389h186z" />
    <glyph glyph-name="wacute" unicode="&#x1e83;" horiz-adv-x="761" 
d="M302 550l46 152h211l-95 -152h-162zM465 492l76 -304l63 304h162l-137 -492h-169l-80 310l-80 -310h-168l-137 492h161l63 -304l76 304h170z" />
    <glyph glyph-name="Wdieresis" unicode="&#x1e84;" horiz-adv-x="908" 
d="M547 666l110 -389l77 389h171l-168 -666h-158l-125 482l-125 -482h-158l-168 666h171l77 -389l110 389h186zM481 799q0 34 20 53.5t58 19.5t58 -19.5t20 -53.5t-20.5 -54t-57.5 -20t-57.5 20t-20.5 54zM269 799q0 34 20 53.5t58 19.5t58 -19.5t20 -53.5t-20.5 -54
t-57.5 -20t-57.5 20t-20.5 54z" />
    <glyph glyph-name="wdieresis" unicode="&#x1e85;" horiz-adv-x="761" 
d="M403 627q0 33 21 54.5t57 21.5t57 -21.5t21 -54.5q0 -32 -21 -53.5t-57 -21.5t-57 21.5t-21 53.5zM200 627q0 33 21 54.5t57 21.5t57 -21.5t21 -54.5q0 -32 -21 -53.5t-57 -21.5t-57 21.5t-21 53.5zM465 492l76 -304l63 304h162l-137 -492h-169l-80 310l-80 -310h-168
l-137 492h161l63 -304l76 304h170z" />
    <glyph glyph-name="Ygrave" unicode="&#x1ef2;" horiz-adv-x="577" 
d="M584 666l-211 -411v-255h-169v255l-211 411h180l116 -262l115 262h180zM382 725h-164l-132 132h226z" />
    <glyph glyph-name="ygrave" unicode="&#x1ef3;" horiz-adv-x="469" 
d="M238 165l73 327h168l-207 -670h-167l52 170l-167 500h172zM162 550l-95 152h211l46 -152h-162z" />
    <glyph glyph-name="endash" unicode="&#x2013;" horiz-adv-x="567" 
d="M521 210h-475v145h475v-145z" />
    <glyph glyph-name="emdash" unicode="&#x2014;" horiz-adv-x="801" 
d="M755 210h-709v145h709v-145z" />
    <glyph glyph-name="quoteleft" unicode="&#x2018;" horiz-adv-x="268" 
d="M0 403l116 263h137l-50 -263h-203z" />
    <glyph glyph-name="quoteright" unicode="&#x2019;" horiz-adv-x="268" 
d="M15 403l50 263h203l-116 -263h-137z" />
    <glyph glyph-name="quotesinglbase" unicode="&#x201a;" horiz-adv-x="316" 
d="M276 159l-115 -263h-137l50 263h202z" />
    <glyph glyph-name="quotedblleft" unicode="&#x201c;" horiz-adv-x="517" 
d="M249 403l111 263h142l-50 -263h-203zM0 403l116 263h137l-50 -263h-203z" />
    <glyph glyph-name="quotedblright" unicode="&#x201d;" horiz-adv-x="517" 
d="M261 403l53 263h203l-116 -263h-140zM15 403l50 263h203l-116 -263h-137z" />
    <glyph glyph-name="quotedblbase" unicode="&#x201e;" horiz-adv-x="560" 
d="M520 159l-115 -263h-137l50 263h202zM276 159l-115 -263h-137l50 263h202z" />
    <glyph glyph-name="dagger" unicode="&#x2020;" horiz-adv-x="411" 
d="M288 666v-73l-37 -87l70 35h60v-136h-60l-70 33l37 -86l-43 -290h-78l-44 290l37 86l-70 -33h-60v136h60l70 -35l-37 87v73h165z" />
    <glyph glyph-name="daggerdbl" unicode="&#x2021;" horiz-adv-x="411" 
d="M123 666h165v-73l-37 -87l70 35h60v-136h-60l-70 33l37 -86v-38l-37 -86l70 33h60v-136h-60l-70 35l37 -87v-73h-165v73l37 87l-70 -35h-60v136h60l70 -33l-37 86v38l37 86l-70 -33h-60v136h60l70 -35l-37 87v73z" />
    <glyph glyph-name="bullet" unicode="&#x2022;" horiz-adv-x="370" 
d="M334 334q0 -60 -41 -102t-108 -42q-66 0 -107.5 42t-41.5 102q0 61 41 103t108 42t108 -42t41 -103z" />
    <glyph glyph-name="ellipsis" unicode="&#x2026;" horiz-adv-x="855" 
d="M50 83q0 41 25.5 66t66.5 25t67 -25t26 -66t-26 -66t-67 -25t-66.5 25t-25.5 66zM335 83q0 41 25.5 66t66.5 25t67 -25t26 -66t-26 -66t-67 -25t-66.5 25t-25.5 66zM620 83q0 41 25.5 66t66.5 25t67 -25t26 -66t-26 -66t-67 -25t-66.5 25t-25.5 66z" />
    <glyph glyph-name="perthousand" unicode="&#x2030;" horiz-adv-x="1291" 
d="M202 306q-84 0 -130.5 50.5t-46.5 134.5t46.5 134.5t130.5 50.5t130 -50.5t46 -134.5t-46 -134.5t-130 -50.5zM218 0l322 666h140l-323 -666h-139zM202 403q28 0 40.5 20t12.5 68t-12.5 68t-40.5 20t-41 -20t-13 -68t13 -68t41 -20zM696 -10q-84 0 -130.5 50.5
t-46.5 134.5t46.5 134.5t130.5 50.5t130 -50.5t46 -134.5t-46 -134.5t-130 -50.5zM696 87q28 0 40.5 20t12.5 68t-12.5 68t-40.5 20t-41 -20t-13 -68t13 -68t41 -20zM1095 -10q-84 0 -130.5 50.5t-46.5 134.5t46.5 134.5t130.5 50.5t130 -50.5t46 -134.5t-46 -134.5
t-130 -50.5zM1095 87q28 0 40.5 20t12.5 68t-12.5 68t-40.5 20t-41 -20t-13 -68t13 -68t41 -20z" />
    <glyph glyph-name="guilsinglleft" unicode="&#x2039;" horiz-adv-x="378" 
d="M353 458l-147 -208l147 -208h-190l-148 208l148 208h190z" />
    <glyph glyph-name="guilsinglright" unicode="&#x203a;" horiz-adv-x="378" 
d="M215 458l148 -208l-148 -208h-190l147 208l-147 208h190z" />
    <glyph glyph-name="fraction" unicode="&#x2044;" horiz-adv-x="469" 
d="M466 666l-332 -666h-131l332 666h131z" />
    <glyph glyph-name="Euro" unicode="&#x20ac;" horiz-adv-x="576" 
d="M27 367v109h74q52 200 271 200q94 0 171 -35l-23 -120q-56 24 -125 24q-103 0 -130 -69h186v-109h-202v-68h202v-109h-186q14 -37 44.5 -53t85.5 -16q69 0 125 24l23 -120q-77 -35 -171 -35q-219 0 -271 200h-74v109h58v68h-58z" />
    <glyph glyph-name="afii61352" unicode="&#x2116;" horiz-adv-x="1064" 
d="M60 0v666h168l274 -385v385h164v-666h-168l-274 385v-385h-164zM1034 507q0 -77 -42 -122t-123 -45t-122.5 45t-41.5 122t41.5 123t122.5 46t123 -46t42 -123zM920 507q0 83 -51 83q-50 0 -50 -83q0 -81 50 -81q51 0 51 81zM720 199v96h299v-96h-299z" />
    <glyph glyph-name="trademark" unicode="&#x2122;" horiz-adv-x="729" 
d="M455 398l-45 105v-161h-86v324h101l76 -185l77 185h101v-324h-87v161l-44 -105h-93zM20 666h259v-78h-83v-246h-93v246h-83v78z" />
    <glyph glyph-name="Omega" unicode="&#x2126;" horiz-adv-x="761" 
d="M677 376q0 -75 -23 -132.5t-68 -113.5h85v-130h-261v130q43 37 73 98.5t30 132.5q0 187 -159 187q-160 0 -160 -187q0 -71 30 -132.5t73 -98.5v-130h-261v130h85q-45 56 -68 113.5t-23 132.5q0 139 86 220.5t238 81.5t237.5 -81.5t85.5 -220.5z" />
    <glyph glyph-name="estimated" unicode="&#x212e;" horiz-adv-x="774" 
d="M744 321h-572v-221q88 -77 216 -77q85 0 154 29.5t136 93.5l24 -25q-142 -131 -315 -131q-153 0 -255 101t-102 252q0 141 105 237t252 96q145 0 251 -97t106 -235v-23zM387 643q-125 0 -215 -79v-211h430v211q-100 79 -215 79z" />
    <glyph glyph-name="partialdiff" unicode="&#x2202;" horiz-adv-x="573" 
d="M247 433q93 0 143 -54q-2 164 -159 164q-72 0 -131 -31l-34 117q82 47 192 47q136 0 209.5 -86.5t73.5 -237.5q0 -157 -71 -259.5t-204 -102.5q-104 0 -171.5 60t-67.5 162q0 106 62.5 163.5t157.5 57.5zM187 211q0 -45 23 -71t67 -26q41 0 66 26.5t25 72.5
q0 41 -24 65.5t-65 24.5q-45 0 -68.5 -25t-23.5 -67z" />
    <glyph glyph-name="Delta" unicode="&#x2206;" horiz-adv-x="700" 
d="M423 666l259 -666h-664l258 666h147zM469 129l-119 352l-120 -352h239z" />
    <glyph glyph-name="product" unicode="&#x220f;" horiz-adv-x="815" 
d="M307 536v-714h-164v714h-121v130h771v-130h-121v-714h-164v714h-201z" />
    <glyph glyph-name="summation" unicode="&#x2211;" horiz-adv-x="555" 
d="M449 244l-221 -292h304v-130h-489v130l222 292l-222 292v130h489v-130h-304z" />
    <glyph glyph-name="minus" unicode="&#x2212;" horiz-adv-x="548" 
d="M45 255v136h458v-136h-458z" />
    <glyph glyph-name="radical" unicode="&#x221a;" horiz-adv-x="715" 
d="M67 161l-50 129l238 93l118 -325l143 608h162l-202 -766h-189l-122 303z" />
    <glyph glyph-name="infinity" unicode="&#x221e;" horiz-adv-x="917" 
d="M458 220q-92 -94 -215 -94q-91 0 -148.5 53.5t-57.5 143.5t57.5 143.5t148.5 53.5q123 0 215 -94q94 94 216 94q91 0 148.5 -53.5t57.5 -143.5t-57.5 -143.5t-148.5 -53.5q-122 0 -216 94zM532 323q52 -68 120 -68q34 0 54 18.5t20 49.5t-20 49.5t-54 18.5
q-68 0 -120 -68zM384 323q-52 68 -120 68q-33 0 -53 -18.5t-20 -49.5t20 -49.5t53 -18.5q68 0 120 68z" />
    <glyph glyph-name="integral" unicode="&#x222b;" horiz-adv-x="367" 
d="M254 516v-551q0 -66 -41 -109.5t-114 -43.5q-59 0 -101 15l14 117q16 -5 40 -5q38 0 38 34v549q0 154 158 154q56 0 101 -17l-11 -116q-24 6 -49 6q-35 0 -35 -33z" />
    <glyph glyph-name="approxequal" unicode="&#x2248;" horiz-adv-x="611" 
d="M417 120q-44 0 -116 34q-67 31 -91 31q-43 0 -100 -51l-68 87q47 50 84.5 71.5t94.5 21.5q13 0 24 -1.5t26 -7t20.5 -7t24.5 -10.5l21 -10q63 -28 85 -28q41 0 91 38l61 -92q-69 -76 -157 -76zM417 332q-44 0 -116 34q-67 31 -91 31q-43 0 -100 -51l-68 87
q47 50 84.5 71.5t94.5 21.5q13 0 24 -1.5t26 -7t20.5 -7t24.5 -10.5l21 -10q63 -28 85 -28q41 0 91 38l61 -92q-69 -76 -157 -76z" />
    <glyph glyph-name="notequal" unicode="&#x2260;" horiz-adv-x="558" 
d="M50 367v136h245l43 89h150l-43 -89h63v-136h-133l-42 -88h175v-136h-243l-44 -89h-150l44 89h-65v136h133l42 88h-175z" />
    <glyph glyph-name="lessequal" unicode="&#x2264;" horiz-adv-x="549" 
d="M504 173l-458 127v136l458 127v-145l-278 -50l278 -50v-145zM504 0h-459v129h459v-129z" />
    <glyph glyph-name="greaterequal" unicode="&#x2265;" horiz-adv-x="549" 
d="M503 300l-458 -127v145l278 50l-278 50v145l458 -127v-136zM504 129v-129h-459v129h459z" />
    <glyph glyph-name="lozenge" unicode="&#x25ca;" horiz-adv-x="639" 
d="M405 666l206 -333l-206 -333h-171l-206 333l206 333h171zM202 333l118 -198l118 198l-118 198z" />
    <glyph glyph-name="apple" unicode="&#xf8ff;" horiz-adv-x="370" 
d="M334 334q0 -60 -41 -102t-108 -42q-66 0 -107.5 42t-41.5 102q0 61 41 103t108 42t108 -42t41 -103z" />
    <glyph glyph-name="acute.case" horiz-adv-x="426" 
d="M361 857l-132 -132h-164l70 132h226z" />
    <glyph glyph-name="breve.case" horiz-adv-x="499" 
d="M307 862h127q0 -68 -49 -102.5t-135 -34.5t-135.5 34.5t-49.5 102.5h128q0 -45 57 -45t57 45z" />
    <glyph glyph-name="caron.case" horiz-adv-x="519" 
d="M454 857l-118 -132h-154l-117 132h155l39 -45l40 45h155z" />
    <glyph glyph-name="circumflex.case" horiz-adv-x="519" 
d="M336 857l118 -132h-155l-40 44l-39 -44h-155l117 132h154z" />
    <glyph glyph-name="dieresis.case" horiz-adv-x="498" 
d="M277 799q0 34 20 53.5t58 19.5t58 -19.5t20 -53.5t-20.5 -54t-57.5 -20t-57.5 20t-20.5 54zM65 799q0 34 20 53.5t58 19.5t58 -19.5t20 -53.5t-20.5 -54t-57.5 -20t-57.5 20t-20.5 54z" />
    <glyph glyph-name="dotaccent.case" horiz-adv-x="319" 
d="M65 819q0 41 26 68t68 27t68.5 -27.5t26.5 -67.5q0 -39 -26.5 -66.5t-68.5 -27.5t-68 27.5t-26 66.5z" />
    <glyph glyph-name="grave.case" horiz-adv-x="426" 
d="M361 725h-164l-132 132h226z" />
    <glyph glyph-name="hungarumlaut.case" horiz-adv-x="563" 
d="M498 857l-80 -132h-155l46 132h189zM273 857l-61 -132h-147l31 132h177z" />
    <glyph glyph-name="macron.case" horiz-adv-x="497" 
d="M432 728h-367v127h367v-127z" />
    <glyph glyph-name="ring.case" horiz-adv-x="344" 
d="M279 817q0 -39 -27.5 -65.5t-79.5 -26.5t-79.5 26.5t-27.5 65.5t27.5 66t79.5 27t79.5 -27t27.5 -66zM134 817q0 -35 38 -35t38 35q0 36 -38 36t-38 -36z" />
    <glyph glyph-name="tilde.case" horiz-adv-x="550" 
d="M381 892l104 -37q-10 -32 -16.5 -48t-20 -38.5t-33 -32.5t-45.5 -10q-24 0 -82 22t-75 22t-25 -11t-16 -34l-107 38q20 69 48.5 99t85.5 30q29 0 80.5 -21.5t63.5 -21.5q25 0 38 43z" />
    <glyph glyph-name="Alphatonos.d" horiz-adv-x="672" 
d="M2 0l239 666h190l239 -666h-172l-42 136h-240l-42 -136h-172zM336 520l-75 -244h150z" />
    <glyph glyph-name="Epsilontonos.d" 
d="M60 0v666h477v-146h-308v-107h289v-146h-289v-121h308v-146h-477z" />
    <glyph glyph-name="Etatonos.d" horiz-adv-x="695" 
d="M60 0v666h169v-256h237v256h169v-666h-169v259h-237v-259h-169z" />
    <glyph glyph-name="Iotatonos.d" horiz-adv-x="299" 
d="M65 0v666h169v-666h-169z" />
    <glyph glyph-name="Omicrontonos.d" horiz-adv-x="700" 
d="M25 333q0 154 86 249.5t239 95.5t239 -95.5t86 -249.5t-86 -249.5t-239 -95.5t-239 95.5t-86 249.5zM350 129q78 0 117 55t39 149t-39 149t-117 55t-117 -55t-39 -149t39 -149t117 -55z" />
    <glyph glyph-name="Upsilontonos.d" horiz-adv-x="577" 
d="M584 666l-211 -411v-255h-169v255l-211 411h180l116 -262l115 262h180z" />
    <glyph glyph-name="Omegatonos.d" horiz-adv-x="761" 
d="M677 376q0 -75 -23 -132.5t-68 -113.5h85v-130h-261v130q43 37 73 98.5t30 132.5q0 187 -159 187q-160 0 -160 -187q0 -71 30 -132.5t73 -98.5v-130h-261v130h85q-45 56 -68 113.5t-23 132.5q0 139 86 220.5t238 81.5t237.5 -81.5t85.5 -220.5z" />
    </font>
</defs>
</svg>
