<svg xmlns="http://www.w3.org/2000/svg" xmlns:xlink="http://www.w3.org/1999/xlink" width="88" height="71" viewBox="0 0 88 71"><defs><path id="iq0mb" d="M500.6 1597c0-1 .8-1.8 1.8-1.8h25.2c1 0 1.8.8 1.8 1.8v5.4h5.4v-9a3.6 3.6 0 0 0-3.6-3.6h-32.4a3.6 3.6 0 0 0-3.6 3.6v9h5.4z"/><path id="iq0mc" d="M514.71 1622.72a2.7 2.7 0 0 1 2.7 2.7v7.35a2.7 2.7 0 0 1-5.4 0v-7.35a2.7 2.7 0 0 1 2.7-2.7"/><path id="iq0ma" d="M471.82 1623.7h86.4v36h-86.4z"/><path id="iq0me" d="M521.53 1630.9v2.1a6.82 6.82 0 0 1-13.64 0v-2.1h-22.12a10.4 10.4 0 0 1-5.78-1.8l-8.17-5.4v32.4a3.6 3.6 0 0 0 3.6 3.6h79.2a3.6 3.6 0 0 0 3.6-3.6v-32.4l-8.17 5.4a10.4 10.4 0 0 1-5.78 1.8z"/><path id="iq0mf" d="M554.6 1602.1h-79.2a3.6 3.6 0 0 0-3.6 3.6v13.04l8.46 6.43a10.4 10.4 0 0 0 6.3 2.12h21.31v-1.98a6.82 6.82 0 1 1 13.65 0v1.98h21.85c2.27 0 4.49-.74 6.3-2.12l8.46-6.43v-13.05a3.6 3.6 0 0 0-3.53-3.6"/><clipPath id="iq0md"><use xlink:href="#iq0ma"/></clipPath></defs><g><g transform="translate(-471 -1589)"><g><use fill="#4d4d4d" xlink:href="#iq0mb"/></g><g><use fill="#ff8000" xlink:href="#iq0mc"/></g><g><g/><g clip-path="url(#iq0md)"><use fill="#4d4d4d" xlink:href="#iq0me"/></g></g><g><use fill="#4d4d4d" xlink:href="#iq0mf"/></g></g></g></svg>