<svg xmlns="http://www.w3.org/2000/svg" xmlns:xlink="http://www.w3.org/1999/xlink" width="50" height="32" viewBox="0 0 50 32"><defs><path id="1ujna" d="M1400 3036.54h50v31.4h-50z"/><path id="1ujnc" d="M1446.25 3036.54h-43.75c-1.25 0-2.5 1.26-2.5 2.51v25.12c0 2.5 1.25 3.76 3.75 3.76h42.5c2.5 0 3.75-1.25 3.75-3.76v-23.86c0-2.51-1.25-3.77-3.75-3.77"/><path id="1ujnd" d="M1413.64 3047.01l.62 1.23V3047h5.64l1.23 2.7 1.21-2.7h14.06l1.43 1.6 1.53-1.6h6.53l-4.73 5.25 4.73 5.2-6.63-.01-1.48-1.62-1.57 1.62h-12.93v-1.3l-.55 1.3h-3.21l-.56-1.27v1.27h-6.21l-.7-1.67h-1.6l-.7 1.67h-5.65l4.72-10.44zm-7.04 8.97h2.01l.71-1.68h3.85l.71 1.68h3.76v-5.87l2.67 5.87h1.64l2.66-5.87.01 5.87h1.83v-7.49h-3l-2.23 5.08-2.41-5.08h-3.02v7.08l-3.13-7.08h-2.75zm21.52 0h7.3l2.36-2.48 2.27 2.48h2.38l-3.45-3.72 3.45-3.77h-2.27l-2.35 2.45-2.27-2.45h-7.42zm-15.6-3.23h-2.54l1.27-3zm17.43-2.7h4.64l2.03 2.18-2.12 2.2h-4.55v-1.5h4.06v-1.52h-4.06z"/><clipPath id="1ujnb"><use xlink:href="#1ujna"/></clipPath></defs><g><g transform="translate(-1400 -3036)"><g><g/><g clip-path="url(#1ujnb)"><use fill="#75bee3" xlink:href="#1ujnc"/></g></g><g><use fill="#fefefe" xlink:href="#1ujnd"/></g></g></g></svg>