<svg xmlns="http://www.w3.org/2000/svg" xmlns:xlink="http://www.w3.org/1999/xlink" width="50" height="31" viewBox="0 0 50 31"><defs><path id="sm19a" d="M1485 3036h24.39v30.62h-48.78V3036z"/><path id="sm19c" d="M1505.73 3036h-42.68c-1.22 0-2.44 1.22-2.44 2.45v24.5c0 2.44 1.22 3.67 3.66 3.67h41.46c2.44 0 3.66-1.23 3.66-3.68v-23.27c0-2.45-1.22-3.67-3.66-3.67"/><path id="sm19d" d="M1467.01 3051.73h1.96v-10.19h-1.96z"/><path id="sm19e" d="M1470.73 3051.73h1.09v-10.19h-1.09z"/><path id="sm19f" d="M1464.17 3051.73h1.09v-10.19h-1.09z"/><path id="sm19g" d="M1477.45 3051.73h1.96v-10.19h-1.96z"/><path id="sm19h" d="M1481.17 3051.73h1.09v-10.19h-1.09z"/><path id="sm19i" d="M1474.62 3051.73h1.09v-10.19h-1.09z"/><path id="sm19j" d="M1485.42 3051.73h1.09v-10.19h-1.09z"/><path id="sm19k" d="M1489.32 3051.73h1.09v-10.19h-1.09z"/><path id="sm19l" d="M1493.83 3051.73h1.09v-10.19h-1.09z"/><path id="sm19m" d="M1496.31 3051.73h1.96v-10.19h-1.96z"/><path id="sm19n" d="M1500.03 3051.73h1.09v-10.19h-1.09z"/><path id="sm19o" d="M1504.28 3051.73h1.09v-10.19h-1.09z"/><path id="sm19p" d="M1503.5 3051.74H1464.17V3062.96h41.19V3051.74h-1.09z"/><path id="sm19q" d="M1464.43 3054.1a8.3 8.3 0 0 1 1.57-.13c.86 0 1.4.15 1.82.48.35.26.55.65.55 1.18 0 .64-.42 1.2-1.12 1.46v.02c.63.15 1.37.68 1.37 1.66 0 .57-.23 1-.56 1.33-.47.43-1.21.62-2.3.62-.6 0-1.04-.04-1.33-.08zm.86 2.73h.78c.9 0 1.44-.47 1.44-1.11 0-.78-.6-1.09-1.46-1.09-.4 0-.62.03-.76.06zm0 3.18c.16.03.41.04.71.04.89 0 1.7-.32 1.7-1.29 0-.9-.77-1.28-1.7-1.28h-.71z"/><path id="sm19r" d="M1477.23 3057.27c0 2.29-1.39 3.5-3.08 3.5-1.76 0-2.99-1.36-2.99-3.37 0-2.11 1.31-3.49 3.09-3.49 1.81 0 2.98 1.39 2.98 3.36m-5.15.11c0 1.42.77 2.7 2.12 2.7 1.36 0 2.13-1.26 2.13-2.77 0-1.32-.7-2.7-2.12-2.7-1.42 0-2.13 1.31-2.13 2.77"/><path id="sm19s" d="M1480.12 3054.02h.86v5.92h2.84v.72h-3.7z"/><path id="sm19t" d="M1490 3057.55h-2.6v2.4h2.89v.71h-3.74v-6.64h3.59v.72h-2.73v2.1h2.58z"/><path id="sm19u" d="M1494.6 3054.75h-2.02v-.73h4.92v.73h-2.03v5.91h-.87z"/><path id="sm19v" d="M1505.42 3057.27c0 2.29-1.39 3.5-3.08 3.5-1.76 0-2.99-1.36-2.99-3.37 0-2.11 1.31-3.49 3.09-3.49 1.81 0 2.98 1.39 2.98 3.36m-5.15.11c0 1.42.77 2.7 2.12 2.7 1.36 0 2.13-1.26 2.13-2.77 0-1.32-.7-2.7-2.12-2.7-1.42 0-2.13 1.31-2.13 2.77"/><clipPath id="sm19b"><use xlink:href="#sm19a"/></clipPath></defs><g><g transform="translate(-1460 -3036)"><g><g><g><g/><g clip-path="url(#sm19b)"><use fill="#f3f3f3" xlink:href="#sm19c"/></g></g></g><g><use fill="#221e1f" xlink:href="#sm19d"/></g><g><use fill="#221e1f" xlink:href="#sm19e"/></g><g><use fill="#221e1f" xlink:href="#sm19f"/></g><g><use fill="#221e1f" xlink:href="#sm19g"/></g><g><use fill="#221e1f" xlink:href="#sm19h"/></g><g><use fill="#221e1f" xlink:href="#sm19i"/></g><g><use fill="#221e1f" xlink:href="#sm19j"/></g><g><use fill="#221e1f" xlink:href="#sm19k"/></g><g><use fill="#221e1f" xlink:href="#sm19l"/></g><g><use fill="#221e1f" xlink:href="#sm19m"/></g><g><use fill="#221e1f" xlink:href="#sm19n"/></g><g><use fill="#221e1f" xlink:href="#sm19o"/></g><g><use fill="#f3f3f3" xlink:href="#sm19p"/></g><g><g><use fill="#231f20" xlink:href="#sm19q"/></g><g><use fill="#231f20" xlink:href="#sm19r"/></g><g><use fill="#231f20" xlink:href="#sm19s"/></g><g><use fill="#231f20" xlink:href="#sm19t"/></g><g><use fill="#231f20" xlink:href="#sm19u"/></g><g><use fill="#231f20" xlink:href="#sm19v"/></g></g></g></g></g></svg>