<svg xmlns="http://www.w3.org/2000/svg" xmlns:xlink="http://www.w3.org/1999/xlink" width="90" height="90" viewBox="0 0 90 90"><defs><path id="bxlkb" d="M697.83 1611.28h78.94a2.06 2.06 0 0 0 1.2-3.76l-39.41-26.35c-.74-.5-1.7-.5-2.43 0l-39.6 26.35a2.05 2.05 0 0 0 1.3 3.76"/><path id="bxlka" d="M695.64 1659.23h83.71v7.99h-83.71z"/><path id="bxlkd" d="M698.32 1659.23h78.35c1.48 0 2.68 1.2 2.68 2.68v2.63c0 1.48-1.2 2.68-2.68 2.68h-78.35a2.68 2.68 0 0 1-2.68-2.68v-2.63c0-1.48 1.2-2.68 2.68-2.68"/><path id="bxlke" d="M713.02 1617.2h-2.62a2.68 2.68 0 0 0-2.69 2.68v25.8h-3.22a2.68 2.68 0 0 0-2.68 2.68v2.62c0 1.48 1.2 2.68 2.68 2.68h66.17c1.48 0 2.68-1.2 2.68-2.68v-2.62c0-1.49-1.2-2.69-2.68-2.69h-3.38v-25.8c0-1.47-1.2-2.67-2.69-2.67h-2.63a2.68 2.68 0 0 0-2.68 2.68v25.8h-9.2v-25.8c0-1.48-1.2-2.68-2.68-2.68h-2.62a2.68 2.68 0 0 0-2.69 2.68v25.8h-9.2v-25.8c0-1.48-1.2-2.68-2.68-2.68h-2.62a2.68 2.68 0 0 0-2.69 2.68v25.8h-9.2v-25.8c0-1.48-1.2-2.68-2.68-2.68"/><path id="bxlkf" d="M738.89 1591.83a6.77 6.77 0 1 1 0 13.54 6.77 6.77 0 0 1 0-13.54"/><clipPath id="bxlkc"><use xlink:href="#bxlka"/></clipPath></defs><g><g transform="translate(-695 -1580)"><g><g><use fill="#4d4d4d" xlink:href="#bxlkb"/></g><g><g/><g clip-path="url(#bxlkc)"><use fill="#4d4d4d" xlink:href="#bxlkd"/></g></g><g><use fill="#4d4d4d" xlink:href="#bxlke"/></g><g><use fill="#ff8000" xlink:href="#bxlkf"/></g></g></g></g></svg>