<svg xmlns="http://www.w3.org/2000/svg" xmlns:xlink="http://www.w3.org/1999/xlink" width="87" height="68" viewBox="0 0 87 68"><defs><path id="6pvgb" d="M917.4 1613.81a3.6 3.6 0 0 0-3.6 3.6v15.3a3.6 3.6 0 0 0 7.2 0v-15.3a3.6 3.6 0 0 0-3.6-3.6"/><path id="6pvga" d="M992.12 1591.6h7.2v67.5h-7.2z"/><path id="6pvgd" d="M995.72 1591.6a3.6 3.6 0 0 0-3.6 3.6v60.3a3.6 3.6 0 0 0 7.2 0v-60.3a3.6 3.6 0 0 0-3.6-3.6"/><path id="6pvge" d="M920.4 1617.97v14.4l12.44 3.73-1.31 4.37a7.89 7.89 0 0 0 5.3 9.8l17.24 5.14c.64.2 1.3.3 1.98.33h.28a7.87 7.87 0 0 0 7.55-5.62l1.3-4.36 27.23 8.21v-57.6zm38.72 30.76a2.9 2.9 0 0 1-3.63 1.96l-17.25-5.14a2.91 2.91 0 0 1-1.96-3.6l1.32-4.38 22.84 6.86z"/><path id="6pvgf" d="M989.63 1606.11a2.63 2.63 0 0 1-1.8 2.52l-40.01 11.86a2.63 2.63 0 0 1-3.38-2.52 2.63 2.63 0 0 1 1.8-2.52l40.01-11.88a2.63 2.63 0 0 1 3.38 2.52z"/><path id="6pvgg" d="M939.14 1617.52a2.7 2.7 0 1 1 0 5.4 2.7 2.7 0 0 1 0-5.4"/><clipPath id="6pvgc"><use xlink:href="#6pvga"/></clipPath></defs><g><g transform="translate(-913 -1591)"><use fill="#4d4d4d" xlink:href="#6pvgb"/></g><g transform="translate(-913 -1591)"/><g clip-path="url(#6pvgc)" transform="translate(-913 -1591)"><use fill="#4d4d4d" xlink:href="#6pvgd"/></g><g transform="translate(-913 -1591)"><use fill="#4d4d4d" xlink:href="#6pvge"/></g><g transform="translate(-913 -1591)"><use fill="#ff8000" xlink:href="#6pvgf"/></g><g transform="translate(-913 -1591)"><use fill="#ff8000" xlink:href="#6pvgg"/></g></g></svg>