<svg xmlns="http://www.w3.org/2000/svg" xmlns:xlink="http://www.w3.org/1999/xlink" width="90" height="90" viewBox="0 0 90 90"><defs><path id="ldeeb" d="M1172.37 1586.11v34.21l10.24-7.66 10.25 7.58v-34.13z"/><path id="ldeea" d="M1147.4 1586.02h60.13v77.86h-60.13z"/><path id="ldeed" d="M1207.18 1657.69h-52.58a2.46 2.46 0 0 1-2.5-2.43 2.46 2.46 0 0 1 2.5-2.43h54.13v-66.71h-9.75c0 .3.1-.33.1 0v34.13a4.93 4.93 0 0 1-5 4.86 5.08 5.08 0 0 1-2.99-.97l-7.54-5.48-7.53 5.48a5.08 5.08 0 0 1-6.99-.98c-.65-.84-1-1.86-1-2.91v-34.13c0-.33 0 .3.1 0h-14.32c-3.54 0-6.41 2.79-6.41 6.23v9.6l4.13-4.87v13.14l-4.13 4.86v42.12a6.83 6.83 0 0 0 6.87 6.68h51.83a3.27 3.27 0 0 0 3.04-3.5 3.25 3.25 0 0 0-1.96-2.7"/><clipPath id="ldeec"><use xlink:href="#ldeea"/></clipPath></defs><g><g transform="translate(-1147 -1586)"><g><g><use fill="#ff8000" xlink:href="#ldeeb"/></g><g><g/><g clip-path="url(#ldeec)"><use fill="#4d4d4d" xlink:href="#ldeed"/></g></g></g></g></g></svg>