<svg xmlns="http://www.w3.org/2000/svg" xmlns:xlink="http://www.w3.org/1999/xlink" width="88" height="57" viewBox="0 0 88 57"><defs><path id="2mgjb" d="M1436.24 1622.93c1.47-.02 2.91.4 4.14 1.2.2.13.43.2.67.2a1.2 1.2 0 0 0 1.19-1.2v-9.54a3.6 3.6 0 0 0-3.6-3.6l-11.11.09a1.2 1.2 0 0 1-.99-1.8 7.2 7.2 0 1 0-11.8.09 1.2 1.2 0 0 1-.98 1.89l-11.1.09a3.6 3.6 0 0 0-3.6 3.6v9.54a1.2 1.2 0 0 0 1.8.99 7.5 7.5 0 1 1 .1 12.5c-.2-.12-.43-.2-.66-.2a1.2 1.2 0 0 0-1.2 1.21l.12 11.96a3.6 3.6 0 0 0 3.6 3.6h10.8a1.2 1.2 0 0 0 .99-1.8 7.5 7.5 0 1 1 12.5-.11 1.2 1.2 0 0 0 1.01 1.8h10.8a3.6 3.6 0 0 0 3.6-3.6l-.1-11.95a1.2 1.2 0 0 0-1.8-1 7.5 7.5 0 1 1-4.25-13.71z"/><path id="2mgja" d="M1355.8 1597.36h56.44v56.55h-56.44z"/><path id="2mgjd" d="M1399.16 1637.63a1.2 1.2 0 0 1 1.8-.99 7.2 7.2 0 1 0-.09-11.8 1.2 1.2 0 0 1-1.89-.98v-9.91a3.6 3.6 0 0 0-3.6-3.6l-11.1.09a1.2 1.2 0 0 1-1-1.8 7.2 7.2 0 1 0-11.8.09 1.2 1.2 0 0 1-.97 1.89l-11.11.09a3.6 3.6 0 0 0-3.6 3.6v9.54a1.2 1.2 0 0 0 1.8.99 7.5 7.5 0 1 1 .1 12.5 1.2 1.2 0 0 0-.66-.2 1.2 1.2 0 0 0-1.19 1.21l.11 11.96a3.6 3.6 0 0 0 3.6 3.6h10.8a1.2 1.2 0 0 0 1-1.8 7.5 7.5 0 1 1 12.5-.11 1.2 1.2 0 0 0 1.01 1.8h10.8a3.6 3.6 0 0 0 3.6-3.6z"/><clipPath id="2mgjc"><use xlink:href="#2mgja"/></clipPath></defs><g><g transform="translate(-1355 -1597)"><g><use fill="#ff8000" xlink:href="#2mgjb"/></g><g><g/><g clip-path="url(#2mgjc)"><use fill="#4d4d4d" xlink:href="#2mgjd"/></g></g></g></g></svg>