<svg xmlns="http://www.w3.org/2000/svg" xmlns:xlink="http://www.w3.org/1999/xlink" width="50" height="32" viewBox="0 0 50 32"><defs><path id="2mhpa" d="M1340 3036.54h50v31.26h-50z"/><path id="2mhpc" d="M1386.25 3036.54h-43.75a2.69 2.69 0 0 0-2.5 2.5v25.01c0 2.5 1.25 3.75 3.75 3.75h42.5c2.5 0 3.75-1.25 3.75-3.75v-23.76c0-2.5-1.25-3.75-3.75-3.75"/><path id="2mhpd" d="M1366.86 3056.64c4.15.02 7.94-3.38 7.94-7.52 0-4.53-3.8-7.66-7.94-7.66h-3.57a7.49 7.49 0 0 0-7.66 7.66 7.6 7.6 0 0 0 7.66 7.52z"/><path id="2mhpe" d="M1364.89 3053.15v-8.22a4.4 4.4 0 0 1 0 8.22m-5.99-4.1a4.41 4.41 0 0 1 2.83-4.12v8.22a4.41 4.41 0 0 1-2.83-4.1m4.4-6.96a6.95 6.95 0 1 0 .01 13.9 6.95 6.95 0 0 0 0-13.9"/><path id="2mhpf" d="M1347.87 3061.83c0 .61.45.69.84.69 1.73 0 2.3-1.31 2.3-2.5 0-1.5-.96-2.6-2.5-2.6-.34 0-.5.03-.64.04zm-.78-3.77c0-.72-.38-.67-.74-.68v-.21c.31.02.63.02.95.02l1.39-.02c2.07 0 3.2 1.39 3.2 2.8 0 .8-.46 2.8-3.3 2.8l-1.16-.01-1.08.01v-.2c.48-.05.71-.07.74-.62z"/><path id="2mhpg" d="M1353.02 3057.87c-.2 0-.38-.2-.38-.4s.19-.39.38-.39c.2 0 .4.17.4.39a.4.4 0 0 1-.4.4zm-.85 4.7h.15c.23 0 .39 0 .39-.27v-2.18c0-.35-.12-.4-.42-.56v-.13a9.68 9.68 0 0 0 1-.33c.04 0 .06.05.06.12v3.08c0 .26.18.26.4.26h.14v.21l-.84-.01-.88.01z"/><path id="2mhph" d="M1354.65 3060.17c0-.3-.09-.38-.47-.53v-.15c.35-.12.68-.22 1.06-.39.03 0 .05.02.05.08v.52c.46-.33.85-.6 1.4-.6.67 0 .91.5.91 1.12v2.07c0 .27.18.27.4.27h.15v.2h-1.72v-.2h.15c.22 0 .38 0 .38-.27v-2.07c0-.46-.28-.69-.74-.69-.25 0-.66.21-.93.39v2.37c0 .27.18.27.4.27h.15v.2h-1.72v-.2h.15c.22 0 .38 0 .38-.27z"/><path id="2mhpi" d="M1360.18 3060.3c.2 0 .23-.1.23-.2 0-.41-.25-.74-.7-.74-.49 0-.83.36-.92.94zm-1.42.25v.47c.05.76.54 1.39 1.18 1.39.44 0 .79-.24 1.09-.54l.1.11c-.36.5-.82.9-1.48.9-1.27 0-1.53-1.23-1.53-1.74 0-1.57 1.06-2.04 1.62-2.04.65 0 1.35.4 1.36 1.26v.15l-.08.04z"/><path id="2mhpj" d="M1361.28 3062.56h.22c.22 0 .38 0 .38-.27v-2.25c0-.25-.3-.3-.42-.36v-.12c.59-.25.91-.46.98-.46.05 0 .08.02.08.1v.73h.01c.2-.32.54-.83 1.03-.83.2 0 .46.14.46.43 0 .21-.16.4-.38.4-.25 0-.25-.19-.53-.19-.14 0-.59.19-.59.67v1.88c0 .27.16.27.39.27h.45v.2h-2.08z"/><path id="2mhpk" d="M1364.38 3061.65c.1.53.42.98 1 .98.48 0 .66-.29.66-.57 0-.94-1.75-.64-1.75-1.93 0-.45.36-1.03 1.24-1.03.26 0 .6.07.92.23l.05.82h-.18c-.08-.5-.36-.8-.88-.8-.32 0-.62.2-.62.54 0 .94 1.86.65 1.86 1.9 0 .54-.43 1.1-1.38 1.1-.32 0-.7-.11-.98-.27l-.09-.93z"/><path id="2mhpl" d="M1373.93 3058.62h-.2c-.16-.93-.82-1.31-1.72-1.31-.93 0-2.27.62-2.27 2.54 0 1.62 1.16 2.79 2.4 2.79.79 0 1.45-.55 1.61-1.4l.18.06-.18 1.17a4.5 4.5 0 0 1-1.77.42c-1.88 0-3.07-1.2-3.07-3.01 0-1.65 1.47-2.83 3.04-2.83.65 0 1.28.21 1.9.43z"/><path id="2mhpm" d="M1374.22 3062.56h.15c.23 0 .39 0 .39-.26v-4.47c0-.52-.12-.54-.43-.63v-.13c.32-.1.66-.24.83-.34.09-.05.15-.09.18-.09.04 0 .06.05.06.11v5.55c0 .26.18.26.4.26h.14v.21l-.84-.01-.88.01z"/><path id="2mhpn" d="M1379.37 3062.33c0 .14.08.15.22.15h.32v.16c-.34.03-1 .2-1.16.25l-.04-.03v-.65c-.48.4-.85.68-1.42.68-.43 0-.88-.28-.88-.96v-2.05c0-.21-.03-.41-.48-.45v-.15l1.04-.06c.08 0 .08.06.08.23v2.07c0 .24 0 .93.7.93.27 0 .64-.2.97-.48v-2.16c0-.17-.38-.25-.67-.33v-.15c.72-.05 1.17-.11 1.25-.11.07 0 .07.06.07.14z"/><path id="2mhpo" d="M1380.97 3061.87c0 .3.29.82.82.82.86 0 1.21-.85 1.21-1.56 0-.87-.65-1.6-1.27-1.6-.3 0-.55.2-.76.39zm0-2.19c.32-.27.75-.58 1.2-.58.93 0 1.49.82 1.49 1.7 0 1.04-.77 2.1-1.92 2.1-.6 0-.9-.2-1.12-.29l-.24.19-.17-.1c.07-.46.12-.93.12-1.42v-3.45c0-.52-.13-.54-.43-.63v-.13c.32-.1.66-.24.83-.34l.17-.09c.05 0 .07.05.07.11z"/><clipPath id="2mhpb"><use xlink:href="#2mhpa"/></clipPath></defs><g><g transform="translate(-1340 -3036)"><g><g/><g clip-path="url(#2mhpb)"><use fill="#f3f3f3" xlink:href="#2mhpc"/></g></g><g><use fill="#0064a7" xlink:href="#2mhpd"/></g><g><use fill="#fefefe" xlink:href="#2mhpe"/></g><g><use fill="#1d1c1a" xlink:href="#2mhpf"/></g><g><use fill="#1d1c1a" xlink:href="#2mhpg"/></g><g><use fill="#1d1c1a" xlink:href="#2mhph"/></g><g><use fill="#1d1c1a" xlink:href="#2mhpi"/></g><g><use fill="#1d1c1a" xlink:href="#2mhpj"/></g><g><use fill="#1d1c1a" xlink:href="#2mhpk"/></g><g><use fill="#1d1c1a" xlink:href="#2mhpl"/></g><g><use fill="#1d1c1a" xlink:href="#2mhpm"/></g><g><use fill="#1d1c1a" xlink:href="#2mhpn"/></g><g><use fill="#1d1c1a" xlink:href="#2mhpo"/></g></g></g></svg>