<svg xmlns="http://www.w3.org/2000/svg" xmlns:xlink="http://www.w3.org/1999/xlink" width="71" height="29" viewBox="0 0 71 29"><defs><path id="hxvxa" d="M1440.01 3109.11h28.22v28.2H1440z"/><path id="hxvxd" d="M1468.23 3123.19a14.1 14.1 0 1 1 0 0"/><path id="hxvxb" d="M1440 3109.11h14.36v16H1440z"/><path id="hxvxf" d="M1454.36 3123.02l-.03-13.76.02-.15h-.26a14.1 14.1 0 0 0-13.96 16z"/><path id="hxvxg" d="M1464.23 3123.38a10.4 10.4 0 0 1-20.79.05c-.02-5.74 4.94-10.17 10.37-10.41 5.74-.26 10.4 4.62 10.42 10.36"/><path id="hxvxh" d="M1450.5 3119.98l8.53 2.49 5.02-.98c-.9-4.88-5.14-8.7-10.24-8.47-2.6.1-5.07 1.18-6.95 2.88z"/><path id="hxvxi" d="M1453.84 3117.94a5.46 5.46 0 1 1 0 10.92 5.46 5.46 0 0 1 0-10.92"/><path id="hxvxj" d="M1464.03 3121.38l.07.45-15.84 2.77-.08-.45z"/><path id="hxvxk" d="M1459.06 3123.76a5.24 5.24 0 1 1-.28-2.06l.44-.14a5.7 5.7 0 1 0 .3 2.05z"/><path id="hxvxl" d="M1461.9 3116.33a10.66 10.66 0 0 0-13.05-2.4l.36.33a10.24 10.24 0 0 1 12.35 2.36 10.18 10.18 0 1 1-16.17 1.1l-.35-.3a10.64 10.64 0 0 0 15.82 13.9 10.64 10.64 0 0 0 1.04-15"/><path id="hxvxm" d="M1478.16 3127.3c.08-.09.17-.09.26-.01.09.09.09.17.01.26a2.99 2.99 0 0 1-1.93.78 2.79 2.79 0 0 1-1.99-.82 3.03 3.03 0 0 1-.61-.9 2.92 2.92 0 0 1 .6-3.1c.25-.25.56-.46.9-.61a2.77 2.77 0 0 1 3.07.6 2.79 2.79 0 0 1 .85 1.97v.03c-.02.12-.08.17-.2.17l-5.07.01a2.42 2.42 0 0 0 2.45 2.25c.33 0 .63-.05.9-.17.29-.1.54-.25.76-.46m-1.67-4.24c-.32 0-.63.07-.91.19s-.53.28-.75.48a2.53 2.53 0 0 0-.78 1.6l4.88-.02c-.02-.3-.1-.6-.25-.87a2.69 2.69 0 0 0-1.3-1.19 2.06 2.06 0 0 0-.9-.19"/><path id="hxvxn" d="M1478.16 3127.3c.08-.09.17-.09.26-.01.09.09.09.17.01.26a2.99 2.99 0 0 1-1.93.78 2.79 2.79 0 0 1-1.99-.82 3.03 3.03 0 0 1-.61-.9 2.92 2.92 0 0 1 .6-3.1c.25-.25.56-.46.9-.61a2.77 2.77 0 0 1 3.07.6 2.79 2.79 0 0 1 .85 1.97v.03c-.02.12-.08.17-.2.17l-5.07.01a2.42 2.42 0 0 0 2.45 2.25c.33 0 .63-.05.9-.17.29-.1.54-.25.76-.46zm-1.67-4.24c-.32 0-.63.07-.91.19s-.53.28-.75.48a2.53 2.53 0 0 0-.78 1.6l4.88-.02c-.02-.3-.1-.6-.25-.87a2.69 2.69 0 0 0-1.3-1.19 2.06 2.06 0 0 0-.9-.19z"/><path id="hxvxo" d="M1486.89 3119.78a3.37 3.37 0 0 0-1.6-.38 3.9 3.9 0 0 0-2.81 1.17 3.94 3.94 0 0 0-1.15 2.83 3.94 3.94 0 0 0 2.44 3.66c.49.2 1 .3 1.55.3a3.83 3.83 0 0 0 2.9-1.27.5.5 0 0 1 .2-.14.59.59 0 0 1 .24-.04c.13 0 .24.04.3.14.07.09.1.2.1.3 0 .17-.04.3-.14.4a4.8 4.8 0 0 1-3.6 1.57 4.95 4.95 0 0 1-4.57-6.83 5.03 5.03 0 0 1 2.61-2.64 4.77 4.77 0 0 1 3.87 0c.6.28 1.13.64 1.6 1.1.05.06.1.13.13.2.05.1.07.17.07.25 0 .14-.04.25-.14.31a.5.5 0 0 1-.33.11.57.57 0 0 1-.37-.17c-.37-.32-.8-.62-1.3-.87zm7.86 1.31a4.04 4.04 0 0 1 2.01 2c.2.46.3.94.3 1.45 0 .5-.1.99-.29 1.43a3.85 3.85 0 0 1-1.98 2 3.79 3.79 0 0 1-4.12-.75 3.6 3.6 0 0 1-1.1-2.67 3.78 3.78 0 0 1 1.07-2.63 3.77 3.77 0 0 1 4.1-.83zm-2.53.9a2.76 2.76 0 0 0-1.49 1.5 2.77 2.77 0 0 0 1.5 3.64 2.78 2.78 0 0 0 3.05-.6 2.77 2.77 0 0 0 0-3.94 2.87 2.87 0 0 0-1.98-.82c-.38 0-.74.08-1.08.22zm5.97-.76c0-.13.05-.25.14-.33.1-.1.21-.15.34-.15.13 0 .25.05.34.15.1.1.14.2.14.33v.77c.33-.36.73-.66 1.2-.9a3.4 3.4 0 0 1 1.51-.35c.17 0 .3.05.4.15a.47.47 0 0 1 0 .67c-.1.1-.22.15-.39.15-.37 0-.72.07-1.04.21-.31.15-.6.34-.84.6a3.3 3.3 0 0 0-.59.85c-.15.31-.23.65-.24 1l.01 3.43c0 .13-.04.25-.14.34-.08.1-.2.14-.34.14a.44.44 0 0 1-.33-.14.44.44 0 0 1-.15-.34zm5.24 3.76a2.71 2.71 0 0 0 .94 1.65 2.66 2.66 0 0 0 1.81.67 2.87 2.87 0 0 0 1.96-.79c.09-.1.2-.14.34-.14.13 0 .25.04.34.14.1.1.14.2.14.34 0 .13-.04.25-.14.34a2.9 2.9 0 0 1-1.16.82c-.44.16-.92.24-1.49.24a3.78 3.78 0 0 1-2.64-1.05 3.6 3.6 0 0 1-1.1-2.67 3.78 3.78 0 0 1 1.07-2.63 4 4 0 0 1 2.69-1.15 3.83 3.83 0 0 1 3.42 2.28c.2.46.31.94.31 1.46 0 .15-.05.27-.15.36-.1.09-.21.12-.33.12zm5.49-.97a2.87 2.87 0 0 0-.95-1.62c-.24-.2-.52-.36-.82-.48a2.64 2.64 0 0 0-1.95.01 2.71 2.71 0 0 0-1.75 2.1z"/><path id="hxvxp" d="M1488.19 3120.65c-.37-.32-.8-.62-1.3-.87a3.37 3.37 0 0 0-1.6-.38 3.9 3.9 0 0 0-2.81 1.17 3.94 3.94 0 0 0-1.15 2.83 3.94 3.94 0 0 0 2.44 3.66c.49.2 1 .3 1.55.3a3.83 3.83 0 0 0 2.9-1.27.5.5 0 0 1 .2-.14.59.59 0 0 1 .24-.04c.13 0 .24.04.3.14.07.09.1.2.1.3 0 .17-.04.3-.14.4a4.8 4.8 0 0 1-3.6 1.57 4.95 4.95 0 0 1-4.57-6.83 5.03 5.03 0 0 1 2.61-2.64 4.77 4.77 0 0 1 3.87 0c.6.28 1.13.64 1.6 1.1.05.06.1.13.13.2.05.1.07.17.07.25 0 .14-.04.25-.14.31a.5.5 0 0 1-.33.11.57.57 0 0 1-.37-.17zm5.14.15c.49 0 .97.1 1.42.3a4.04 4.04 0 0 1 2.01 2 3.53 3.53 0 0 1 .01 2.88 3.85 3.85 0 0 1-1.98 2c-.46.19-.95.29-1.47.29a3.79 3.79 0 0 1-2.65-1.05 3.6 3.6 0 0 1-1.1-2.67 3.78 3.78 0 0 1 1.07-2.63 3.77 3.77 0 0 1 2.69-1.12zm-.03.97a2.78 2.78 0 0 0-1.96 4.76 2.78 2.78 0 0 0 3.95 0 2.77 2.77 0 0 0 0-3.94 2.87 2.87 0 0 0-1.99-.82zm5.03-.87c.1-.1.21-.15.34-.15.13 0 .25.05.34.15.1.1.14.2.14.33v.77c.33-.36.73-.66 1.2-.9a3.4 3.4 0 0 1 1.51-.35c.17 0 .3.05.4.15a.47.47 0 0 1 0 .67c-.1.1-.22.15-.39.15-.37 0-.72.07-1.04.21-.31.15-.6.34-.84.6a3.3 3.3 0 0 0-.59.85c-.15.31-.23.65-.24 1l.01 3.43c0 .13-.04.25-.14.34-.08.1-.2.14-.34.14a.44.44 0 0 1-.33-.14.44.44 0 0 1-.15-.34l-.02-6.58c0-.13.05-.25.14-.33zm5.1 4.1a2.71 2.71 0 0 0 .94 1.64 2.66 2.66 0 0 0 1.81.67 2.87 2.87 0 0 0 1.96-.79c.09-.1.2-.14.34-.14.13 0 .25.04.34.14.1.1.14.2.14.34 0 .13-.04.25-.14.34a2.9 2.9 0 0 1-1.16.82c-.44.16-.92.24-1.49.24a3.78 3.78 0 0 1-2.64-1.05 3.6 3.6 0 0 1-1.1-2.67 3.78 3.78 0 0 1 1.07-2.63 4 4 0 0 1 2.69-1.15 3.83 3.83 0 0 1 3.42 2.28c.2.46.31.94.31 1.46 0 .15-.05.27-.15.36-.1.09-.21.12-.33.12zm5.49-.98a2.87 2.87 0 0 0-.95-1.62c-.24-.2-.52-.36-.82-.48a2.64 2.64 0 0 0-1.95.01 2.71 2.71 0 0 0-1.75 2.1z"/><clipPath id="hxvxc"><use xlink:href="#hxvxa"/></clipPath><clipPath id="hxvxe"><use xlink:href="#hxvxb"/></clipPath></defs><g><g transform="translate(-1440 -3109)"><g><g/><g clip-path="url(#hxvxc)"><use fill="#8628b9" xlink:href="#hxvxd"/></g></g><g><g/><g clip-path="url(#hxvxe)"><use fill="#752994" xlink:href="#hxvxf"/></g></g><g><use fill="#ffd000" xlink:href="#hxvxg"/></g><g><use fill="#fbb400" xlink:href="#hxvxh"/></g><g><use fill="#fff" xlink:href="#hxvxi"/></g><g><use xlink:href="#hxvxj"/></g><g><use fill="#4a1473" xlink:href="#hxvxk"/></g><g><use fill="#fff" xlink:href="#hxvxl"/></g><g><use fill="#4a1473" xlink:href="#hxvxm"/></g><g><use fill="#fff" fill-opacity="0" stroke="#4a1473" stroke-miterlimit="50" stroke-width=".5" xlink:href="#hxvxn"/></g><g><use fill="#4a1473" xlink:href="#hxvxo"/></g><g><use fill="#fff" fill-opacity="0" stroke="#4a1473" stroke-miterlimit="50" xlink:href="#hxvxp"/></g></g></g></svg>