<svg xmlns="http://www.w3.org/2000/svg" xmlns:xlink="http://www.w3.org/1999/xlink" width="116" height="24" viewBox="0 0 116 24"><defs><path id="7y6qa" d="M1418.07 3273.89c0-.33.28-.59.63-.59h.89c.34 0 .63.26.63.59v6.76c0 .32-.29.59-.63.59h-.89c-.35 0-.63-.27-.63-.6z"/><path id="7y6qb" d="M1422.06 3273.6c0-.17.14-.3.32-.3h1.42c.18 0 .33.13.34.3l.01.3c.01.16.12.2.24.08l.18-.14a3 3 0 0 1 1.26-.6c.27-.08.57-.11.91-.11 1.07 0 1.88.3 2.44.89.56.6.8 2.1.8 2.1.02.16.04.43.04.59v4.23c0 .16-.14.3-.32.3h-1.51c-.18 0-.32-.14-.32-.3v-4.22c0-.16-.02-.42-.05-.58 0 0-.1-.6-.4-.89-.3-.27-.68-.41-1.15-.41-.3 0-.57.05-.82.16-.26.1-.48.26-.66.45a2.13 2.13 0 0 0-.55 1.2c-.02.16-.03.42-.03.58v3.71c0 .16-.14.3-.32.3h-1.51c-.18 0-.32-.14-.32-.3z"/><path id="7y6qc" d="M1431.83 3275.22c0-.17-.15-.3-.32-.3h-.82c-.18 0-.32-.13-.32-.3v-1.03c0-.16.14-.3.32-.3h.82c.17 0 .32-.1.32-.24 0-.13 0-.38.02-.54 0 0 .07-.77.27-1.17a2.84 2.84 0 0 1 1.77-1.53c.37-.11.74-.17 1.1-.17.4 0 .83.05 1.3.15.47.1 1.1.51 1.1.51.15.1.18.28.08.41l-.63.84c-.1.13-.3.17-.46.09 0 0-.13-.08-.35-.16a2.05 2.05 0 0 0-.69-.11c-.42 0-.76.12-1 .38-.26.25-.34.8-.34.8l-.04.52c0 .12.14.23.32.23h1.57c.17 0 .31.13.31.29v1.04c0 .16-.14.3-.31.3h-1.56c-.17 0-.31.12-.31.29v5.72c0 .16-.15.3-.32.3h-1.52c-.17 0-.31-.14-.31-.3z"/><path id="7y6qd" d="M1437.56 3273.59c0-.17.14-.3.32-.3h1.42c.18 0 .33.13.33.3l.03.4c0 .17.1.2.22.08l.17-.15c.15-.14.33-.26.53-.37a3.6 3.6 0 0 1 2.22-.38l.2.04c.16.04.27.21.23.37l-.3 1.3c-.04.16-.2.25-.36.2l-.16-.03a3.71 3.71 0 0 0-.53-.03c-.3 0-.57.04-.84.13-.27.1-.5.22-.7.4-.19.16-.34.37-.46.6-.11.24-.14.5-.14.5-.02.17-.03.43-.03.6v3.69c0 .16-.14.29-.32.29h-1.51c-.18 0-.32-.13-.32-.3z"/><path id="7y6qe" d="M1449.04 3280.79c0-.16-.12-.2-.25-.1 0 0-.35.3-.82.5a3.98 3.98 0 0 1-2.64.15c-.34-.1-.66-.26-.94-.47a2.38 2.38 0 0 1-.96-1.95 2.55 2.55 0 0 1 1.04-2.1c.33-.25.72-.43 1.18-.56a5.87 5.87 0 0 1 2.1-.18 20.77 20.77 0 0 1 .96.05c.17 0 .31-.03.31-.08s-.03-.22-.07-.38c0 0-.1-.42-.44-.64a2.37 2.37 0 0 0-1.33-.34c-.6 0-1.09.07-1.45.22-.37.15-.7.32-.7.32a.36.36 0 0 1-.45-.1l-.63-.86a.28.28 0 0 1 .09-.4l.32-.19a6.7 6.7 0 0 1 3.12-.65c.54 0 1.04.07 1.48.21.44.14.82.34 1.14.6.31.25.56.55.73.9.17.36.22.87.22.87.02.17.03.43.03.6v4.73c0 .17-.14.3-.32.3h-1.37c-.17 0-.32-.13-.33-.3zm-.02-2.85c0-.16-.14-.3-.31-.3l-.33-.02a15.7 15.7 0 0 0-1.02-.04c-.69 0-1.17.13-1.45.38-.28.26-.42.55-.42.88 0 .33.13.6.39.79.26.2.65.29 1.16.29a2.3 2.3 0 0 0 1.36-.44c.18-.14.33-.3.45-.48a.83.83 0 0 0 .13-.28c.02-.16.04-.42.04-.59z"/><path id="7y6qf" d="M1418 3270.54c0-.33.28-.59.63-.59h1.03c.35 0 .64.26.64.59v.92c0 .32-.29.59-.64.59h-1.03c-.35 0-.63-.27-.63-.59z"/><path id="7y6qg" d="M1462.25 3279.97c.12.12.1.3-.02.41 0 0-.64.52-1.19.76a5.79 5.79 0 0 1-3.86.05 3.74 3.74 0 0 1-2.33-2.2 4.63 4.63 0 0 1 .03-3.36 4.15 4.15 0 0 1 2.38-2.26 4.98 4.98 0 0 1 1.87-.34 5 5 0 0 1 1.9.35c.57.23 1.21.74 1.21.74.13.11.14.29.02.4l-.92.87a.34.34 0 0 1-.45.01s-.3-.26-.63-.4c-.33-.15-.7-.23-1.13-.23-.41 0-.77.07-1.07.21-.3.15-.56.33-.76.55-.2.23-.35.5-.45.8a3.04 3.04 0 0 0 0 1.83 2.27 2.27 0 0 0 2.28 1.6c.43-.01.81-.09 1.17-.24.35-.15.66-.42.66-.42.12-.1.33-.1.44.02z"/><path id="7y6qh" d="M1462.32 3277.26a4.03 4.03 0 0 1 1.28-2.98c.4-.38.88-.69 1.44-.91a4.98 4.98 0 0 1 1.87-.34c.68 0 1.3.11 1.87.34a4.16 4.16 0 0 1 2.39 5.53 4.24 4.24 0 0 1-2.4 2.27 5 5 0 0 1-1.86.34 5 5 0 0 1-1.87-.34 4.38 4.38 0 0 1-2.38-2.28 4.03 4.03 0 0 1-.34-1.63m4.59 2.51a2.25 2.25 0 0 0 1.83-.83 2.79 2.79 0 0 0 .45-2.56c-.1-.3-.26-.56-.46-.8a2.3 2.3 0 0 0-1.82-.82c-.42 0-.77.07-1.08.22a2.3 2.3 0 0 0-1.2 1.4 2.8 2.8 0 0 0 0 1.75c.1.3.25.57.45.82a2.25 2.25 0 0 0 1.83.82"/><path id="7y6qi" d="M1509.35 3279.87c.12.12.15.27.08.34l-.17.16c-.16.15-.4.31-.7.48a5.79 5.79 0 0 1-2.91.66c-.68 0-1.3-.1-1.86-.32a3.84 3.84 0 0 1-2.34-2.25 4.7 4.7 0 0 1 0-3.4 3.98 3.98 0 0 1 2.26-2.19 4.64 4.64 0 0 1 1.76-.32c.77 0 1.43.13 1.97.4.54.26.98.61 1.3 1.04.33.43.57.91.71 1.45a8.76 8.76 0 0 1 .22 1.8c0 .09-.14.15-.31.15h-5.75c-.17 0-.3.13-.28.3 0 0 .04.26.18.5.14.23.32.44.54.6a2.78 2.78 0 0 0 1.61.52 4.72 4.72 0 0 0 1.88-.35c.22-.1.4-.2.54-.3l.14-.12c.1-.08.27-.05.39.07zm-2.2-3.45c.18 0 .3-.13.29-.29 0 0-.01-.11-.1-.31-.08-.2-.2-.39-.37-.55-.17-.16-.38-.3-.63-.4a2.57 2.57 0 0 0-1.81 0c-.28.1-.5.24-.69.4-.18.16-.32.34-.41.55-.1.2-.12.31-.12.31-.02.16.11.3.29.3z"/><path id="7y6qj" d="M1510.97 3273.6c0-.17.14-.3.32-.3h1.42c.18 0 .33.13.33.3l.03.4c0 .17.1.2.22.08l.17-.15c.15-.14.33-.26.53-.37a3.57 3.57 0 0 1 2.41-.34c.17.04.28.21.24.37l-.3 1.3c-.04.16-.2.25-.36.2l-.16-.03a3.7 3.7 0 0 0-.53-.03c-.3 0-.57.04-.84.13-.27.1-.5.22-.7.4-.19.16-.34.37-.46.6-.11.24-.14.5-.14.5a7 7 0 0 0-.03.6v3.69c0 .16-.14.29-.32.29h-1.51c-.18 0-.32-.13-.32-.3z"/><path id="7y6qk" d="M1524.33 3279.97c.12.12.1.3-.02.41 0 0-.64.52-1.19.76a5.79 5.79 0 0 1-3.86.05 3.74 3.74 0 0 1-2.33-2.2 4.63 4.63 0 0 1 .03-3.36 4.15 4.15 0 0 1 2.38-2.26 4.98 4.98 0 0 1 1.87-.34 5 5 0 0 1 1.9.35c.57.23 1.21.74 1.21.74.13.11.14.29.02.4l-.92.87a.34.34 0 0 1-.45.01s-.3-.26-.63-.4c-.33-.15-.7-.23-1.13-.23a2.29 2.29 0 0 0-1.83.76c-.2.23-.35.5-.45.8a3.04 3.04 0 0 0 0 1.83 2.27 2.27 0 0 0 2.28 1.6c.42-.01.81-.09 1.17-.24.35-.15.66-.42.66-.42.12-.1.33-.1.44.02z"/><path id="7y6ql" d="M1532.62 3279.87c.12.12.15.27.08.34l-.17.16c-.16.15-.4.31-.7.48a5.8 5.8 0 0 1-2.91.66c-.68 0-1.3-.1-1.86-.32a3.84 3.84 0 0 1-2.34-2.25 4.7 4.7 0 0 1 0-3.4 3.98 3.98 0 0 1 2.26-2.19 4.64 4.64 0 0 1 1.76-.32c.77 0 1.43.13 1.97.4.54.26.98.61 1.3 1.04.33.43.57.91.71 1.45a8.76 8.76 0 0 1 .22 1.8c0 .09-.14.15-.31.15h-5.75c-.17 0-.3.13-.28.3 0 0 .04.26.18.5.14.23.32.44.54.6a2.78 2.78 0 0 0 1.61.52 4.72 4.72 0 0 0 1.88-.35c.22-.1.4-.2.54-.3l.14-.12c.1-.08.27-.05.39.07zm-2.2-3.45c.18 0 .3-.13.29-.29 0 0-.01-.11-.1-.31-.08-.2-.2-.39-.37-.55-.17-.16-.38-.3-.63-.4a2.57 2.57 0 0 0-1.81 0c-.28.1-.5.24-.69.4-.18.16-.32.34-.41.55-.1.2-.12.31-.12.31-.02.16.11.3.29.3z"/><path id="7y6qm" d="M1500.36 3276.7v-.29c0-1-.28-1.79-.85-2.38l-.01-.01c-.58-.6-1.4-.89-2.49-.89a5.14 5.14 0 0 0-1.6.26l-.18.09c-.32.15-.65.36-.96.64a.4.4 0 0 1-.3.03 3.06 3.06 0 0 0-2.46-1.02 3.6 3.6 0 0 0-1.38.26c-.07.03-.15.06-.21.1-.03 0-.05.02-.07.03-.17.1-.32.2-.44.31l-.02.02-.14.13c-.12.12-.23.08-.24-.08l-.01-.3c-.01-.17-.16-.3-.34-.3h-1.42c-.18 0-.32.13-.32.3v7.35c0 .15.14.29.32.29h1.51c.18 0 .32-.14.32-.3v-3.7l.02-.6.03-.2.08-.32c.1-.24.22-.44.37-.63l.04-.04.07-.07c.13-.13.28-.23.45-.32l.1-.06.08-.03a2 2 0 0 1 .73-.13c.35 0 .65.08.9.23l.22.18.1.13c.2.3.26.76.26.76.03.16.05.41.05.58V3280.95c0 .15.14.29.31.29h1.52c.17 0 .32-.14.32-.3v-3.7c0-.17 0-.43.02-.6 0 0 0-.08.03-.2.02-.1.04-.21.08-.31v-.01a1.86 1.86 0 0 1 1.03-1.12 1.97 1.97 0 0 1 1.7.07c.08.05.16.12.22.18l.1.13c.2.3.27.76.27.76.02.15.04.4.04.57v4.24c0 .15.15.29.32.29h1.52c.17 0 .31-.14.31-.3v-4.23z"/><path id="7y6qn" d="M1485.8 3276.7v-.29c0-1-.3-1.79-.86-2.38l-.01-.01c-.58-.6-1.4-.89-2.49-.89a5.14 5.14 0 0 0-1.6.26l-.18.09c-.32.15-.65.36-.96.64a.4.4 0 0 1-.3.03 3.06 3.06 0 0 0-2.46-1.02 3.6 3.6 0 0 0-1.38.26c-.07.03-.15.06-.21.1-.03 0-.05.02-.07.03a2.18 2.18 0 0 0-.6.46c-.12.12-.23.08-.24-.08l-.01-.3c-.01-.17-.16-.3-.34-.3h-1.42c-.18 0-.32.13-.32.3v7.35c0 .15.14.29.32.29h1.51c.18 0 .32-.14.32-.3v-3.7l.02-.6.03-.2.08-.32c.1-.24.22-.44.37-.63l.04-.04.07-.07c.13-.13.28-.23.45-.32l.1-.06.08-.03a2 2 0 0 1 .73-.13c.35 0 .65.08.9.23l.22.18.1.13c.2.3.26.76.26.76.03.16.05.41.05.58V3280.95c0 .15.14.29.31.29h1.52c.17 0 .32-.14.32-.3v-3.7c0-.17 0-.43.02-.6 0 0 0-.08.03-.2a2.28 2.28 0 0 1 .08-.32 1.86 1.86 0 0 1 1.03-1.12 1.97 1.97 0 0 1 1.7.07c.08.05.16.12.22.18l.1.13c.2.3.27.76.27.76.02.15.04.4.04.57v4.24c0 .15.15.29.32.29h1.52c.17 0 .31-.14.31-.3v-4.23z"/><path id="7y6qo" d="M1453.93 3278.93h-1.66c-.25 0-.45.2-.45.44v1.47c0 .24.2.44.45.44h1.66c.25 0 .45-.2.45-.44v-1.47c0-.24-.2-.44-.45-.44"/></defs><g><g transform="translate(-1417 -3258)"><g><use fill="#121212" xlink:href="#7y6qa"/></g><g><use fill="#121212" xlink:href="#7y6qb"/></g><g><use fill="#121212" xlink:href="#7y6qc"/></g><g><use fill="#121212" xlink:href="#7y6qd"/></g><g><use fill="#121212" xlink:href="#7y6qe"/></g><g><use fill="#121212" xlink:href="#7y6qf"/></g><g><use fill="#121212" xlink:href="#7y6qg"/></g><g><use fill="#121212" xlink:href="#7y6qh"/></g><g><use fill="#121212" xlink:href="#7y6qi"/></g><g><use fill="#121212" xlink:href="#7y6qj"/></g><g><use fill="#121212" xlink:href="#7y6qk"/></g><g><use fill="#121212" xlink:href="#7y6ql"/></g><g><use fill="#121212" xlink:href="#7y6qm"/></g><g><use fill="#121212" xlink:href="#7y6qn"/></g><g><use fill="#edb51d" xlink:href="#7y6qo"/></g><g><g fill="#636363" font-family="'Arial','ArialMT'" font-size="11"><text dominant-baseline="text-before-edge" font-family="Helvetica, Arial, sans-serif" transform="translate(1417 3256)"><tspan>Powered by</tspan></text></g></g></g></g></svg>