<svg xmlns="http://www.w3.org/2000/svg" xmlns:xlink="http://www.w3.org/1999/xlink" width="50" height="32" viewBox="0 0 50 32"><defs><path id="uk2sa" d="M1285 3036.54h49.87v31.18H1285z"/><path id="uk2sd" d="M1331.13 3036.54h-43.64a2.68 2.68 0 0 0-2.49 2.5v24.94c0 2.5 1.25 3.74 3.74 3.74h42.39c2.5 0 3.74-1.24 3.74-3.74v-23.7c0-2.5-1.25-3.74-3.74-3.74"/><path id="uk2se" d="M1300.35 3063.11v-1.3c0-.4-.17-.62-.52-.62h-.1a.55.55 0 0 0-.47.62v1.3h-.51v-1.3c0-.4-.18-.62-.51-.62h-.1a.55.55 0 0 0-.48.62v1.29h-.51v-2.34h.5v.29a.77.77 0 0 1 .7-.35c.3-.01.6.15.77.42a.9.9 0 0 1 .82-.42h.11c.48.04.84.45.81.93v1.47zm8.13-1.88h-.83v1.06c0 .24.09.4.34.4.15-.01.31-.06.45-.14l.15.44c-.2.12-.42.18-.64.18-.6 0-.82-.32-.82-.87v-1.07h-.48v-.47h.47v-.71h.52v.71h.84zm4.32-.54c.12 0 .25.02.36.07l-.15.49a.83.83 0 0 0-.32-.06c-.32 0-.5.21-.5.6v1.31h-.5v-2.34h.5v.28a.69.69 0 0 1 .62-.34zm-6.78.67a1.5 1.5 0 0 0-.73-.2c-.28 0-.45.11-.45.27 0 .16.18.2.4.23l.24.04c.51.07.82.25.82.7 0 .44-.4.76-1.07.76a1.7 1.7 0 0 1-1.01-.3l.24-.4c.23.17.5.25.78.24.35 0 .53-.1.53-.28 0-.13-.13-.2-.4-.24l-.25-.04c-.53-.07-.8-.3-.8-.69 0-.46.38-.75.97-.75.33-.01.67.07.95.25zm13.86-.67c.13 0 .25.02.37.07l-.16.49a.84.84 0 0 0-.32-.06c-.33 0-.5.21-.5.6v1.31h-.5v-2.34h.5v.28a.7.7 0 0 1 .62-.34zm-6.56 1.23v-.11c.04-.66.6-1.16 1.25-1.12.3-.01.6.09.84.28l-.24.41c-.18-.13-.4-.2-.61-.2a.75.75 0 0 0 0 1.49c.22 0 .43-.08.6-.21l.25.41c-.23.2-.53.3-.84.28h-.1a1.18 1.18 0 0 1-1.15-1.22zm4.77 1.17h-.5v-.28a.89.89 0 0 1-.74.34 1.22 1.22 0 0 1 0-2.45c.28 0 .56.12.73.34v-.28h.51zm-1.9-1.17v.06c.01.38.33.69.71.68a.7.7 0 1 0-.7-.74zm-6.13-1.21c.66 0 1.11.49 1.11 1.22v.2h-1.74c.04.35.35.6.7.57.25 0 .49-.09.68-.25l.25.38c-.28.22-.62.34-.97.32a1.22 1.22 0 0 1-.04-2.45zm-.02.45a.6.6 0 0 0-.62.55h1.22a.58.58 0 0 0-.59-.55zm12.77 1.93h-.49v-.28a.89.89 0 0 1-.73.34 1.22 1.22 0 0 1 0-2.45c.28 0 .55.12.73.34v-1.22h.49zm.94-.31c.03 0 .06.03.08.05l.05.07a.22.22 0 0 1-.05.25.25.25 0 0 1-.17.07.24.24 0 0 1-.22-.14.23.23 0 0 1 .13-.3.26.26 0 0 1 .18 0zm-.09.4a.18.18 0 0 0 .13-.05.18.18 0 0 0 0-.25.18.18 0 0 0-.2-.04.19.19 0 0 0-.06.04.18.18 0 0 0 0 .25.19.19 0 0 0 .14.05zm.01-.3a.1.1 0 0 1 .07.02l.02.06c0 .01 0 .03-.02.04a.09.09 0 0 1-.05.02l.07.08h-.05l-.07-.08h-.02v.08h-.05v-.21zm-.05.04v.06h.08v-.02-.02h-.03zm-2.7-.98v.05a.7.7 0 0 0 1.41.03.7.7 0 0 0-.66-.75.7.7 0 0 0-.74.67zm-17.2 1.15h-.5v-.28a.89.89 0 0 1-.74.34 1.22 1.22 0 0 1 0-2.45c.29 0 .56.12.74.34v-.28h.5zm-1.89-1.15v.06c0 .39.33.7.72.69a.7.7 0 0 0 .7-.67.71.71 0 0 0-.66-.75.7.7 0 0 0-.75.67z"/><path id="uk2sb" d="M1285 3067.72h49.87v-31.18H1285z"/><path id="uk2sg" d="M1306.08 3056.79h7.71v-13.86h-7.71z"/><path id="uk2sh" d="M1306.56 3049.86a8.8 8.8 0 0 1 3.37-6.94 8.81 8.81 0 1 0 0 13.86 8.8 8.8 0 0 1-3.37-6.92"/><path id="uk2si" d="M1324.2 3049.86a8.81 8.81 0 0 1-14.27 6.93 8.81 8.81 0 0 0 0-13.86 8.81 8.81 0 0 1 14.26 6.92z"/><path id="uk2sj" d="M1323.36 3055.32v-.28h.11v-.06h-.29v.06h.12v.28zm.56 0v-.34h-.09l-.1.24-.1-.24h-.08v.34h.06v-.25l.1.22h.06l.1-.22v.26z"/><clipPath id="uk2sc"><use xlink:href="#uk2sa"/></clipPath><clipPath id="uk2sf"><use xlink:href="#uk2sb"/></clipPath></defs><g><g transform="translate(-1285 -3036)"><g><g/><g clip-path="url(#uk2sc)"><use fill="#f3f3f3" xlink:href="#uk2sd"/></g></g><g><use fill="#221e1f" xlink:href="#uk2se"/></g><g/><g clip-path="url(#uk2sf)"><use fill="#f06022" xlink:href="#uk2sg"/></g><g clip-path="url(#uk2sf)"><use fill="#e91d25" xlink:href="#uk2sh"/></g><g clip-path="url(#uk2sf)"><use fill="#f59e1e" xlink:href="#uk2si"/></g><g clip-path="url(#uk2sf)"><use fill="#f59e1e" xlink:href="#uk2sj"/></g></g></g></svg>