<svg xmlns="http://www.w3.org/2000/svg" xmlns:xlink="http://www.w3.org/1999/xlink" width="93" height="7" viewBox="0 0 93 7"><defs><path id="brpea" d="M415.14 52.89v5.1h-1.38v-5.1H412v-1.2h4.9v1.2zm3.06-1.2h1.38v2.51h2.52v-2.5h1.38V58h-1.38v-2.57h-2.52v2.56h-1.38zm12.52 3.15c0 1.88-.97 3.27-3.01 3.27-2.05 0-3.02-1.4-3.02-3.27s.97-3.26 3.02-3.26c2.04 0 3.01 1.39 3.01 3.26zm-3.01-2.09c-1.16 0-1.64.86-1.64 2.1 0 1.22.48 2.08 1.64 2.08 1.15 0 1.63-.86 1.63-2.09s-.48-2.09-1.63-2.09zm4.23-1.06h1.39l1.96 4.16 1.97-4.16h1.38V58h-1.33v-3.6l-1.35 2.8h-1.34l-1.34-2.8V58h-1.34zm8.04 5.95l.3-1.1c.64.25 1.35.43 1.96.43.7 0 1.12-.17 1.12-.68 0-.5-.3-.64-1.25-.83-1.38-.28-2.15-.76-2.15-1.94 0-1.49 1-1.94 2.4-1.94.85 0 1.52.15 2.16.44l-.25 1.1a4.95 4.95 0 0 0-1.9-.41c-.69 0-1.03.14-1.03.66 0 .47.31.57 1.32.81 1.35.32 2.09.72 2.09 1.95 0 1.25-.91 1.98-2.5 1.98-.74 0-1.6-.2-2.27-.47zm11.7-2.8c0 1.88-.97 3.27-3.02 3.27-2.04 0-3.01-1.4-3.01-3.27s.97-3.26 3.01-3.26c2.05 0 3.02 1.39 3.02 3.26zm-3.02-2.09c-1.15 0-1.63.86-1.63 2.1 0 1.22.48 2.08 1.63 2.08 1.16 0 1.64-.86 1.64-2.09s-.48-2.09-1.64-2.09zm4.18-1.06h1.37l2.8 4.01v-4h1.35V58h-1.37l-2.8-4.02V58h-1.35zm15.55 6.3h-1.74l-1.4-2.23h-1.01v2.23h-1.39v-6.3h3.02c1.32 0 2.13.8 2.13 2.04 0 .87-.5 1.57-1.27 1.87zm-4.15-5.19v1.87h1.4c.57 0 .97-.33.97-.94 0-.6-.4-.93-.97-.93zm5.17-1.1h4.33v1.19h-2.95v1.28h2.76v1.2h-2.76v1.43h2.95V58h-4.33zm11 3.9c0 1.37-.87 2.52-2.66 2.52s-2.66-1.15-2.66-2.52v-3.9h1.38v3.97c0 .83.5 1.27 1.28 1.27s1.28-.44 1.28-1.27V51.7h1.38zm4.27-2.71v5.1h-1.38v-5.1h-1.76v-1.2h4.9v1.2zm3-1.2h4.34v1.2h-2.95v1.28h2.76v1.2h-2.76v1.43h2.95V58h-4.33zm11.17 6.3h-1.73l-1.41-2.23h-1v2.23h-1.38v-6.3h3c1.33 0 2.13.8 2.13 2.04 0 .87-.49 1.57-1.27 1.87zm-4.14-5.19v1.87h1.4c.57 0 .97-.33.97-.94 0-.6-.4-.93-.96-.93zm4.93 4.84l.3-1.1c.64.25 1.36.43 1.97.43.7 0 1.13-.17 1.13-.68 0-.5-.32-.64-1.26-.83-1.39-.28-2.16-.76-2.16-1.94 0-1.49 1-1.94 2.4-1.94a5 5 0 0 1 2.17.44l-.24 1.1a4.97 4.97 0 0 0-1.9-.41c-.7 0-1.04.14-1.04.66 0 .47.31.57 1.32.81 1.35.32 2.09.72 2.09 1.95 0 1.25-.91 1.98-2.5 1.98a6.4 6.4 0 0 1-2.28-.47z"/></defs><g><g clip-path="url(#clip-50C83BE8-3ECB-09A7-E77E-CAAADDF1B9B5)" transform="translate(-412 -51)"><use fill="#85878a" xlink:href="#brpea"/></g></g></svg>
