<svg xmlns="http://www.w3.org/2000/svg" xmlns:xlink="http://www.w3.org/1999/xlink" width="36" height="33" viewBox="0 0 36 33"><defs><path id="1e3wa" d="M435.06 3019.33c-.43.45-1.16.47-1.63.05a1.1 1.1 0 0 1-.04-1.6 1.17 1.17 0 0 1 1.62-.04c.47.43.49 1.14.05 1.6m-11.47-2.56c.23.2.24.56.02.78a.58.58 0 0 1-.8.02.55.55 0 0 1-.02-.78.58.58 0 0 1 .8-.02m2.88-1.07c.28.26.3.7.03.97a.71.71 0 0 1-1 .03.67.67 0 0 1-.02-.97c.26-.27.7-.29.99-.03m3.08-.22c.36.33.38.88.04 1.23a.9.9 0 0 1-1.26.04.86.86 0 0 1-.04-1.23.9.9 0 0 1 1.26-.04m2.92.73c.4.37.42.99.04 1.38-.38.4-1.01.41-1.42.04a.96.96 0 0 1-.04-1.38c.38-.4 1.01-.41 1.42-.04m-11.32 2.43a.4.4 0 0 1 .02.58.43.43 0 0 1-.6.02.4.4 0 0 1-.02-.58.43.43 0 0 1 .6-.02m14.73 10.2a.58.58 0 0 1 .8-.03c.23.2.24.56.03.78a.58.58 0 0 1-.8.03.55.55 0 0 1-.03-.79m.73-2.86a.72.72 0 0 1 .99-.03c.28.26.3.7.03.97s-.7.29-1 .03a.68.68 0 0 1-.02-.97m-.23-3.02a.9.9 0 0 1 1.26-.03c.36.33.38.88.04 1.23a.9.9 0 0 1-1.26.03.85.85 0 0 1-.04-1.23m-1.07-2.79c.38-.39 1.01-.4 1.41-.04.4.37.42.99.04 1.38-.37.4-1 .42-1.41.05a.96.96 0 0 1-.04-1.39m-1 11.15a.42.42 0 0 1 .6-.01.4.4 0 0 1 .02.58.42.42 0 0 1-.6.02.4.4 0 0 1-.01-.59m-12.22 1.45c-.43.45-1.16.47-1.62.05a1.11 1.11 0 0 1-.05-1.6 1.17 1.17 0 0 1 1.62-.04c.47.43.49 1.14.05 1.59m-2.49-11.06a.58.58 0 0 1-.8.02.54.54 0 0 1-.03-.78.58.58 0 0 1 .8-.02c.23.21.24.56.03.78m-.73 2.87a.72.72 0 0 1-1 .02.67.67 0 0 1-.02-.96c.26-.28.7-.3 1-.03.27.26.29.7.02.97m.23 3.01a.9.9 0 0 1-1.26.04.86.86 0 0 1-.04-1.23.91.91 0 0 1 1.26-.04c.36.33.38.88.04 1.23m1.07 2.8c-.38.38-1.01.4-1.42.04a.96.96 0 0 1-.03-1.39c.37-.39 1-.41 1.4-.04.41.37.43.99.05 1.38m11.72 3.4a.54.54 0 0 1-.03-.79.58.58 0 0 1 .8-.02c.23.21.24.56.03.78a.58.58 0 0 1-.8.03m-2.88 1.06a.67.67 0 0 1-.03-.96.72.72 0 0 1 1-.03c.28.26.29.7.02.96a.72.72 0 0 1-.99.03m-3.09.22a.86.86 0 0 1-.03-1.23.9.9 0 0 1 1.25-.03c.36.33.38.88.04 1.23a.9.9 0 0 1-1.26.03m-2.9-.72a.96.96 0 0 1-.05-1.38c.38-.4 1.01-.42 1.41-.05.4.37.42.99.05 1.39-.38.39-1.02.4-1.42.04m7.58-15.45a.9.9 0 0 1-1.1.59.87.87 0 0 1-.62-1.09.9.9 0 0 1 1.12-.6c.47.14.75.63.6 1.1m-8.59 2.06c.24.07.38.31.3.54a.44.44 0 0 1-.54.29.43.43 0 0 1-.3-.53.45.45 0 0 1 .54-.3m1.56-1.67c.29.09.45.39.37.67a.55.55 0 0 1-.68.36.53.53 0 0 1-.37-.66.55.55 0 0 1 .68-.37m1.99-1.17c.36.1.57.48.47.84a.7.7 0 0 1-.86.46.68.68 0 0 1-.47-.84.7.7 0 0 1 .86-.46m2.2-.48c.42.11.65.54.53.95a.79.79 0 0 1-.97.5.76.76 0 0 1-.53-.94c.13-.4.56-.63.97-.51m-6.73 5.39c.18.05.27.23.22.4a.33.33 0 0 1-.4.22.32.32 0 0 1-.23-.4.33.33 0 0 1 .41-.22m13.38 1.94a.45.45 0 0 1 .55-.3c.24.08.37.32.3.54a.44.44 0 0 1-.55.3.42.42 0 0 1-.3-.54m-.51-2.16c.08-.28.4-.44.68-.36.3.09.46.38.37.66a.55.55 0 0 1-.68.37.53.53 0 0 1-.37-.67m-1.2-1.94a.7.7 0 0 1 .85-.46c.38.1.59.48.48.84a.7.7 0 0 1-.87.46.67.67 0 0 1-.47-.84m-1.69-1.51c.12-.4.55-.64.97-.52.42.12.65.54.53.95a.79.79 0 0 1-.97.52.76.76 0 0 1-.53-.95m3.23 7.79a.33.33 0 0 1 .4-.22c.18.05.28.23.23.4a.33.33 0 0 1-.4.22.32.32 0 0 1-.23-.4m-7.63 5.03a.9.9 0 0 1-1.1.59.87.87 0 0 1-.61-1.09.9.9 0 0 1 1.1-.59c.48.14.75.62.61 1.09m-5.52-6.57a.44.44 0 0 1-.55.29.43.43 0 0 1-.3-.54.45.45 0 0 1 .55-.3c.24.08.37.32.3.55m.51 2.15a.55.55 0 0 1-.68.37.53.53 0 0 1-.37-.66.54.54 0 0 1 .68-.36c.29.08.46.37.37.65m1.2 1.95a.7.7 0 0 1-.86.46.67.67 0 0 1-.47-.84.7.7 0 0 1 .86-.47c.37.11.58.5.47.85m1.7 1.51a.79.79 0 0 1-.97.52.76.76 0 0 1-.53-.95c.12-.4.55-.63.97-.52.42.12.65.55.53.95m8.98-1.6a.43.43 0 0 1-.3-.54.45.45 0 0 1 .56-.3c.23.07.36.31.3.54a.45.45 0 0 1-.56.3m-1.55 1.66a.54.54 0 0 1-.37-.66c.09-.28.39-.44.68-.36.29.08.45.38.37.66a.55.55 0 0 1-.68.36m-1.99 1.18a.68.68 0 0 1-.47-.84.7.7 0 0 1 .86-.46c.37.1.58.48.47.84a.7.7 0 0 1-.86.46m-2.2.48a.76.76 0 0 1-.53-.94c.12-.4.55-.64.97-.52.42.12.65.54.53.95a.78.78 0 0 1-.97.51m-1.83-12.42c.18.33.06.74-.28.92a.7.7 0 0 1-.94-.28.67.67 0 0 1 .27-.91.7.7 0 0 1 .95.27m-3.44 5.32c.2-.1.45-.03.56.16.11.2.03.45-.17.55a.4.4 0 0 1-.55-.16.4.4 0 0 1 .16-.55m-.07-1.63a.48.48 0 0 1 .65.18c.13.23.04.51-.19.64a.49.49 0 0 1-.65-.2.46.46 0 0 1 .2-.62m.43-1.58c.26-.14.59-.04.74.22.14.26.04.59-.23.72a.55.55 0 0 1-.74-.21.53.53 0 0 1 .23-.73m.88-1.36c.3-.16.68-.04.83.25.16.29.05.65-.25.8a.62.62 0 0 1-.83-.23.59.59 0 0 1 .25-.82m-.68 6.12a.35.35 0 0 1 .46.13c.1.17.03.37-.13.46a.35.35 0 0 1-.46-.14.33.33 0 0 1 .13-.45m7.92-5.57a.4.4 0 0 1 .17-.54c.2-.1.45-.03.56.16.1.2.03.44-.17.55-.2.1-.45.03-.56-.17m-1.39-.86a.47.47 0 0 1 .2-.64.48.48 0 0 1 .64.2c.13.22.04.5-.2.62a.48.48 0 0 1-.64-.18m-1.6-.42a.53.53 0 0 1 .21-.72c.27-.15.6-.05.74.2.14.27.05.59-.22.73a.55.55 0 0 1-.74-.21m-1.67.06a.6.6 0 0 1 .24-.81c.3-.16.68-.05.84.24a.6.6 0 0 1-.25.82.62.62 0 0 1-.83-.25m5.72 2.44a.34.34 0 0 1 .13-.45.35.35 0 0 1 .46.14c.09.16.03.36-.14.45a.34.34 0 0 1-.45-.14m-1.18 6.37c.18.32.05.73-.29.92a.71.71 0 0 1-.94-.28.66.66 0 0 1 .28-.92.7.7 0 0 1 .95.28m-6.29-.66c.1.2.03.44-.16.53a.4.4 0 0 1-.55-.15.4.4 0 0 1 .16-.54c.2-.1.45-.03.55.16m1.4.86a.48.48 0 0 1-.84.45.46.46 0 0 1 .2-.64.48.48 0 0 1 .64.2m1.6.41c.15.26.05.59-.22.72a.55.55 0 0 1-.74-.21.53.53 0 0 1 .23-.72c.26-.14.6-.05.74.21m1.68-.06c.16.29.05.65-.25.8a.61.61 0 0 1-.83-.23.59.59 0 0 1 .24-.82c.3-.15.67-.04.84.25m3.8-5.24c-.19.1-.44.03-.55-.16a.4.4 0 0 1 .17-.55c.2-.1.45-.03.56.17a.4.4 0 0 1-.18.54m.08 1.63a.5.5 0 0 1-.65-.18.47.47 0 0 1 .2-.64.48.48 0 0 1 .64.2c.13.22.04.5-.19.62m-.44 1.58a.56.56 0 0 1-.74-.22.53.53 0 0 1 .23-.72c.27-.14.6-.04.74.21.14.26.04.59-.23.73m-.88 1.35a.62.62 0 0 1-.83-.24.6.6 0 0 1 .25-.81c.3-.16.67-.05.83.24.16.3.05.66-.25.81m11.92-2.26c-.99 0-1.79-.78-1.79-1.74 0-.97.8-1.74 1.8-1.74.97 0 1.78.77 1.78 1.74 0 .96-.8 1.74-1.8 1.74m-7-15.04a.99.99 0 0 1-1.17.74.96.96 0 0 1-.76-1.14.98.98 0 0 1 1.17-.74c.53.11.87.62.76 1.14m3.52 2.46a1.2 1.2 0 0 1-1.37.97c-.65-.1-1.1-.7-1-1.33.11-.64.72-1.07 1.37-.97.65.1 1.1.7 1 1.33m2.83 3.2c-.09.8-.82 1.38-1.64 1.3a1.47 1.47 0 0 1-1.32-1.6c.09-.8.82-1.38 1.64-1.3.82.09 1.4.8 1.32 1.6m1.75 3.69a1.63 1.63 0 0 1-1.72 1.52c-.9-.05-1.6-.8-1.55-1.69.05-.89.82-1.56 1.72-1.51.9.04 1.6.79 1.55 1.68m-16.33-11.63a.7.7 0 0 1-.72.7.7.7 0 0 1-.71-.7c0-.39.32-.7.71-.7.4 0 .72.31.72.7m7.06 28.13a.99.99 0 0 1 1.17.74.96.96 0 0 1-.76 1.14.99.99 0 0 1-1.17-.74.96.96 0 0 1 .76-1.14m3.32-2.69a1.2 1.2 0 0 1 1.37.97c.1.64-.35 1.23-1 1.34-.65.1-1.26-.33-1.36-.97-.1-.64.34-1.24.99-1.34m2.56-3.52c.82-.08 1.55.5 1.64 1.3.09.8-.5 1.5-1.32 1.6a1.48 1.48 0 0 1-1.64-1.3c-.09-.8.51-1.51 1.32-1.6m1.67-3.91c.9-.04 1.68.63 1.72 1.52.05.89-.64 1.63-1.55 1.68-.9.05-1.67-.63-1.72-1.52a1.62 1.62 0 0 1 1.55-1.68m-15.33 12.45c.4 0 .72.31.72.7 0 .39-.32.7-.72.7a.7.7 0 0 1-.71-.7c0-.39.32-.7.71-.7m-15.95-13.14c-.99 0-1.79-.78-1.79-1.74 0-.97.8-1.74 1.79-1.74.98 0 1.78.77 1.78 1.74 0 .96-.8 1.74-1.78 1.74m8.18-14.3a.99.99 0 0 1-1.17-.74.96.96 0 0 1 .76-1.14.98.98 0 0 1 1.17.74.96.96 0 0 1-.76 1.14m-3.32 2.7c-.65.1-1.27-.34-1.37-.98-.1-.64.34-1.23 1-1.33.64-.1 1.26.33 1.36.97.1.63-.34 1.23-1 1.33m-2.56 3.52c-.82.09-1.55-.5-1.64-1.29-.08-.8.51-1.51 1.33-1.6.82-.08 1.55.5 1.64 1.3.09.8-.51 1.5-1.33 1.6m-1.66 3.9c-.91.06-1.69-.62-1.73-1.51a1.62 1.62 0 0 1 1.55-1.68c.9-.05 1.68.62 1.73 1.51.05.89-.65 1.64-1.55 1.69m6.38 15.72a.99.99 0 0 1 1.17-.74c.53.11.87.62.76 1.14a.99.99 0 0 1-1.17.74.96.96 0 0 1-.76-1.14m-3.52-2.46c.1-.63.71-1.07 1.36-.97.66.1 1.1.7 1 1.34-.1.64-.72 1.07-1.37.97-.65-.1-1.1-.7-.99-1.34m-2.83-3.2c.08-.8.81-1.37 1.63-1.29.82.09 1.42.8 1.33 1.6-.09.8-.82 1.38-1.64 1.3a1.46 1.46 0 0 1-1.32-1.6m-1.76-3.7c.04-.88.82-1.55 1.72-1.51.9.05 1.6.8 1.56 1.68a1.62 1.62 0 0 1-1.73 1.52c-.9-.05-1.6-.8-1.55-1.68m20.98 10.37c.42-.1.84.13.95.53.11.4-.13.81-.55.92a.78.78 0 0 1-.94-.53.75.75 0 0 1 .54-.92m-7.86 0c.41.1.66.52.55.92a.77.77 0 0 1-.95.53.75.75 0 0 1-.54-.92c.1-.4.53-.64.94-.53m8.8-29.18a.77.77 0 0 1-.94.54.75.75 0 0 1-.54-.92c.1-.4.53-.64.94-.53.41.1.66.51.55.91m-8.26-.38a.77.77 0 0 1-1.49.39.75.75 0 0 1 .54-.92c.41-.11.84.12.95.53m15.37 11.67c-.7.3-1.52-.02-1.83-.71-.3-.7.02-1.5.73-1.79.7-.3 1.53.02 1.83.71.3.69-.02 1.49-.73 1.79m-9.78-8.66c.08.4-.19.8-.6.88a.77.77 0 0 1-.91-.59c-.09-.41.18-.8.6-.88.42-.08.82.18.9.59m3.3.7a.9.9 0 0 1-.66 1.1c-.5.13-1.01-.16-1.14-.65a.9.9 0 0 1 .67-1.1c.5-.13 1 .16 1.14.65m3.04 1.44c.19.6-.15 1.23-.76 1.42-.61.19-1.27-.15-1.46-.75-.19-.6.16-1.23.77-1.42.6-.19 1.26.14 1.45.75m2.43 2.1c.25.66-.1 1.38-.76 1.62a1.3 1.3 0 0 1-1.64-.74c-.25-.66.1-1.37.76-1.61s1.4.09 1.64.74m-15.4-3.4c.13.27 0 .6-.29.71a.57.57 0 0 1-.73-.28c-.13-.28 0-.6.29-.72.28-.12.61 0 .73.28m13.97 18.04a.78.78 0 0 1 1.07.18c.25.34.17.8-.18 1.04a.78.78 0 0 1-1.07-.17.74.74 0 0 1 .18-1.05m1.53-2.93a.95.95 0 0 1 1.29.28.9.9 0 0 1-.29 1.26.95.95 0 0 1-1.29-.28.9.9 0 0 1 .3-1.26m.72-3.3c.56-.3 1.26-.11 1.58.44.32.55.12 1.23-.44 1.54-.56.3-1.27.12-1.59-.43a1.12 1.12 0 0 1 .45-1.55m-.05-3.3a1.3 1.3 0 0 1 1.72.56c.32.63.05 1.38-.58 1.68-.63.3-1.4.06-1.72-.57a1.24 1.24 0 0 1 .58-1.67m-7.04 13.55c.28-.12.6 0 .73.28s0 .6-.3.72a.56.56 0 0 1-.73-.28c-.12-.28.01-.6.3-.72m-15.6-4.6c-.71.3-1.53-.02-1.84-.71-.3-.7.03-1.5.73-1.8.7-.3 1.53.02 1.83.72.3.69-.02 1.5-.72 1.79m1.33-12.73a.78.78 0 0 1-1.07-.17.74.74 0 0 1 .18-1.05.78.78 0 0 1 1.08.18c.24.34.16.8-.19 1.04m-1.53 2.94a.94.94 0 0 1-1.28-.28.9.9 0 0 1 .29-1.26.94.94 0 0 1 1.28.28.9.9 0 0 1-.29 1.26m-.72 3.3c-.56.3-1.27.1-1.58-.44a1.12 1.12 0 0 1 .44-1.54c.56-.31 1.27-.12 1.58.43.32.54.12 1.24-.44 1.54m.04 3.31c-.63.3-1.4.06-1.72-.56a1.24 1.24 0 0 1 .58-1.68 1.3 1.3 0 0 1 1.72.57c.32.61.06 1.37-.58 1.67m9.56 9.35c-.08-.4.19-.8.6-.89.42-.07.82.19.9.6.09.4-.18.8-.6.88a.77.77 0 0 1-.9-.59m-3.3-.7a.9.9 0 0 1 .67-1.1c.5-.13 1.01.16 1.14.65a.9.9 0 0 1-.68 1.1c-.5.13-1-.16-1.13-.65m-3.05-1.44c-.19-.6.15-1.23.77-1.42.6-.18 1.26.15 1.45.75.2.6-.15 1.23-.76 1.42a1.16 1.16 0 0 1-1.46-.75m-2.43-2.11c-.24-.65.1-1.37.76-1.6.67-.25 1.4.08 1.65.73s-.1 1.37-.76 1.61-1.4-.08-1.65-.74m18.34 1.1c.26-.2.64-.16.84.1.2.25.16.62-.1.82a.61.61 0 0 1-.84-.1.58.58 0 0 1 .1-.82m-5.64 2.37a.6.6 0 0 1 .68.5.59.59 0 0 1-.5.66.6.6 0 0 1-.69-.5.59.59 0 0 1 .5-.66m-2.92-23.57a.6.6 0 0 1-.5.66.6.6 0 0 1-.69-.5.59.59 0 0 1 .51-.66.6.6 0 0 1 .68.5m-6.04 2.21c.2.26.16.62-.1.83a.61.61 0 0 1-.84-.1.58.58 0 0 1 .1-.82c.26-.2.63-.16.84.1"/></defs><g><g clip-path="url(#clip-2AD7FBE1-ABFD-D9AE-5E2A-2995CF4FAAC0)" transform="translate(-410 -3009)"><use fill="#ff6c0e" xlink:href="#1e3wa"/></g></g></svg>