<svg xmlns="http://www.w3.org/2000/svg" xmlns:xlink="http://www.w3.org/1999/xlink" width="107" height="8" viewBox="0 0 107 8"><defs><path id="f7oza" d="M456.64 3022.84v5.84c0 .12-.1.2-.21.2h-1.03a.2.2 0 0 1-.21-.2v-5.84h-2.08c-.12 0-.21-.07-.21-.18v-.8c0-.12.1-.2.2-.2h5.62c.11 0 .2.08.2.2v.8c0 .1-.09.18-.2.18zm8.57 6.05a.2.2 0 0 1-.2-.2v-2.95h-3.31v2.94c0 .12-.1.2-.2.2h-1.04a.2.2 0 0 1-.21-.2v-6.83c0-.11.1-.2.2-.2h1.04c.11 0 .2.09.2.2v2.64H465v-2.64c0-.11.1-.2.21-.2h1.03c.12 0 .21.09.21.2v6.83c0 .12-.1.2-.2.2zm2.89-3.1v-1.04c0-2.24 1.6-3.17 3.31-3.17 1.72 0 3.32.93 3.32 3.17v1.05c0 2.24-1.6 3.17-3.32 3.17-1.72 0-3.31-.93-3.31-3.17zm5.17-1.04c0-1.34-.83-1.94-1.86-1.94-1.02 0-1.85.6-1.85 1.94v1.04c0 1.35.83 1.95 1.85 1.95 1.03 0 1.86-.6 1.86-1.95zm9.39 4.14c-.1 0-.16-.1-.16-.2v-4.4c0-.08-.02-.1-.04-.1l-.05.05-1.68 3.64c-.07.11-.2.18-.34.18h-.54c-.13 0-.27-.07-.33-.18l-1.7-3.64-.05-.06c-.02 0-.03.03-.03.1v4.4c0 .1-.07.2-.17.2h-1.05c-.1 0-.18-.04-.18-.15v-6.66c0-.23.19-.41.42-.41h.85c.17 0 .32.1.4.24l2 3.98c.04.09.06.14.1.14.05 0 .07-.05.12-.14l2-3.98a.44.44 0 0 1 .39-.24h.85c.23 0 .42.18.42.4v6.67c0 .1-.08.16-.18.16zm22.9 0c-.25 0-.46 0-.63-.37l-2.83-4.62c-.03-.06-.06-.08-.09-.08s-.05.02-.05.08v4.78a.2.2 0 0 1-.2.2h-.89a.2.2 0 0 1-.2-.2v-6.61c0-.23.18-.41.41-.41h1.13c.22 0 .33.06.46.32l2.94 4.9c.02.05.05.08.08.08.02 0 .05-.03.05-.09v-5.02c0-.11.08-.2.2-.2h.9c.11 0 .2.09.2.2v6.63c0 .22-.2.4-.42.4zm-19.55-.18c-.1-.02-.2-.1-.2-.2v-.74c0-.1.1-.2.2-.2h.02c.42.06 1.4.2 2.36.2.93 0 1.2-.33 1.2-.92 0-.76-1.86-1.19-2.77-1.55a1.82 1.82 0 0 1-1.23-1.78c0-1.12.93-1.94 2.87-1.94 1 0 1.9.18 2.26.27.1.02.18.1.18.2v.74c0 .1-.07.19-.17.19h-.02c-.7-.06-1.4-.19-2.32-.19-.77 0-1.35.27-1.35.73 0 .33.4.64.86.82.46.18 1.07.4 1.76.68.88.35 1.45.85 1.45 1.83 0 1.03-.65 2.13-2.74 2.13-.92 0-1.86-.16-2.36-.27zm6.41-2.91v-1.05c0-2.24 1.6-3.17 3.32-3.17 1.72 0 3.31.93 3.31 3.17v1.05c0 2.24-1.6 3.17-3.31 3.17-1.72 0-3.32-.93-3.32-3.17zm5.17-1.05c0-1.34-.83-1.94-1.85-1.94s-1.86.6-1.86 1.94v1.04c0 1.35.84 1.95 1.86 1.95s1.85-.6 1.85-1.95zm18.99 4.14c-.11 0-.16-.1-.2-.2l-1.51-2.47h-.23l-1.36-.04v2.5a.2.2 0 0 1-.2.21h-1.04a.2.2 0 0 1-.2-.2V3022c0-.2.12-.27.33-.3.54-.08 1.7-.13 2.47-.13 1.6 0 3.09.56 3.09 2.3v.1c0 1.07-.56 1.66-1.41 1.98l1.63 2.73c.03.03.03.06.03.08 0 .07-.05.12-.13.12zm-.28-5.01c0-.76-.61-1.1-1.66-1.1-.22 0-1.17.03-1.35.05v2.2c.16.02 1.17.04 1.35.04 1.08 0 1.66-.2 1.66-1.1zm4.46 3c0 .86.03.88.82.88h2.64c.12 0 .21.1.21.2v.66c0 .14-.05.19-.2.21-.34.05-1.02.14-2.26.14-1.73 0-2.65.01-2.65-2.08v-3.23c0-2.1.92-2.08 2.65-2.08 1.24 0 1.92.09 2.25.14.16.02.21.07.21.21v.65c0 .12-.1.2-.2.2h-2.65c-.79 0-.82.03-.82.88v.94h3.34c.11 0 .2.09.2.2v.74c0 .1-.09.2-.2.2h-3.34zm5.23-.79v-4.24c0-.11.1-.2.21-.2h1.03c.12 0 .21.09.21.2v4.24c0 1.16.55 1.71 1.68 1.71 1.12 0 1.67-.55 1.67-1.71v-4.24c0-.11.1-.2.21-.2h1.03c.12 0 .21.09.21.2v4.24c0 2.17-1.44 2.88-3.12 2.88-1.68 0-3.13-.71-3.13-2.88zm11.03-3.25v5.84c0 .12-.1.2-.21.2h-1.03a.2.2 0 0 1-.21-.2v-5.84h-2.09c-.1 0-.2-.07-.2-.18v-.8c0-.12.1-.2.2-.2h5.62c.11 0 .2.08.2.2v.8c0 .1-.09.18-.2.18zm14.97 6.05c-.11 0-.16-.1-.2-.2l-1.51-2.47h-.23l-1.36-.04v2.5a.2.2 0 0 1-.2.21h-1.04a.2.2 0 0 1-.2-.2V3022c0-.2.12-.27.33-.3.54-.08 1.7-.13 2.47-.13 1.6 0 3.09.56 3.09 2.3v.1c0 1.07-.56 1.66-1.41 1.98l1.64 2.73c.02.03.02.06.02.08 0 .07-.04.12-.13.12zm-.3-5.01c0-.76-.6-1.1-1.65-1.1-.21 0-1.16.03-1.35.05v2.2c.17.02 1.18.04 1.35.04 1.08 0 1.65-.2 1.65-1.1zm3.2 4.83c-.1-.02-.2-.1-.2-.2v-.74c0-.1.1-.2.2-.2h.02c.41.06 1.4.2 2.35.2.93 0 1.22-.33 1.22-.92 0-.76-1.87-1.19-2.78-1.55a1.82 1.82 0 0 1-1.23-1.78c0-1.12.92-1.94 2.86-1.94 1 0 1.9.18 2.26.27.1.02.19.1.19.2v.74c0 .1-.07.19-.18.19h-.02c-.69-.06-1.4-.19-2.3-.19-.78 0-1.36.27-1.36.73 0 .33.4.64.86.82l1.76.68c.88.35 1.45.85 1.45 1.83 0 1.03-.66 2.13-2.75 2.13-.92 0-1.85-.16-2.35-.27zm-13.07-1.82c0 .85.03.87.82.87h2.64c.12 0 .21.1.21.2v.66c0 .14-.05.19-.2.21-.34.05-1.02.14-2.26.14-1.73 0-2.65.01-2.65-2.08v-3.23c0-2.1.92-2.08 2.65-2.08 1.24 0 1.92.09 2.25.14.16.02.21.07.21.21v.65c0 .12-.1.2-.2.2h-2.65c-.79 0-.82.03-.82.88v.94h3.34c.11 0 .2.09.2.2v.74c0 .1-.09.2-.2.2h-3.34z"/></defs><g><g clip-path="url(#clip-F742DF9E-7796-38F3-4F96-55482FB362DF)" transform="translate(-453 -3021)"><use fill="#636569" xlink:href="#f7oza"/></g></g></svg>