<svg xmlns="http://www.w3.org/2000/svg" xmlns:xlink="http://www.w3.org/1999/xlink" width="50" height="32" viewBox="0 0 50 32"><defs><path id="kkoma" d="M1225 3036.54h50v31.26h-50z"/><path id="kkomc" d="M1271.25 3036.54h-43.75a2.69 2.69 0 0 0-2.5 2.5v25.01c0 2.5 1.25 3.75 3.75 3.75h42.5c2.5 0 3.75-1.25 3.75-3.75v-23.76c0-2.5-1.25-3.75-3.75-3.75"/><path id="kkomd" d="M1259.3 3046.28a8.41 8.41 0 0 0-2.98-.52c-3.28 0-5.59 1.69-5.6 4.1-.02 1.79 1.64 2.79 2.9 3.38 1.3.61 1.72 1 1.72 1.54 0 .84-1.03 1.22-1.99 1.22a6.83 6.83 0 0 1-3.12-.65l-.42-.2-.47 2.78c.77.35 2.2.65 3.7.66 3.48 0 5.74-1.66 5.77-4.24.01-1.42-.87-2.5-2.78-3.38-1.16-.58-1.87-.96-1.87-1.54 0-.52.6-1.07 1.9-1.07a6 6 0 0 1 2.49.47l.3.15.44-2.7"/><path id="kkome" d="M1267.8 3045.99h-2.57c-.8 0-1.39.22-1.73 1.03l-4.93 11.4h3.48l.7-1.87h4.25l.4 1.87h3.08zm-4.1 8.01l1.33-3.47.44-1.19.22 1.07.77 3.6z"/><path id="kkomf" d="M1243.95 3058.4l2.07-12.43h3.32l-2.07 12.43z"/><path id="kkomg" d="M1241.17 3045.98l-3.25 8.48-.35-1.72a9.64 9.64 0 0 0-4.59-5.22l2.97 10.87h3.5l5.23-12.41h-3.51"/><path id="kkomh" d="M1234.91 3045.98h-5.35l-.04.26c4.16 1.03 6.91 3.52 8.06 6.5l-1.17-5.71c-.2-.79-.78-1.02-1.5-1.05"/><clipPath id="kkomb"><use xlink:href="#kkoma"/></clipPath></defs><g><g transform="translate(-1225 -3036)"><g><g/><g clip-path="url(#kkomb)"><use fill="#f3f3f3" xlink:href="#kkomc"/></g></g><g><use fill="#265797" xlink:href="#kkomd"/></g><g><use fill="#265797" xlink:href="#kkome"/></g><g><use fill="#265797" xlink:href="#kkomf"/></g><g><use fill="#265797" xlink:href="#kkomg"/></g><g><use fill="#d77b27" xlink:href="#kkomh"/></g></g></g></svg>